SplineFontDB: 3.0
FontName: TeXGyreAdventor-Italic
FullName: TeXGyreAdventor-Italic
FamilyName: TeXGyreAdventor
Weight: Regular
Copyright: Copyright 2007-2018 for TeX Gyre extensions by B. Jackowski, J.M. Nowacki, et al. (on behalf of TeX USERS GROUPS). Vietnamese characters were added by Han The Thanh.
UComments: "2018-5-8: Created with FontForge (http://fontforge.org)"
Version: 2.501
ItalicAngle: -10.5
UnderlinePosition: -100
UnderlineWidth: 58
Ascent: 750
Descent: 250
InvalidEm: 0
sfntRevision: 0x00028042
LayerCount: 2
Layer: 0 0 "Back" 1
Layer: 1 0 "Fore" 0
XUID: [1021 531 -396554946 761]
StyleMap: 0x0001
FSType: 0
OS2Version: 0
OS2_WeightWidthSlopeOnly: 0
OS2_UseTypoMetrics: 1
CreationTime: 1525768090
ModificationTime: 1525768097
PfmFamily: 16
TTFWeight: 400
TTFWidth: 5
LineGap: 0
VLineGap: 90
Panose: 2 0 5 3 2 2 0 0 0 4
OS2TypoAscent: 739
OS2TypoAOffset: 0
OS2TypoDescent: -192
OS2TypoDOffset: 0
OS2TypoLinegap: 0
OS2WinAscent: 0
OS2WinAOffset: 1
OS2WinDescent: 0
OS2WinDOffset: 1
HheadAscent: 739
HheadAOffset: 0
HheadDescent: -192
HheadDOffset: 0
OS2SubXSize: 650
OS2SubYSize: 699
OS2SubXOff: 0
OS2SubYOff: 140
OS2SupXSize: 650
OS2SupYSize: 699
OS2SupXOff: 0
OS2SupYOff: 479
OS2StrikeYSize: 49
OS2StrikeYPos: 258
Lookup: 3 0 0 "'aalt' Access All Alternates lookup 0" { "'aalt' Access All Alternates lookup 0 subtable"  } ['aalt' ('DFLT' <'dflt' > ) ]
Lookup: 3 0 0 "'aalt' Access All Alternates in Latin lookup 0" { "'aalt' Access All Alternates in Latin lookup 0 subtable"  } ['aalt' ('latn' <'ROM ' 'MOL ' 'dflt' 'AZE ' 'CRT ' 'NLD ' 'PLK ' 'TRK ' > ) ]
Lookup: 2 0 0 "ccmp_decomp_sub" { "ccmp_decomp_sub subtable"  } []
Lookup: 1 0 0 "locl_ROM" { "locl_ROM subtable"  } ['locl' ('latn' <'ROM ' 'MOL ' > ) ]
Lookup: 1 0 0 "'smcp' Lowercase to Small Capitals in Latin lookup 2" { "'smcp' Lowercase to Small Capitals in Latin lookup 2 subtable"  } ['smcp' ('latn' <'dflt' 'AZE ' 'CRT ' 'MOL ' 'NLD ' 'PLK ' 'ROM ' 'TRK ' > 'DFLT' <'dflt' > ) ]

StartChar: acute
Encoding: 256 180 0
Width: 375
VWidth: 0
Flags: W
TeX: 782 0
HStem: 594 172
VStem: 202 238
LayerCount: 2
Fore
SplineSet
202 650 m 1
 416 766 l 1
 440 708 l 1
 226 594 l 1
 202 650 l 1
EndSplineSet
Validated: 1
EndChar

StartChar: acute.cap
Encoding: 257 -1 1
Width: 375
VWidth: 0
Flags: W
TeX: 756 0
HStem: 584 172
VStem: 200 238
LayerCount: 2
Fore
SplineSet
200 640 m 1
 414 756 l 1
 438 698 l 1
 224 584 l 1
 200 640 l 1
EndSplineSet
Validated: 1
EndChar

StartChar: circumflex
Encoding: 258 710 2
Width: 502
VWidth: 0
Flags: W
TeX: 749 0
HStem: 607 126
LayerCount: 2
Fore
SplineSet
156 607 m 1
 324 733 l 1
 390 733 l 1
 510 607 l 1
 421 607 l 1
 349 681 l 1
 247 607 l 1
 156 607 l 1
EndSplineSet
Validated: 1
EndChar

StartChar: circumflex.cap
Encoding: 259 -1 3
Width: 502
VWidth: 0
Flags: W
TeX: 723 0
HStem: 597 126
LayerCount: 2
Fore
SplineSet
155 597 m 1
 323 723 l 1
 389 723 l 1
 509 597 l 1
 420 597 l 1
 348 671 l 1
 246 597 l 1
 155 597 l 1
EndSplineSet
Validated: 1
EndChar

StartChar: dieresis
Encoding: 260 168 4
Width: 369
VWidth: 0
Flags: W
TeX: 749 0
HStem: 607 126<178 229 325 376>
VStem: 155 244
LayerCount: 2
Fore
SplineSet
155 607 m 1
 178 733 l 1
 252 733 l 1
 229 607 l 1
 155 607 l 1
302 607 m 1
 325 733 l 1
 399 733 l 1
 376 607 l 1
 302 607 l 1
EndSplineSet
Validated: 1
EndChar

StartChar: breve
Encoding: 261 728 5
Width: 453
VWidth: 0
Flags: W
TeX: 743 0
HStem: 612 55<252.925 393.862>
VStem: 174 64<681.653 729>
LayerCount: 2
Fore
SplineSet
174 729 m 1
 238 729 l 1
 244 680 268 667 319 667 c 0
 369 667 412 690 425 729 c 1
 478 729 l 1
 455 652 395 612 306 612 c 0
 228 612 178 639 174 729 c 1
EndSplineSet
Validated: 1
EndChar

StartChar: breve.cap
Encoding: 262 -1 6
Width: 453
VWidth: 0
Flags: W
TeX: 719 0
HStem: 602 55<256.925 397.862>
VStem: 178 64<671.653 719>
LayerCount: 2
Fore
SplineSet
178 719 m 1
 242 719 l 1
 248 670 272 657 323 657 c 0
 373 657 416 680 429 719 c 1
 482 719 l 1
 459 642 399 602 310 602 c 0
 232 602 182 629 178 719 c 1
EndSplineSet
Validated: 1
EndChar

StartChar: dotaccent
Encoding: 263 729 7
Width: 222
VWidth: 0
Flags: W
TeX: 749 0
HStem: 607 126<180 231>
VStem: 157 97
LayerCount: 2
Fore
SplineSet
157 607 m 1
 180 733 l 1
 254 733 l 1
 231 607 l 1
 157 607 l 1
EndSplineSet
Validated: 1
EndChar

StartChar: macron
Encoding: 264 175 8
Width: 485
VWidth: 0
Flags: W
TeX: 713 0
HStem: 638 64<174 499>
LayerCount: 2
Fore
SplineSet
162 638 m 1
 174 702 l 1
 511 702 l 1
 499 638 l 1
 162 638 l 1
EndSplineSet
Validated: 1
AlternateSubs2: "'aalt' Access All Alternates lookup 0 subtable" macron.alt
AlternateSubs2: "'aalt' Access All Alternates in Latin lookup 0 subtable" macron.alt
Substitution2: "'ss04' Style Set 4 in Latin lookup 18 subtable" macron.alt
Substitution2: "'ss01' Style Set 1 in Latin lookup 15 subtable" macron.alt
Substitution2: "'salt' Stylistic Alternatives in Latin lookup 14 subtable" macron.alt
EndChar

StartChar: ring
Encoding: 265 730 9
Width: 332
VWidth: 0
Flags: W
TeX: 790 0
HStem: 579 44<208.212 299.981> 737 44<222.62 313.995>
VStem: 159 42<631.222 714.037> 323 41<648.33 726.051>
LayerCount: 2
Fore
SplineSet
159 658 m 0
 159 724 214 781 279 781 c 0
 330 781 364 746 364 694 c 0
 364 636 304 579 242 579 c 0
 194 579 159 612 159 658 c 0
201 669 m 0
 201 643 221 623 250 623 c 0
 285 623 323 657 323 689 c 0
 323 715 300 737 271 737 c 0
 236 737 201 704 201 669 c 0
EndSplineSet
Validated: 1
EndChar

StartChar: hungarumlaut
Encoding: 266 733 10
Width: 552
VWidth: 0
Flags: W
TeX: 780 0
HStem: 584 172
LayerCount: 2
Fore
SplineSet
233 634 m 1
 425 756 l 1
 456 706 l 1
 262 584 l 1
 233 634 l 1
428 634 m 1
 621 756 l 1
 651 706 l 1
 457 584 l 1
 428 634 l 1
EndSplineSet
Validated: 1
EndChar

StartChar: caron
Encoding: 267 711 11
Width: 502
VWidth: 0
Flags: W
TeX: 749 0
HStem: 607 126
LayerCount: 2
Fore
SplineSet
180 733 m 1
 269 733 l 1
 341 659 l 1
 443 733 l 1
 534 733 l 1
 366 607 l 1
 300 607 l 1
 180 733 l 1
EndSplineSet
Validated: 1
EndChar

StartChar: tilde
Encoding: 268 732 12
Width: 439
VWidth: 0
Flags: W
TeX: 734 0
HStem: 615 62<321.543 404.203> 667 61<218.489 300.457>
VStem: 163 296
LayerCount: 2
Fore
SplineSet
163 674 m 1x60
 185 702 213 728 245 728 c 0x60
 271 728 294 718 314 704 c 0
 329 693 352 677 360 677 c 0
 387 677 409 701 427 725 c 1
 459 670 l 1
 437 641 409 615 377 615 c 0xa0
 351 615 328 626 308 640 c 0
 293 650 270 667 262 667 c 0
 235 667 213 642 195 618 c 1
 163 674 l 1x60
EndSplineSet
Validated: 1
EndChar

StartChar: ogonek
Encoding: 269 731 13
Width: 302
VWidth: 0
Flags: W
TeX: 5 -250
HStem: -250 74<95.7396 160> -20 20G<83 190>
VStem: 12 76<-171.977 -76.1218>
LayerCount: 2
Fore
SplineSet
12 -147 m 0
 12 -88 50 -42 116 0 c 1
 190 0 l 1
 127 -31 88 -81 88 -116 c 0
 88 -141 95 -176 124 -176 c 0
 143 -176 158 -175 174 -172 c 1
 160 -246 l 1
 140 -249 116 -250 100 -250 c 0
 32 -250 12 -193 12 -147 c 0
EndSplineSet
Validated: 1
EndChar

StartChar: cedilla
Encoding: 270 184 14
Width: 324
VWidth: 0
Flags: W
TeX: 0 -227
HStem: -249 56<84.4442 164.428> -19 20G<100.053 170>
VStem: 172 56<-185.428 -105.029>
LayerCount: 2
Fore
SplineSet
21 -160 m 1
 78 -160 l 1
 85 -179 103 -193 124 -193 c 0
 151 -193 172 -172 172 -145 c 0
 172 -119 151 -97 124 -97 c 0
 107 -97 92 -106 83 -119 c 1
 44 -94 l 1
 115 1 l 1
 170 1 l 1
 138 -42 l 1
 189 -49 228 -92 228 -145 c 0
 228 -202 181 -249 124 -249 c 0
 72 -249 28 -210 21 -160 c 1
EndSplineSet
Validated: 1
EndChar

StartChar: space_uni0309
Encoding: 271 -1 15
Width: 204
VWidth: 0
Flags: W
TeX: 261 0
HStem: 741 50<168.467 251.851>
VStem: 153 54<589 626.815> 252 56<690.219 739.188>
LayerCount: 2
Fore
SplineSet
95 686 m 1
 119 766 163 791 222 791 c 0
 275 791 308 764 308 722 c 0
 308 704 302 687 289 672 c 0
 281 664 279 662 254 645 c 1
 254 645 255 646 253 645 c 0
 225 627 211 611 207 589 c 1
 153 589 l 1
 157 628 178 655 214 679 c 0
 248 701 252 709 252 719 c 0
 252 732 238 741 217 741 c 0
 187 741 165 729 150 686 c 1
 95 686 l 1
EndSplineSet
Validated: 1
EndChar

StartChar: space_uni0309.cap
Encoding: 272 -1 16
Width: 204
VWidth: 0
Flags: W
TeX: 261 0
HStem: 731 50<166.467 249.851>
VStem: 151 54<579 616.815> 250 56<680.219 729.188>
LayerCount: 2
Fore
SplineSet
93 676 m 1
 117 756 161 781 220 781 c 0
 273 781 306 754 306 712 c 0
 306 694 300 677 287 662 c 0
 279 654 277 652 252 635 c 1
 252 635 253 636 251 635 c 0
 223 617 209 601 205 579 c 1
 151 579 l 1
 155 618 176 645 212 669 c 0
 246 691 250 699 250 709 c 0
 250 722 236 731 215 731 c 0
 185 731 163 719 148 676 c 1
 93 676 l 1
EndSplineSet
Validated: 1
EndChar

StartChar: dotlessi
Encoding: 273 305 17
Width: 200
VWidth: 0
GlyphClass: 2
Flags: W
TeX: 547 0
HStem: 0 21G<33 110.693> 527 20G<130.307 208>
VStem: 33 175
AnchorPoint: "bot_acc" 47 -123 basechar 0
AnchorPoint: "dotbelow" 47 -123 basechar 0
AnchorPoint: "ogon_acc" 15 -123 basechar 0
AnchorPoint: "top_accl" 194 670 basechar 0
AnchorPoint: "dotabove" 194 670 basechar 0
LayerCount: 2
Fore
SplineSet
33 0 m 1
 134 547 l 1
 208 547 l 1
 107 0 l 1
 33 0 l 1
EndSplineSet
Validated: 1
AlternateSubs2: "'aalt' Access All Alternates lookup 0 subtable" dotlessi.sc
AlternateSubs2: "'aalt' Access All Alternates in Latin lookup 0 subtable" dotlessi.sc
Substitution2: "'smcp' Lowercase to Small Capitals in Latin lookup 2 subtable" dotlessi.sc
EndChar

StartChar: i
Encoding: 105 105 18
Width: 200
VWidth: 0
GlyphClass: 2
Flags: W
TeX: 733 0
HStem: 0 21G<33 110.693> 527 20G<130.307 208>
VStem: 33 210
AnchorPoint: "bot_acc" 47 -123 basechar 0
AnchorPoint: "dotbelow" 47 -123 basechar 0
AnchorPoint: "ogon_acc" 15 -123 basechar 0
LayerCount: 2
Fore
SplineSet
33 0 m 1
 134 547 l 1
 208 547 l 1
 107 0 l 1
 33 0 l 1
146 607 m 1
 169 733 l 1
 243 733 l 1
 220 607 l 1
 146 607 l 1
EndSplineSet
Validated: 1
AlternateSubs2: "'aalt' Access All Alternates lookup 0 subtable" dotlessi i.sc
AlternateSubs2: "'aalt' Access All Alternates in Latin lookup 0 subtable" dotlessi i.sc
Substitution2: "ccmp_sub_acc subtable" dotlessi
Substitution2: "'smcp' Lowercase to Small Capitals in Latin lookup 2 subtable" i.sc
EndChar

StartChar: Lslash
Encoding: 163 321 19
Width: 517
VWidth: 0
GlyphClass: 2
Flags: W
TeX: 739 0
HStem: 0 67<178 472> 538 20G<398.576 422.429> 719 20G<225.264 303>
AnchorPoint: "bot_acc" 259 -123 basechar 0
AnchorPoint: "dotbelow" 259 -123 basechar 0
AnchorPoint: "ogon_acc" 380 -123 basechar 0
AnchorPoint: "top_accu" 287 852 basechar 0
AnchorPoint: "dotabove" 287 852 basechar 0
LayerCount: 2
Fore
SplineSet
40 226 m 1
 56 310 l 1
 164 391 l 1
 229 739 l 1
 303 739 l 1
 245 426 l 1
 426 558 l 1
 411 474 l 1
 229 342 l 1
 178 67 l 1
 484 67 l 1
 472 0 l 1
 92 0 l 1
 149 307 l 1
 40 226 l 1
EndSplineSet
Validated: 1
AlternateSubs2: "'aalt' Access All Alternates lookup 0 subtable" lslash.sc
AlternateSubs2: "'aalt' Access All Alternates in Latin lookup 0 subtable" lslash.sc
Substitution2: "'c2sc' Capitals to Small Capitals in Latin lookup 13 subtable" lslash.sc
Position2: "'cpsp' Capital Spacing in Latin lookup 13 subtable" dx=7 dy=0 dh=14 dv=0
EndChar

StartChar: lslash
Encoding: 179 322 20
Width: 300
VWidth: 0
GlyphClass: 2
Flags: W
TeX: 739 0
HStem: 0 21G<88 165.747> 719 20G<221.306 299>
VStem: 64 276
AnchorPoint: "bot_acc" 104 -123 basechar 0
AnchorPoint: "dotbelow" 104 -123 basechar 0
AnchorPoint: "ogon_acc" 70 -123 basechar 0
AnchorPoint: "top_accl" 287 862 basechar 0
AnchorPoint: "dotabove" 287 862 basechar 0
LayerCount: 2
Fore
SplineSet
64 298 m 1
 77 372 l 1
 167 425 l 1
 225 739 l 1
 299 739 l 1
 247 452 l 1
 340 507 l 1
 326 434 l 1
 233 379 l 1
 162 0 l 1
 88 0 l 1
 154 352 l 1
 64 298 l 1
EndSplineSet
Validated: 1
AlternateSubs2: "'aalt' Access All Alternates lookup 0 subtable" lslash.sc
AlternateSubs2: "'aalt' Access All Alternates in Latin lookup 0 subtable" lslash.sc
Substitution2: "'smcp' Lowercase to Small Capitals in Latin lookup 2 subtable" lslash.sc
EndChar

StartChar: exclam
Encoding: 33 33 21
Width: 295
VWidth: 0
Flags: W
TeX: 739 0
HStem: 0 21G<81 158.651> 719 20G<214.31 292>
VStem: 81 211
LayerCount: 2
Fore
SplineSet
81 0 m 1
 104 126 l 1
 178 126 l 1
 155 0 l 1
 81 0 l 1
118 197 m 1
 218 739 l 1
 292 739 l 1
 192 197 l 1
 118 197 l 1
EndSplineSet
Validated: 1
EndChar

StartChar: quotedbl
Encoding: 34 34 22
Width: 309
VWidth: 0
Flags: W
TeX: 739 0
HStem: 513 226<181 189 294 302>
VStem: 139 205
LayerCount: 2
Fore
SplineSet
139 513 m 1
 181 739 l 1
 231 739 l 1
 189 513 l 1
 139 513 l 1
252 513 m 1
 294 739 l 1
 344 739 l 1
 302 513 l 1
 252 513 l 1
EndSplineSet
Validated: 1
EndChar

StartChar: numbersign
Encoding: 35 35 23
Width: 554
VWidth: 0
Flags: W
TeX: 739 0
HStem: 0 21G<49 122.426 245 318.342> 237 60<32 138 226 332 420 524> 453 60<109 219 306 411 499 599> 719 20G<318.478 390 508.655 582>
LayerCount: 2
Fore
SplineSet
21 237 m 1
 32 297 l 1
 160 297 l 1
 219 453 l 1
 98 453 l 1
 109 513 l 1
 241 513 l 1
 326 739 l 1
 390 739 l 1
 306 513 l 1
 433 513 l 1
 516 739 l 1
 582 739 l 1
 499 513 l 1
 610 513 l 1
 599 453 l 1
 477 453 l 1
 420 297 l 1
 535 297 l 1
 524 237 l 1
 398 237 l 1
 311 0 l 1
 245 0 l 1
 332 237 l 1
 203 237 l 1
 115 0 l 1
 49 0 l 1
 138 237 l 1
 21 237 l 1
226 297 m 1
 354 297 l 1
 411 453 l 1
 284 453 l 1
 226 297 l 1
EndSplineSet
Validated: 1
EndChar

StartChar: dollar
Encoding: 36 36 24
Width: 554
VWidth: 0
Flags: W
TeX: 810 -56
HStem: 29 61<194.26 220 286 338.581> 547 21G<473 543.5>
VStem: 82 72<128.443 228> 167 72<469.788 597.159> 417 77<171.76 315.414> 475 70<547 635.156>
LayerCount: 2
Fore
SplineSet
82 178 m 0xf8
 82 191 83 201 88 228 c 1
 156 228 l 1
 154 204 154 202 154 196 c 0
 154 133 197 90 261 90 c 0
 347 90 417 162 417 252 c 0xf8
 417 303 398 334 305 363 c 0
 196 397 167 444 167 513 c 0
 167 618 244 708 350 728 c 1
 365 810 l 1
 431 810 l 1
 416 728 l 1
 507 708 545 663 545 573 c 0
 545 567 544 558 543 547 c 1
 473 547 l 1
 475 570 475 571 475 579 c 0xf4
 475 629 435 665 379 665 c 0
 300 665 239 601 239 516 c 0
 239 477 265 455 343 428 c 0
 470 384 494 339 494 264 c 0
 494 159 420 53 286 29 c 1
 270 -56 l 1
 204 -56 l 1
 220 29 l 1
 151 39 82 88 82 178 c 0xf8
EndSplineSet
Validated: 1
AlternateSubs2: "'aalt' Access All Alternates lookup 0 subtable" dollar.oldstyle
AlternateSubs2: "'aalt' Access All Alternates in Latin lookup 0 subtable" dollar.oldstyle
Substitution2: "'onum' Oldstyle Figures in Latin lookup 3 subtable" dollar.oldstyle
EndChar

StartChar: percent
Encoding: 37 37 25
Width: 775
VWidth: 0
Flags: W
TeX: 739 0
HStem: -13 68<496.109 624.198> 0 21G<153 237.747> 270 68<529.656 657.193> 397 68<184.579 313.409> 681 68<217.591 346.193> 719 20G<608.334 696>
VStem: 87 68<494.125 618.956> 376 68<526.975 650.38> 398 68<84.3281 209.343> 687 68<116.553 239.648>
LayerCount: 2
Fore
SplineSet
87 542 m 0x3b40
 87 644 185 749 299 749 c 0
 382 749 444 687 444 606 c 0
 444 498 343 397 235 397 c 0
 149 397 87 458 87 542 c 0x3b40
153 0 m 1x7640
 621 739 l 1
 696 739 l 1
 225 0 l 1
 153 0 l 1x7640
155 552 m 0
 155 502 193 465 243 465 c 0
 314 465 376 526 376 595 c 0
 376 643 337 681 288 681 c 0x3b40
 217 681 155 621 155 552 c 0
398 132 m 0xb2c0
 398 239 500 338 610 338 c 0
 693 338 755 277 755 195 c 0
 755 87 654 -13 545 -13 c 0
 460 -13 398 48 398 132 c 0xb2c0
466 142 m 0
 466 93 504 55 554 55 c 0
 625 55 687 116 687 185 c 0
 687 232 648 270 599 270 c 0
 529 270 466 209 466 142 c 0
EndSplineSet
Validated: 1
EndChar

StartChar: ampersand
Encoding: 38 38 26
Width: 757
VWidth: 0
Flags: W
TeX: 739 0
HStem: -13 68<189.324 342.976> 684 68<355.34 485.572>
VStem: 63 72<108.283 259.696> 223 77<511.813 632.067> 509 72<539.141 660.042>
LayerCount: 2
Fore
SplineSet
63 173 m 0
 63 254 111 337 190 387 c 1
 261 424 l 2
 265 426 271 429 278 433 c 1
 237 489 223 521 223 560 c 0
 223 662 321 752 432 752 c 0
 520 752 581 697 581 617 c 0
 581 527 538 472 401 411 c 1
 516 273 l 1
 662 481 l 1
 744 481 l 1
 560 220 l 1
 713 38 l 1
 653 -13 l 1
 512 153 l 1
 450 57 366 -13 256 -13 c 0
 139 -13 63 60 63 173 c 0
135 177 m 0
 135 106 190 55 266 55 c 0
 333 55 407 108 467 206 c 1
 321 380 l 1
 185 318 135 264 135 177 c 0
300 572 m 0
 300 541 314 517 357 464 c 1
 480 515 509 543 509 603 c 0
 509 653 476 684 421 684 c 0
 360 684 300 631 300 572 c 0
EndSplineSet
Validated: 1
AlternateSubs2: "'aalt' Access All Alternates lookup 0 subtable" ampersand
AlternateSubs2: "'aalt' Access All Alternates in Latin lookup 0 subtable" ampersand
Substitution2: "'lnum' Lining Figures in Latin lookup 4 subtable" ampersand
Substitution2: "'onum' Oldstyle Figures in Latin lookup 3 subtable" ampersand
EndChar

StartChar: quotesingle
Encoding: 39 39 27
Width: 198
VWidth: 0
Flags: W
TeX: 739 0
HStem: 513 226<181 189>
VStem: 139 92
LayerCount: 2
Fore
SplineSet
139 513 m 1
 181 739 l 1
 231 739 l 1
 189 513 l 1
 139 513 l 1
EndSplineSet
Validated: 1
EndChar

StartChar: comma
Encoding: 44 44 28
Width: 277
VWidth: 0
Flags: W
TeX: 126 -67
HStem: -67 193
VStem: 49 197
LayerCount: 2
Fore
SplineSet
49 -67 m 1
 173 126 l 1
 246 126 l 1
 122 -67 l 1
 49 -67 l 1
EndSplineSet
Validated: 1
EndChar

StartChar: hyphen
Encoding: 45 45 29
Width: 332
VWidth: 0
Flags: W
TeX: 296 0
HStem: 233 63<62 322>
VStem: 50 284
LayerCount: 2
Fore
SplineSet
50 233 m 1
 62 296 l 1
 334 296 l 1
 322 233 l 1
 50 233 l 1
EndSplineSet
Validated: 1
EndChar

StartChar: period
Encoding: 46 46 30
Width: 277
VWidth: 0
Flags: W
TeX: 126 0
HStem: 0 126<94 145>
VStem: 71 97
LayerCount: 2
Fore
SplineSet
71 0 m 1
 94 126 l 1
 168 126 l 1
 145 0 l 1
 71 0 l 1
EndSplineSet
Validated: 1
EndChar

StartChar: zero
Encoding: 48 48 31
Width: 554
VWidth: 0
Flags: W
TeX: 739 0
HStem: -13 68<179.273 355.096> 684 68<279.7 455.968>
VStem: 41 77<114.349 331.625> 514 77<410.594 626.068>
LayerCount: 2
Fore
SplineSet
41 175 m 0
 41 202 45 241 49 260 c 2
 51 269 l 1
 90 479 l 2
 124 664 235 752 388 752 c 0
 508 752 591 676 591 575 c 0
 591 554 586 501 582 479 c 2
 543 269 l 2
 506 72 402 -13 247 -13 c 0
 120 -13 41 59 41 175 c 0
118 189 m 0
 118 109 175 55 260 55 c 0
 372 55 442 119 472 281 c 2
 505 462 l 2
 511 497 514 523 514 550 c 0
 514 636 453 684 374 684 c 0
 257 684 186 612 159 462 c 2
 126 281 l 2
 123 267 118 204 118 189 c 0
EndSplineSet
Validated: 1
AlternateSubs2: "'aalt' Access All Alternates lookup 0 subtable" zero.slash zero.prop zero.oldstyle
AlternateSubs2: "'aalt' Access All Alternates in Latin lookup 0 subtable" zero.slash zero.prop zero.oldstyle
Substitution2: "'zero' Slashed Zero in Latin lookup 21 subtable" zero.slash
Substitution2: "'pnum' Proportional Numbers in Latin lookup 5 subtable" zero.prop
Substitution2: "'onum' Oldstyle Figures in Latin lookup 3 subtable" zero.oldstyle
EndChar

StartChar: one
Encoding: 49 49 32
Width: 554
VWidth: 0
Flags: W
TeX: 739 0
HStem: 0 21G<251 327.708> 672 67<262 376>
VStem: 250 211
LayerCount: 2
Fore
SplineSet
250 672 m 1
 262 739 l 1
 461 739 l 1
 324 0 l 1
 251 0 l 1
 376 672 l 1
 250 672 l 1
EndSplineSet
Validated: 1
AlternateSubs2: "'aalt' Access All Alternates lookup 0 subtable" one.prop one.oldstyle
AlternateSubs2: "'aalt' Access All Alternates in Latin lookup 0 subtable" one.prop one.oldstyle
Substitution2: "'pnum' Proportional Numbers in Latin lookup 5 subtable" one.prop
Substitution2: "'onum' Oldstyle Figures in Latin lookup 3 subtable" one.oldstyle
EndChar

StartChar: two
Encoding: 50 50 33
Width: 554
VWidth: 0
Flags: W
TeX: 739 0
HStem: 0 67<115 472> 684 68<279.427 447.569>
VStem: 102 73<500 566.591> 500 77<477.352 632.624>
LayerCount: 2
Fore
SplineSet
3 0 m 1
 15 67 l 1
 321 317 l 2
 463 433 500 483 500 560 c 0
 500 635 448 684 368 684 c 0
 267 684 194 614 175 500 c 1
 102 500 l 1
 125 650 238 752 381 752 c 0
 499 752 577 680 577 572 c 0
 577 473 533 406 395 294 c 2
 115 67 l 1
 484 67 l 1
 472 0 l 1
 3 0 l 1
EndSplineSet
Validated: 1
AlternateSubs2: "'aalt' Access All Alternates lookup 0 subtable" two.prop two.oldstyle
AlternateSubs2: "'aalt' Access All Alternates in Latin lookup 0 subtable" two.prop two.oldstyle
Substitution2: "'pnum' Proportional Numbers in Latin lookup 5 subtable" two.prop
Substitution2: "'onum' Oldstyle Figures in Latin lookup 3 subtable" two.oldstyle
EndChar

StartChar: three
Encoding: 51 51 34
Width: 554
VWidth: 0
Flags: W
TeX: 739 0
HStem: -13 68<168.068 331.135> 388 66<270.727 377.262> 555 21G<154 231> 684 68<290.943 427.699>
VStem: 41 75<109.904 216 216.005 231> 154 73<555 615.72> 441 77<168.537 332.32> 457 77<518.641 654.384>
LayerCount: 2
Fore
SplineSet
41 171 m 0xfe
 41 177 41 193 44 231 c 1
 117 231 l 1
 116 223 116 216 116 216 c 1
 116 96 166 55 247 55 c 0
 350 55 441 147 441 252 c 0xfe
 441 355 373 388 260 388 c 1
 272 454 l 1
 311 452 l 1
 391 452 457 511 457 593 c 0
 457 645 422 684 364 684 c 0
 293 684 235 630 227 555 c 1
 154 555 l 1
 180 683 275 752 379 752 c 0
 472 752 534 692 534 604 c 0xfd
 534 528 497 468 426 423 c 1
 488 390 518 340 518 270 c 0
 518 120 387 -13 240 -13 c 0
 123 -13 41 64 41 171 c 0xfe
EndSplineSet
Validated: 1
AlternateSubs2: "'aalt' Access All Alternates lookup 0 subtable" three.prop three.oldstyle
AlternateSubs2: "'aalt' Access All Alternates in Latin lookup 0 subtable" three.prop three.oldstyle
Substitution2: "'pnum' Proportional Numbers in Latin lookup 5 subtable" three.prop
Substitution2: "'onum' Oldstyle Figures in Latin lookup 3 subtable" three.oldstyle
EndChar

StartChar: four
Encoding: 52 52 35
Width: 554
VWidth: 0
Flags: W
TeX: 739 0
HStem: 0 21G<357 433.704> 135 67<105 382 467 523> 719 20G<462.831 567>
LayerCount: 2
Fore
SplineSet
7 135 m 1
 19 202 l 1
 480 739 l 1
 567 739 l 1
 467 202 l 1
 535 202 l 1
 523 135 l 1
 455 135 l 1
 430 0 l 1
 357 0 l 1
 382 135 l 1
 7 135 l 1
105 202 m 1
 394 202 l 1
 475 637 l 1
 105 202 l 1
EndSplineSet
Validated: 1
AlternateSubs2: "'aalt' Access All Alternates lookup 0 subtable" four.prop four.oldstyle
AlternateSubs2: "'aalt' Access All Alternates in Latin lookup 0 subtable" four.prop four.oldstyle
Substitution2: "'pnum' Proportional Numbers in Latin lookup 5 subtable" four.prop
Substitution2: "'onum' Oldstyle Figures in Latin lookup 3 subtable" four.oldstyle
EndChar

StartChar: five
Encoding: 53 53 36
Width: 554
VWidth: 0
Flags: W
TeX: 739 0
HStem: -13 68<175.123 339.249> 435 68<241.25 403.759> 672 67<285 561>
VStem: 37 72<128.119 232> 470 77<192.886 367.545>
LayerCount: 2
Fore
SplineSet
37 190 m 2
 37 232 l 1
 109 232 l 1
 109 107 172 55 253 55 c 0
 370 55 470 162 470 286 c 0
 470 374 411 435 326 435 c 0
 269 435 212 407 158 353 c 1
 105 375 l 1
 238 739 l 1
 573 739 l 1
 561 672 l 1
 285 672 l 1
 211 468 l 1
 264 493 302 503 347 503 c 0
 465 503 547 419 547 297 c 0
 547 133 399 -13 246 -13 c 0
 134 -13 37 68 37 190 c 2
EndSplineSet
Validated: 1
AlternateSubs2: "'aalt' Access All Alternates lookup 0 subtable" five.prop five.oldstyle
AlternateSubs2: "'aalt' Access All Alternates in Latin lookup 0 subtable" five.prop five.oldstyle
Substitution2: "'pnum' Proportional Numbers in Latin lookup 5 subtable" five.prop
Substitution2: "'onum' Oldstyle Figures in Latin lookup 3 subtable" five.oldstyle
EndChar

StartChar: six
Encoding: 54 54 37
Width: 554
VWidth: 0
Flags: W
TeX: 739 0
HStem: -13 68<179.528 344.355> 435 68<268.614 409.029> 719 20G<385.868 488>
VStem: 36 77<121 298.669> 472 77<191.521 368.272>
LayerCount: 2
Fore
SplineSet
36 189 m 0
 36 279 52 330 170 467 c 2
 403 739 l 1
 488 739 l 1
 267 482 l 1
 303 497 327 503 358 503 c 0
 470 503 549 419 549 299 c 0
 549 131 410 -13 247 -13 c 0
 123 -13 36 71 36 189 c 0
113 204 m 0
 113 114 171 55 261 55 c 0
 374 55 472 167 472 286 c 0
 472 375 416 435 331 435 c 0
 217 435 113 330 113 204 c 0
EndSplineSet
Validated: 1
AlternateSubs2: "'aalt' Access All Alternates lookup 0 subtable" six.prop six.oldstyle
AlternateSubs2: "'aalt' Access All Alternates in Latin lookup 0 subtable" six.prop six.oldstyle
Substitution2: "'pnum' Proportional Numbers in Latin lookup 5 subtable" six.prop
Substitution2: "'onum' Oldstyle Figures in Latin lookup 3 subtable" six.oldstyle
EndChar

StartChar: seven
Encoding: 55 55 38
Width: 554
VWidth: 0
Flags: W
TeX: 739 0
HStem: 0 21G<78 168.768> 672 67<171 509>
LayerCount: 2
Fore
SplineSet
78 0 m 1
 509 672 l 1
 159 672 l 1
 171 739 l 1
 597 739 l 1
 585 672 l 1
 156 0 l 1
 78 0 l 1
EndSplineSet
Validated: 1
AlternateSubs2: "'aalt' Access All Alternates lookup 0 subtable" seven.prop seven.oldstyle
AlternateSubs2: "'aalt' Access All Alternates in Latin lookup 0 subtable" seven.prop seven.oldstyle
Substitution2: "'pnum' Proportional Numbers in Latin lookup 5 subtable" seven.prop
Substitution2: "'onum' Oldstyle Figures in Latin lookup 3 subtable" seven.oldstyle
EndChar

StartChar: eight
Encoding: 56 56 39
Width: 554
VWidth: 0
Flags: W
TeX: 739 0
HStem: -13 68<183.77 345.32> 375 69<266.648 396.247> 684 68<299.529 439.426>
VStem: 48 77<111.425 269.975> 151 77<480.837 614.593> 451 75<162.857 323.106> 473 77<515.94 650.192>
LayerCount: 2
Fore
SplineSet
48 176 m 0xfc
 48 275 112 367 213 413 c 1
 162 451 151 478 151 527 c 0
 151 651 270 752 387 752 c 0
 484 752 550 691 550 603 c 0xfa
 550 526 516 450 431 413 c 1
 496 379 526 334 526 267 c 0
 526 112 402 -13 249 -13 c 0
 126 -13 48 61 48 176 c 0xfc
125 181 m 0
 125 108 182 55 259 55 c 0
 365 55 451 143 451 250 c 0xfc
 451 325 398 375 319 375 c 0
 214 375 125 290 125 181 c 0
228 541 m 0
 228 486 273 444 332 444 c 0
 410 444 473 516 473 587 c 0xfa
 473 646 434 684 373 684 c 0
 294 684 228 619 228 541 c 0
EndSplineSet
Validated: 1
AlternateSubs2: "'aalt' Access All Alternates lookup 0 subtable" eight.prop eight.oldstyle
AlternateSubs2: "'aalt' Access All Alternates in Latin lookup 0 subtable" eight.prop eight.oldstyle
Substitution2: "'pnum' Proportional Numbers in Latin lookup 5 subtable" eight.prop
Substitution2: "'onum' Oldstyle Figures in Latin lookup 3 subtable" eight.oldstyle
EndChar

StartChar: nine
Encoding: 57 57 40
Width: 554
VWidth: 0
Flags: W
TeX: 739 0
HStem: 0 21G<142 244.132> 236 68<221.952 362.675> 684 68<287.018 448.985>
VStem: 82 77<368.218 548.547> 518 77<438.504 615.125>
LayerCount: 2
Fore
SplineSet
82 435 m 0
 82 606 220 752 382 752 c 0
 508 752 595 670 595 550 c 0
 595 503 584 456 563 413 c 0
 543 372 527 351 460 272 c 2
 227 0 l 1
 142 0 l 1
 364 257 l 1
 328 242 304 236 273 236 c 0
 163 236 82 320 82 435 c 0
159 455 m 0
 159 364 214 304 299 304 c 0
 417 304 518 409 518 532 c 0
 518 623 458 684 370 684 c 0
 251 684 159 566 159 455 c 0
EndSplineSet
Validated: 1
AlternateSubs2: "'aalt' Access All Alternates lookup 0 subtable" nine.prop nine.oldstyle
AlternateSubs2: "'aalt' Access All Alternates in Latin lookup 0 subtable" nine.prop nine.oldstyle
Substitution2: "'pnum' Proportional Numbers in Latin lookup 5 subtable" nine.prop
Substitution2: "'onum' Oldstyle Figures in Latin lookup 3 subtable" nine.oldstyle
EndChar

StartChar: colon
Encoding: 58 58 41
Width: 277
VWidth: 0
Flags: W
TeX: 507 0
HStem: 0 21G<71 148.651>
VStem: 71 169
LayerCount: 2
Fore
SplineSet
71 0 m 1
 94 126 l 1
 168 126 l 1
 145 0 l 1
 71 0 l 1
143 381 m 1
 166 507 l 1
 240 507 l 1
 217 381 l 1
 143 381 l 1
EndSplineSet
Validated: 1
EndChar

StartChar: semicolon
Encoding: 59 59 42
Width: 277
VWidth: 0
Flags: W
TeX: 507 -67
VStem: -1 269
LayerCount: 2
Fore
SplineSet
-1 -67 m 1
 124 126 l 1
 196 126 l 1
 72 -67 l 1
 -1 -67 l 1
171 381 m 1
 194 507 l 1
 268 507 l 1
 245 381 l 1
 171 381 l 1
EndSplineSet
Validated: 1
EndChar

StartChar: question
Encoding: 63 63 43
Width: 591
VWidth: 0
Flags: W
TeX: 739 0
HStem: 0 21G<231 308.651> 684 68<305.064 469.744>
VStem: 129 70<508 564.422> 269 70<193 250.811> 520 77<486.47 636.909>
LayerCount: 2
Fore
SplineSet
129 508 m 1
 165 668 273 752 408 752 c 0
 522 752 597 683 597 577 c 0
 597 495 575 447 471 365 c 0
 383 295 349 249 339 193 c 1
 269 193 l 1
 275 262 321 329 408 397 c 0
 465 442 478 455 493 478 c 0
 511 504 520 534 520 567 c 0
 520 637 469 684 394 684 c 0
 300 684 232 631 199 508 c 1
 129 508 l 1
231 0 m 1
 254 126 l 1
 328 126 l 1
 305 0 l 1
 231 0 l 1
EndSplineSet
Validated: 1
EndChar

StartChar: at
Encoding: 64 64 44
Width: 867
VWidth: 0
Flags: W
TeX: 739 0
HStem: -13 52<319.227 553.526> 139 52<554.715 643.814> 144 58<328.84 439.146> 541 52<473.547 584.517> 700 52<436.72 662.709>
VStem: 103 53<200.885 418.57> 241 72<217.353 351.642> 800 53<382.716 575.473>
LayerCount: 2
Fore
SplineSet
103 298 m 0xdf
 103 538 322 752 568 752 c 0
 732 752 853 641 853 489 c 0
 853 328 694 139 562 139 c 0xdf
 514 139 492 155 483 196 c 1
 435 158 401 144 354 144 c 0xbf
 285 144 241 188 241 257 c 0
 241 405 412 593 544 593 c 0
 602 593 632 572 646 524 c 1
 672 574 l 1
 733 574 l 1
 588 296 l 2
 555 227 554 226 554 211 c 0
 554 200 568 191 585 191 c 0
 665 191 800 342 800 482 c 0
 800 610 698 700 552 700 c 0
 348 700 156 510 156 307 c 0
 156 151 271 39 431 39 c 0
 523 39 606 72 683 138 c 1
 717 105 l 1
 630 26 530 -13 413 -13 c 0
 234 -13 103 118 103 298 c 0xdf
313 271 m 0
 313 229 338 202 377 202 c 0xbf
 430 202 475 237 532 324 c 0
 573 387 598 446 598 482 c 0
 598 517 576 539 537 541 c 2
 532 541 l 2
 441 541 313 379 313 271 c 0
EndSplineSet
Validated: 1
AlternateSubs2: "'aalt' Access All Alternates lookup 0 subtable" at.alt
AlternateSubs2: "'aalt' Access All Alternates in Latin lookup 0 subtable" at.alt
Substitution2: "'ss02' Style Set 2 in Latin lookup 16 subtable" at.alt
Substitution2: "'ss01' Style Set 1 in Latin lookup 15 subtable" at.alt
Substitution2: "'salt' Stylistic Alternatives in Latin lookup 14 subtable" at.alt
EndChar

StartChar: A
Encoding: 65 65 45
Width: 740
VWidth: 0
GlyphClass: 2
Flags: W
TeX: 739 0
HStem: 0 21G<-19 71.3695 613.1 699> 249 67<254 541> 719 20G<422.713 522.899>
AnchorPoint: "bot_acc" 317 -123 basechar 0
AnchorPoint: "dotbelow" 317 -123 basechar 0
AnchorPoint: "ogon_acc" 607 -123 basechar 0
AnchorPoint: "top_accu" 497 852 basechar 0
AnchorPoint: "dotabove" 497 852 basechar 0
LayerCount: 2
Fore
SplineSet
-19 0 m 1
 435 739 l 1
 518 739 l 1
 699 0 l 1
 618 0 l 1
 557 249 l 1
 213 249 l 1
 59 0 l 1
 -19 0 l 1
254 316 m 1
 541 316 l 1
 461 655 l 1
 254 316 l 1
EndSplineSet
Validated: 1
AlternateSubs2: "'aalt' Access All Alternates lookup 0 subtable" a.sc
AlternateSubs2: "'aalt' Access All Alternates in Latin lookup 0 subtable" a.sc
Substitution2: "'c2sc' Capitals to Small Capitals in Latin lookup 13 subtable" a.sc
Position2: "'cpsp' Capital Spacing in Latin lookup 13 subtable" dx=7 dy=0 dh=14 dv=0
EndChar

StartChar: B
Encoding: 66 66 46
Width: 574
VWidth: 0
GlyphClass: 2
Flags: W
TeX: 739 0
HStem: 0 67<132 377.37> 354 67<198 427.204> 672 67<245 464.429>
VStem: 481 77<153.261 310.167> 500 77<493.298 640.837>
AnchorPoint: "bot_acc" 257 -123 basechar 0
AnchorPoint: "dotbelow" 257 -123 basechar 0
AnchorPoint: "ogon_acc" 137 -123 basechar 0
AnchorPoint: "top_accu" 438 852 basechar 0
AnchorPoint: "dotabove" 438 852 basechar 0
LayerCount: 2
Fore
SplineSet
46 0 m 1xf0
 183 739 l 1
 356 739 l 2
 507 739 577 693 577 595 c 0xe8
 577 513 543 429 457 394 c 1
 532 358 558 323 558 260 c 0
 558 184 525 109 473 64 c 0
 419 17 353 0 229 0 c 2
 46 0 l 1xf0
132 67 m 1
 233 67 l 2
 429 67 481 141 481 242 c 0xf0
 481 285 464 316 431 334 c 0
 405 348 358 354 274 354 c 2
 183 354 l 1
 132 67 l 1
198 421 m 1
 288 421 l 2
 379 421 422 432 455 462 c 0
 482 487 500 533 500 578 c 0xe8
 500 649 461 672 335 672 c 2
 245 672 l 1
 198 421 l 1
EndSplineSet
Validated: 1
AlternateSubs2: "'aalt' Access All Alternates lookup 0 subtable" b.sc
AlternateSubs2: "'aalt' Access All Alternates in Latin lookup 0 subtable" b.sc
Substitution2: "'c2sc' Capitals to Small Capitals in Latin lookup 13 subtable" b.sc
Position2: "'cpsp' Capital Spacing in Latin lookup 13 subtable" dx=7 dy=0 dh=14 dv=0
EndChar

StartChar: C
Encoding: 67 67 47
Width: 813
VWidth: 0
GlyphClass: 2
Flags: W
TeX: 739 0
HStem: -13 68<305.908 530.495> 547 21G<734.5 839> 684 68<413.592 646.472>
VStem: 76 77<202.453 426.25>
AnchorPoint: "bot_acc" 377 -123 basechar 0
AnchorPoint: "dotbelow" 377 -123 basechar 0
AnchorPoint: "ogon_acc" 377 -123 basechar 0
AnchorPoint: "top_accu" 558 852 basechar 0
AnchorPoint: "dotabove" 558 852 basechar 0
LayerCount: 2
Fore
SplineSet
76 290 m 0
 76 540 289 752 539 752 c 0
 691 752 813 669 839 547 c 1
 757 547 l 1
 712 648 633 684 529 684 c 0
 333 684 153 509 153 310 c 0
 153 162 263 55 414 55 c 0
 518 55 609 100 695 194 c 1
 777 194 l 1
 688 63 551 -13 402 -13 c 0
 209 -13 76 111 76 290 c 0
EndSplineSet
Validated: 1
AlternateSubs2: "'aalt' Access All Alternates lookup 0 subtable" c.sc
AlternateSubs2: "'aalt' Access All Alternates in Latin lookup 0 subtable" c.sc
Substitution2: "'c2sc' Capitals to Small Capitals in Latin lookup 13 subtable" c.sc
Position2: "'cpsp' Capital Spacing in Latin lookup 13 subtable" dx=7 dy=0 dh=14 dv=0
EndChar

StartChar: D
Encoding: 68 68 48
Width: 744
VWidth: 0
GlyphClass: 2
Flags: W
TeX: 739 0
HStem: 0 67<132 418.03> 672 67<245 513.682>
VStem: 667 77<313.609 543.821>
AnchorPoint: "bot_acc" 250 -123 basechar 0
AnchorPoint: "dotbelow" 250 -123 basechar 0
AnchorPoint: "ogon_acc" 153 -123 basechar 0
AnchorPoint: "top_accu" 431 852 basechar 0
AnchorPoint: "dotabove" 431 852 basechar 0
LayerCount: 2
Fore
SplineSet
46 0 m 1
 183 739 l 1
 357 739 l 2
 490 739 567 722 626 681 c 0
 703 628 744 547 744 448 c 0
 744 312 685 187 579 102 c 0
 489 30 392 0 245 0 c 2
 46 0 l 1
132 67 m 1
 235 67 l 2
 390 67 476 94 552 165 c 0
 623 231 667 336 667 435 c 0
 667 581 587 672 348 672 c 2
 245 672 l 1
 132 67 l 1
EndSplineSet
Validated: 1
AlternateSubs2: "'aalt' Access All Alternates lookup 0 subtable" d.sc
AlternateSubs2: "'aalt' Access All Alternates in Latin lookup 0 subtable" d.sc
Substitution2: "'c2sc' Capitals to Small Capitals in Latin lookup 13 subtable" d.sc
Position2: "'cpsp' Capital Spacing in Latin lookup 13 subtable" dx=7 dy=0 dh=14 dv=0
EndChar

StartChar: E
Encoding: 69 69 49
Width: 536
VWidth: 0
GlyphClass: 2
Flags: W
TeX: 739 0
HStem: 0 67<132 450> 340 67<195 502> 672 67<245 575>
AnchorPoint: "bot_acc" 225 -123 basechar 0
AnchorPoint: "dotbelow" 225 -123 basechar 0
AnchorPoint: "ogon_acc" 358 -123 basechar 0
AnchorPoint: "top_accu" 406 852 basechar 0
AnchorPoint: "dotabove" 406 852 basechar 0
LayerCount: 2
Fore
SplineSet
46 0 m 1
 183 739 l 1
 587 739 l 1
 575 672 l 1
 245 672 l 1
 195 407 l 1
 514 407 l 1
 502 340 l 1
 183 340 l 1
 132 67 l 1
 462 67 l 1
 450 0 l 1
 46 0 l 1
EndSplineSet
Validated: 1
AlternateSubs2: "'aalt' Access All Alternates lookup 0 subtable" e.sc
AlternateSubs2: "'aalt' Access All Alternates in Latin lookup 0 subtable" e.sc
Substitution2: "'c2sc' Capitals to Small Capitals in Latin lookup 13 subtable" e.sc
Position2: "'cpsp' Capital Spacing in Latin lookup 13 subtable" dx=7 dy=0 dh=14 dv=0
EndChar

StartChar: F
Encoding: 70 70 50
Width: 485
VWidth: 0
GlyphClass: 2
Flags: W
TeX: 739 0
HStem: 0 21G<46 123.728> 338 67<195 473> 672 67<245 546>
AnchorPoint: "bot_acc" 211 -123 basechar 0
AnchorPoint: "dotbelow" 211 -123 basechar 0
AnchorPoint: "ogon_acc" 28 -123 basechar 0
AnchorPoint: "top_accu" 392 852 basechar 0
AnchorPoint: "dotabove" 392 852 basechar 0
LayerCount: 2
Fore
SplineSet
46 0 m 1
 183 739 l 1
 558 739 l 1
 546 672 l 1
 245 672 l 1
 195 405 l 1
 485 405 l 1
 473 338 l 1
 183 338 l 1
 120 0 l 1
 46 0 l 1
EndSplineSet
Validated: 1
AlternateSubs2: "'aalt' Access All Alternates lookup 0 subtable" f.sc
AlternateSubs2: "'aalt' Access All Alternates in Latin lookup 0 subtable" f.sc
Substitution2: "'c2sc' Capitals to Small Capitals in Latin lookup 13 subtable" f.sc
Position2: "'cpsp' Capital Spacing in Latin lookup 13 subtable" dx=7 dy=0 dh=14 dv=0
EndChar

StartChar: G
Encoding: 71 71 51
Width: 872
VWidth: 0
GlyphClass: 2
Flags: W
TeX: 739 0
HStem: -13 68<311.216 542.432> 274 67<361 763> 684 68<420.092 653.451>
VStem: 77 77<204.199 429.832>
AnchorPoint: "bot_acc" 383 -123 basechar 0
AnchorPoint: "dotbelow" 383 -123 basechar 0
AnchorPoint: "ogon_acc" 383 -123 basechar 0
AnchorPoint: "top_accu" 564 852 basechar 0
AnchorPoint: "dotabove" 564 852 basechar 0
LayerCount: 2
Fore
SplineSet
77 300 m 0
 77 539 297 752 545 752 c 0
 706 752 829 669 857 542 c 1
 773 542 l 1
 742 629 653 684 542 684 c 0
 333 684 154 512 154 312 c 0
 154 155 271 55 425 55 c 0
 565 55 699 142 763 274 c 1
 349 274 l 1
 361 341 l 1
 864 341 l 1
 815 146 621 -13 416 -13 c 0
 217 -13 77 116 77 300 c 0
EndSplineSet
Validated: 1
AlternateSubs2: "'aalt' Access All Alternates lookup 0 subtable" g.sc
AlternateSubs2: "'aalt' Access All Alternates in Latin lookup 0 subtable" g.sc
Substitution2: "'c2sc' Capitals to Small Capitals in Latin lookup 13 subtable" g.sc
Position2: "'cpsp' Capital Spacing in Latin lookup 13 subtable" dx=7 dy=0 dh=14 dv=0
EndChar

StartChar: H
Encoding: 72 72 52
Width: 683
VWidth: 0
GlyphClass: 2
Flags: W
TeX: 739 0
HStem: 0 21G<46 123.689 503 580.708> 347 67<197 567> 719 20G<179.292 257 636.308 714>
AnchorPoint: "bot_acc" 289 -123 basechar 0
AnchorPoint: "dotbelow" 289 -123 basechar 0
AnchorPoint: "ogon_acc" 485 -123 basechar 0
AnchorPoint: "top_accu" 469 852 basechar 0
AnchorPoint: "dotabove" 469 852 basechar 0
LayerCount: 2
Fore
SplineSet
46 0 m 1
 183 739 l 1
 257 739 l 1
 197 414 l 1
 580 414 l 1
 640 739 l 1
 714 739 l 1
 577 0 l 1
 503 0 l 1
 567 347 l 1
 184 347 l 1
 120 0 l 1
 46 0 l 1
EndSplineSet
Validated: 1
AlternateSubs2: "'aalt' Access All Alternates lookup 0 subtable" h.sc
AlternateSubs2: "'aalt' Access All Alternates in Latin lookup 0 subtable" h.sc
Substitution2: "'c2sc' Capitals to Small Capitals in Latin lookup 13 subtable" h.sc
Position2: "'cpsp' Capital Spacing in Latin lookup 13 subtable" dx=7 dy=0 dh=14 dv=0
EndChar

StartChar: I
Encoding: 73 73 53
Width: 226
VWidth: 0
GlyphClass: 2
Flags: W
TeX: 739 0
HStem: 0 21G<46 123.708> 719 20G<179.292 257>
VStem: 46 211
AnchorPoint: "bot_acc" 60 -123 basechar 0
AnchorPoint: "dotbelow" 60 -123 basechar 0
AnchorPoint: "ogon_acc" 28 -123 basechar 0
AnchorPoint: "top_accu" 241 852 basechar 0
AnchorPoint: "dotabove" 241 852 basechar 0
LayerCount: 2
Fore
SplineSet
46 0 m 1
 183 739 l 1
 257 739 l 1
 120 0 l 1
 46 0 l 1
EndSplineSet
Validated: 1
AlternateSubs2: "'aalt' Access All Alternates lookup 0 subtable" i.sc
AlternateSubs2: "'aalt' Access All Alternates in Latin lookup 0 subtable" i.sc
Substitution2: "'c2sc' Capitals to Small Capitals in Latin lookup 13 subtable" i.sc
Position2: "'cpsp' Capital Spacing in Latin lookup 13 subtable" dx=7 dy=0 dh=14 dv=0
EndChar

StartChar: J
Encoding: 74 74 54
Width: 482
VWidth: 0
GlyphClass: 2
Flags: W
TeX: 739 -14
HStem: -14 68<120.686 264.362> 719 20G<435.26 513>
VStem: 13 73<146.513 175>
AnchorPoint: "bot_acc" 316 -123 basechar 0
AnchorPoint: "dotbelow" 316 -123 basechar 0
AnchorPoint: "ogon_acc" 125 -123 basechar 0
AnchorPoint: "top_accu" 497 852 basechar 0
AnchorPoint: "dotabove" 497 852 basechar 0
AnchorPoint: "ccmped" 627 676 basechar 0
LayerCount: 2
Fore
SplineSet
11 146 m 0
 11 157 11 164 13 175 c 1
 86 175 l 1
 94 94 115 54 188 54 c 0
 270 54 320 109 344 231 c 2
 439 739 l 1
 513 739 l 1
 418 231 l 2
 388 70 305 -14 177 -14 c 0
 78 -14 11 39 11 146 c 0
EndSplineSet
Validated: 1
AlternateSubs2: "'aalt' Access All Alternates lookup 0 subtable" j.sc
AlternateSubs2: "'aalt' Access All Alternates in Latin lookup 0 subtable" j.sc
Substitution2: "'c2sc' Capitals to Small Capitals in Latin lookup 13 subtable" j.sc
Position2: "'cpsp' Capital Spacing in Latin lookup 13 subtable" dx=7 dy=0 dh=14 dv=0
EndChar

StartChar: K
Encoding: 75 75 55
Width: 591
VWidth: 0
GlyphClass: 2
Flags: W
TeX: 739 0
HStem: 0 21G<46 123.663 450.312 555> 719 20G<179.292 257 579.188 692>
AnchorPoint: "bot_acc" 268 -123 basechar 0
AnchorPoint: "dotbelow" 268 -123 basechar 0
AnchorPoint: "ogon_acc" 463 -123 basechar 0
AnchorPoint: "top_accu" 449 852 basechar 0
AnchorPoint: "dotabove" 449 852 basechar 0
LayerCount: 2
Fore
SplineSet
46 0 m 1
 183 739 l 1
 257 739 l 1
 178 314 l 1
 599 739 l 1
 692 739 l 1
 333 379 l 1
 555 0 l 1
 462 0 l 1
 275 320 l 1
 157 202 l 1
 120 0 l 1
 46 0 l 1
EndSplineSet
Validated: 1
AlternateSubs2: "'aalt' Access All Alternates lookup 0 subtable" k.sc
AlternateSubs2: "'aalt' Access All Alternates in Latin lookup 0 subtable" k.sc
Substitution2: "'c2sc' Capitals to Small Capitals in Latin lookup 13 subtable" k.sc
Position2: "'cpsp' Capital Spacing in Latin lookup 13 subtable" dx=7 dy=0 dh=14 dv=0
EndChar

StartChar: L
Encoding: 76 76 56
Width: 462
VWidth: 0
GlyphClass: 2
Flags: W
TeX: 739 0
HStem: 0 67<132 426> 719 20G<179.292 257>
AnchorPoint: "bot_acc" 213 -123 basechar 0
AnchorPoint: "dotbelow" 213 -123 basechar 0
AnchorPoint: "ogon_acc" 334 -123 basechar 0
AnchorPoint: "top_accu" 241 852 basechar 0
AnchorPoint: "dotabove" 241 852 basechar 0
AnchorPoint: "ccmped" 384 676 basechar 0
LayerCount: 2
Fore
SplineSet
46 0 m 1
 183 739 l 1
 257 739 l 1
 132 67 l 1
 438 67 l 1
 426 0 l 1
 46 0 l 1
EndSplineSet
Validated: 1
AlternateSubs2: "'aalt' Access All Alternates lookup 0 subtable" l.sc
AlternateSubs2: "'aalt' Access All Alternates in Latin lookup 0 subtable" l.sc
Substitution2: "'c2sc' Capitals to Small Capitals in Latin lookup 13 subtable" l.sc
Position2: "'cpsp' Capital Spacing in Latin lookup 13 subtable" dx=7 dy=0 dh=14 dv=0
EndChar

StartChar: M
Encoding: 77 77 57
Width: 919
VWidth: 0
GlyphClass: 2
Flags: W
TeX: 739 0
HStem: 0 21G<46 123.708 392.289 473.158 739 816.708> 719 20G<179.292 302.833 822.758 950>
AnchorPoint: "bot_acc" 407 -123 basechar 0
AnchorPoint: "dotbelow" 407 -123 basechar 0
AnchorPoint: "ogon_acc" 721 -123 basechar 0
AnchorPoint: "top_accu" 587 852 basechar 0
AnchorPoint: "dotabove" 587 852 basechar 0
LayerCount: 2
Fore
SplineSet
46 0 m 1
 183 739 l 1
 298 739 l 1
 450 110 l 1
 835 739 l 1
 950 739 l 1
 813 0 l 1
 739 0 l 1
 861 658 l 1
 461 0 l 1
 397 0 l 1
 242 658 l 1
 120 0 l 1
 46 0 l 1
EndSplineSet
Validated: 1
AlternateSubs2: "'aalt' Access All Alternates lookup 0 subtable" m.sc
AlternateSubs2: "'aalt' Access All Alternates in Latin lookup 0 subtable" m.sc
Substitution2: "'c2sc' Capitals to Small Capitals in Latin lookup 13 subtable" m.sc
Position2: "'cpsp' Capital Spacing in Latin lookup 13 subtable" dx=7 dy=0 dh=14 dv=0
EndChar

StartChar: N
Encoding: 78 78 58
Width: 740
VWidth: 0
GlyphClass: 2
Flags: W
TeX: 739 0
HStem: 0 21G<46 123.692 550.154 637.708> 719 20G<179.292 292.788 693.281 771>
AnchorPoint: "bot_acc" 317 -123 basechar 0
AnchorPoint: "dotbelow" 317 -123 basechar 0
AnchorPoint: "ogon_acc" 542 -123 basechar 0
AnchorPoint: "top_accu" 498 852 basechar 0
AnchorPoint: "dotabove" 498 852 basechar 0
LayerCount: 2
Fore
SplineSet
46 0 m 1
 183 739 l 1
 283 739 l 1
 583 126 l 1
 697 739 l 1
 771 739 l 1
 634 0 l 1
 560 0 l 1
 240 650 l 1
 120 0 l 1
 46 0 l 1
EndSplineSet
Validated: 1
AlternateSubs2: "'aalt' Access All Alternates lookup 0 subtable" n.sc
AlternateSubs2: "'aalt' Access All Alternates in Latin lookup 0 subtable" n.sc
Substitution2: "'c2sc' Capitals to Small Capitals in Latin lookup 13 subtable" n.sc
Position2: "'cpsp' Capital Spacing in Latin lookup 13 subtable" dx=7 dy=0 dh=14 dv=0
EndChar

StartChar: O
Encoding: 79 79 59
Width: 869
VWidth: 0
GlyphClass: 2
Flags: W
TeX: 739 0
HStem: -13 68<309.265 524.639> 684 68<414.604 635.041>
VStem: 76 77<213.275 423.9> 793 77<317.977 526.815>
AnchorPoint: "bot_acc" 386 -123 basechar 0
AnchorPoint: "dotbelow" 386 -123 basechar 0
AnchorPoint: "ogon_acc" 386 -123 basechar 0
AnchorPoint: "top_accu" 567 852 basechar 0
AnchorPoint: "dotabove" 567 852 basechar 0
LayerCount: 2
Fore
SplineSet
76 302 m 0
 76 536 303 752 548 752 c 0
 721 752 870 622 870 436 c 0
 870 203 643 -13 398 -13 c 0
 219 -13 76 120 76 302 c 0
153 316 m 0
 153 170 266 55 410 55 c 0
 608 55 793 232 793 422 c 0
 793 574 683 684 530 684 c 0
 339 684 153 503 153 316 c 0
EndSplineSet
Validated: 1
AlternateSubs2: "'aalt' Access All Alternates lookup 0 subtable" o.sc
AlternateSubs2: "'aalt' Access All Alternates in Latin lookup 0 subtable" o.sc
Substitution2: "'c2sc' Capitals to Small Capitals in Latin lookup 13 subtable" o.sc
Position2: "'cpsp' Capital Spacing in Latin lookup 13 subtable" dx=7 dy=0 dh=14 dv=0
EndChar

StartChar: P
Encoding: 80 80 60
Width: 592
VWidth: 0
GlyphClass: 2
Flags: W
TeX: 739 0
HStem: 0 21G<46 123.679> 299 67<188 462.875> 672 67<245 505.802>
VStem: 558 77<464.333 627.257>
AnchorPoint: "bot_acc" 267 -123 basechar 0
AnchorPoint: "dotbelow" 267 -123 basechar 0
AnchorPoint: "ogon_acc" 28 -123 basechar 0
AnchorPoint: "top_accu" 448 852 basechar 0
AnchorPoint: "dotabove" 448 852 basechar 0
LayerCount: 2
Fore
SplineSet
46 0 m 1
 183 739 l 1
 388 739 l 2
 562 739 635 690 635 572 c 0
 635 496 606 420 557 371 c 0
 505 319 438 299 317 299 c 2
 175 299 l 1
 120 0 l 1
 46 0 l 1
188 366 m 1
 325 366 l 2
 421 366 471 381 507 419 c 0
 538 452 558 507 558 558 c 0
 558 599 541 632 511 650 c 0
 485 666 437 672 350 672 c 2
 245 672 l 1
 188 366 l 1
EndSplineSet
Validated: 1
AlternateSubs2: "'aalt' Access All Alternates lookup 0 subtable" p.sc
AlternateSubs2: "'aalt' Access All Alternates in Latin lookup 0 subtable" p.sc
Substitution2: "'c2sc' Capitals to Small Capitals in Latin lookup 13 subtable" p.sc
Position2: "'cpsp' Capital Spacing in Latin lookup 13 subtable" dx=7 dy=0 dh=14 dv=0
EndChar

StartChar: Q
Encoding: 81 81 61
Width: 871
VWidth: 0
GlyphClass: 2
Flags: W
TeX: 739 -13
HStem: -13 68<315.864 542.943 725.188 794> 237 68<172.126 430.476> 684 68<417.413 654.915>
VStem: 75 77<282.356 411.149> 806 77<314.591 536.62>
AnchorPoint: "bot_acc" 387 -123 basechar 0
AnchorPoint: "dotbelow" 387 -123 basechar 0
AnchorPoint: "ogon_acc" 387 -123 basechar 0
AnchorPoint: "top_accu" 568 852 basechar 0
AnchorPoint: "dotabove" 568 852 basechar 0
LayerCount: 2
Fore
SplineSet
75 299 m 0
 75 546 308 752 551 752 c 0
 749 752 883 629 883 447 c 0
 883 310 814 173 703 93 c 1
 733 67 761 55 791 55 c 0
 795 55 800 55 807 56 c 1
 794 -13 l 1
 722 -12 690 2 644 51 c 1
 580 11 493 -13 411 -13 c 0
 218 -13 75 120 75 299 c 0
151 279 m 1
 215 298 262 305 320 305 c 0
 460 305 541 260 659 142 c 1
 765 236 806 321 806 427 c 0
 806 581 699 684 540 684 c 0
 332 684 152 518 152 285 c 1
 151 279 l 1
171 216 m 1
 191 143 293 55 421 55 c 0
 485 55 532 67 593 100 c 1
 505 197 418 237 294 237 c 0
 245 237 210 231 171 216 c 1
EndSplineSet
Validated: 1
AlternateSubs2: "'aalt' Access All Alternates lookup 0 subtable" q.sc
AlternateSubs2: "'aalt' Access All Alternates in Latin lookup 0 subtable" q.sc
Substitution2: "'c2sc' Capitals to Small Capitals in Latin lookup 13 subtable" q.sc
Position2: "'cpsp' Capital Spacing in Latin lookup 13 subtable" dx=7 dy=0 dh=14 dv=0
EndChar

StartChar: R
Encoding: 82 82 62
Width: 607
VWidth: 0
GlyphClass: 2
Flags: W
TeX: 739 0
HStem: 0 21G<46 123.72 432.836 536> 672 67<245 495.344>
VStem: 566 77<448.14 614.165>
AnchorPoint: "bot_acc" 259 -123 basechar 0
AnchorPoint: "dotbelow" 259 -123 basechar 0
AnchorPoint: "ogon_acc" 444 -123 basechar 0
AnchorPoint: "top_accu" 440 852 basechar 0
AnchorPoint: "dotabove" 440 852 basechar 0
LayerCount: 2
Fore
SplineSet
46 0 m 1
 183 739 l 1
 366 739 l 2
 570 739 643 680 643 553 c 0
 643 401 536 289 380 276 c 1
 536 0 l 1
 444 0 l 1
 257 335 l 1
 366 335 413 341 457 359 c 0
 521 386 566 461 566 541 c 0
 566 635 505 672 349 672 c 2
 245 672 l 1
 120 0 l 1
 46 0 l 1
EndSplineSet
Validated: 1
AlternateSubs2: "'aalt' Access All Alternates lookup 0 subtable" r.sc
AlternateSubs2: "'aalt' Access All Alternates in Latin lookup 0 subtable" r.sc
Substitution2: "'c2sc' Capitals to Small Capitals in Latin lookup 13 subtable" r.sc
Position2: "'cpsp' Capital Spacing in Latin lookup 13 subtable" dx=7 dy=0 dh=14 dv=0
EndChar

StartChar: S
Encoding: 83 83 63
Width: 498
VWidth: 0
GlyphClass: 2
Flags: W
TeX: 739 0
HStem: -13 68<154.341 316.467> 552 21G<454 532> 684 68<270.927 416.57>
VStem: 26 81<105.722 207> 115 77<470.437 605.43> 411 77<148.493 295.895> 454 80<552 644.339>
AnchorPoint: "bot_acc" 199 -123 basechar 0
AnchorPoint: "dotbelow" 199 -123 basechar 0
AnchorPoint: "ogon_acc" 167 -123 basechar 0
AnchorPoint: "top_accu" 380 852 basechar 0
AnchorPoint: "dotabove" 380 852 basechar 0
LayerCount: 2
Fore
SplineSet
26 165 m 0xfc
 26 177 27 191 28 207 c 1
 107 207 l 1
 107 99 150 55 234 55 c 0
 330 55 411 136 411 232 c 0xfc
 411 293 378 323 272 356 c 0
 134 399 115 444 115 520 c 0
 115 636 223 752 361 752 c 0
 465 752 534 688 534 590 c 0
 534 580 533 570 531 552 c 1
 454 552 l 1xfa
 454 656 407 684 348 684 c 0
 258 684 192 605 192 531 c 0
 192 511 202 481 214 469 c 0
 228 454 243 447 315 423 c 0
 399 395 434 375 456 347 c 0
 477 320 488 286 488 246 c 0
 488 111 362 -13 219 -13 c 0
 105 -13 26 60 26 165 c 0xfc
EndSplineSet
Validated: 1
AlternateSubs2: "'aalt' Access All Alternates lookup 0 subtable" s.sc
AlternateSubs2: "'aalt' Access All Alternates in Latin lookup 0 subtable" s.sc
Substitution2: "'c2sc' Capitals to Small Capitals in Latin lookup 13 subtable" s.sc
Position2: "'cpsp' Capital Spacing in Latin lookup 13 subtable" dx=7 dy=0 dh=14 dv=0
EndChar

StartChar: T
Encoding: 84 84 64
Width: 426
VWidth: 0
GlyphClass: 2
Flags: W
TeX: 739 0
HStem: 0 21G<146 223.72> 672 67<114 271 345 514>
AnchorPoint: "bot_acc" 161 -123 basechar 0
AnchorPoint: "dotbelow" 161 -123 basechar 0
AnchorPoint: "ogon_acc" 128 -123 basechar 0
AnchorPoint: "top_accu" 341 852 basechar 0
AnchorPoint: "dotabove" 341 852 basechar 0
LayerCount: 2
Fore
SplineSet
102 672 m 1
 114 739 l 1
 526 739 l 1
 514 672 l 1
 345 672 l 1
 220 0 l 1
 146 0 l 1
 271 672 l 1
 102 672 l 1
EndSplineSet
Validated: 1
AlternateSubs2: "'aalt' Access All Alternates lookup 0 subtable" t.sc
AlternateSubs2: "'aalt' Access All Alternates in Latin lookup 0 subtable" t.sc
Substitution2: "'c2sc' Capitals to Small Capitals in Latin lookup 13 subtable" t.sc
Position2: "'cpsp' Capital Spacing in Latin lookup 13 subtable" dx=7 dy=0 dh=14 dv=0
EndChar

StartChar: U
Encoding: 85 85 65
Width: 655
VWidth: 0
GlyphClass: 2
Flags: W
TeX: 739 0
HStem: -13 68<226.141 401.867> 719 20G<181.312 259 608.312 686>
VStem: 89 76<114.424 335.625> 185 74<701.035 739>
AnchorPoint: "bot_acc" 276 -123 basechar 0
AnchorPoint: "dotbelow" 276 -123 basechar 0
AnchorPoint: "ogon_acc" 276 -123 basechar 0
AnchorPoint: "top_accu" 456 852 basechar 0
AnchorPoint: "dotabove" 456 852 basechar 0
LayerCount: 2
Fore
SplineSet
89 173 m 0
 89 203 93 239 100 278 c 2
 185 739 l 1
 259 739 l 1
 174 278 l 2
 168 246 165 215 165 188 c 0
 165 109 223 55 309 55 c 0
 417 55 498 123 527 278 c 2
 612 739 l 1
 686 739 l 1
 601 278 l 2
 564 79 447 -13 296 -13 c 0
 174 -13 89 63 89 173 c 0
EndSplineSet
Validated: 1
AlternateSubs2: "'aalt' Access All Alternates lookup 0 subtable" u.sc
AlternateSubs2: "'aalt' Access All Alternates in Latin lookup 0 subtable" u.sc
Substitution2: "'c2sc' Capitals to Small Capitals in Latin lookup 13 subtable" u.sc
Position2: "'cpsp' Capital Spacing in Latin lookup 13 subtable" dx=7 dy=0 dh=14 dv=0
EndChar

StartChar: V
Encoding: 86 86 66
Width: 702
VWidth: 0
GlyphClass: 2
Flags: W
TeX: 739 0
HStem: 0 21G<279.48 367.989> 719 20G<117 202.328 707.223 799>
AnchorPoint: "bot_acc" 298 -123 basechar 0
AnchorPoint: "dotbelow" 298 -123 basechar 0
AnchorPoint: "ogon_acc" 264 -123 basechar 0
AnchorPoint: "top_accu" 479 852 basechar 0
AnchorPoint: "dotabove" 479 852 basechar 0
LayerCount: 2
Fore
SplineSet
117 739 m 1
 198 739 l 1
 338 92 l 1
 719 739 l 1
 799 739 l 1
 356 0 l 1
 284 0 l 1
 117 739 l 1
EndSplineSet
Validated: 1
AlternateSubs2: "'aalt' Access All Alternates lookup 0 subtable" v.sc
AlternateSubs2: "'aalt' Access All Alternates in Latin lookup 0 subtable" v.sc
Substitution2: "'c2sc' Capitals to Small Capitals in Latin lookup 13 subtable" v.sc
Position2: "'cpsp' Capital Spacing in Latin lookup 13 subtable" dx=7 dy=0 dh=14 dv=0
EndChar

StartChar: W
Encoding: 87 87 67
Width: 960
VWidth: 0
GlyphClass: 2
Flags: W
TeX: 739 0
HStem: 0 21G<188.997 296.043 611.284 717.445> 719 20G<117 194.96 542.793 623.804 971.638 1057>
AnchorPoint: "bot_acc" 427 -123 basechar 0
AnchorPoint: "dotbelow" 427 -123 basechar 0
AnchorPoint: "ogon_acc" 616 -123 basechar 0
AnchorPoint: "top_accu" 608 852 basechar 0
AnchorPoint: "dotabove" 608 852 basechar 0
LayerCount: 2
Fore
SplineSet
117 739 m 1
 193 739 l 1
 256 96 l 1
 552 739 l 1
 622 739 l 1
 680 96 l 1
 981 739 l 1
 1057 739 l 1
 708 0 l 1
 613 0 l 1
 561 606 l 1
 287 0 l 1
 191 0 l 1
 117 739 l 1
EndSplineSet
Validated: 1
AlternateSubs2: "'aalt' Access All Alternates lookup 0 subtable" w.sc
AlternateSubs2: "'aalt' Access All Alternates in Latin lookup 0 subtable" w.sc
Substitution2: "'c2sc' Capitals to Small Capitals in Latin lookup 13 subtable" w.sc
Position2: "'cpsp' Capital Spacing in Latin lookup 13 subtable" dx=7 dy=0 dh=14 dv=0
EndChar

StartChar: X
Encoding: 88 88 68
Width: 609
VWidth: 0
GlyphClass: 2
Flags: W
TeX: 739 0
HStem: 0 21G<-22 82.0253 473.57 571> 719 20G<129 225.527 590.108 693>
AnchorPoint: "bot_acc" 252 -123 basechar 0
AnchorPoint: "dotbelow" 252 -123 basechar 0
AnchorPoint: "ogon_acc" 479 -123 basechar 0
AnchorPoint: "top_accu" 432 852 basechar 0
AnchorPoint: "dotabove" 432 852 basechar 0
LayerCount: 2
Fore
SplineSet
-22 0 m 1
 299 378 l 1
 129 739 l 1
 216 739 l 1
 357 443 l 1
 607 739 l 1
 693 739 l 1
 389 378 l 1
 571 0 l 1
 483 0 l 1
 334 316 l 1
 65 0 l 1
 -22 0 l 1
EndSplineSet
Validated: 1
AlternateSubs2: "'aalt' Access All Alternates lookup 0 subtable" x.sc
AlternateSubs2: "'aalt' Access All Alternates in Latin lookup 0 subtable" x.sc
Substitution2: "'c2sc' Capitals to Small Capitals in Latin lookup 13 subtable" x.sc
Position2: "'cpsp' Capital Spacing in Latin lookup 13 subtable" dx=7 dy=0 dh=14 dv=0
EndChar

StartChar: Y
Encoding: 89 89 69
Width: 592
VWidth: 0
GlyphClass: 2
Flags: W
TeX: 739 0
HStem: 0 21G<228 305.725> 719 20G<109 197.425 601.894 697>
AnchorPoint: "bot_acc" 242 -123 basechar 0
AnchorPoint: "dotbelow" 242 -123 basechar 0
AnchorPoint: "ogon_acc" 210 -123 basechar 0
AnchorPoint: "top_accu" 423 852 basechar 0
AnchorPoint: "dotabove" 423 852 basechar 0
LayerCount: 2
Fore
SplineSet
109 739 m 1
 191 739 l 1
 324 325 l 1
 616 739 l 1
 697 739 l 1
 348 247 l 1
 302 0 l 1
 228 0 l 1
 274 247 l 1
 109 739 l 1
EndSplineSet
Validated: 1
AlternateSubs2: "'aalt' Access All Alternates lookup 0 subtable" y.sc
AlternateSubs2: "'aalt' Access All Alternates in Latin lookup 0 subtable" y.sc
Substitution2: "'c2sc' Capitals to Small Capitals in Latin lookup 13 subtable" y.sc
Position2: "'cpsp' Capital Spacing in Latin lookup 13 subtable" dx=7 dy=0 dh=14 dv=0
EndChar

StartChar: Z
Encoding: 90 90 70
Width: 480
VWidth: 0
GlyphClass: 2
Flags: W
TeX: 739 0
HStem: 0 67<83 444> 672 67<135 475>
AnchorPoint: "bot_acc" 193 -123 basechar 0
AnchorPoint: "dotbelow" 193 -123 basechar 0
AnchorPoint: "ogon_acc" 352 -123 basechar 0
AnchorPoint: "top_accu" 373 852 basechar 0
AnchorPoint: "dotabove" 373 852 basechar 0
LayerCount: 2
Fore
SplineSet
-13 0 m 1
 -1 67 l 1
 475 672 l 1
 123 672 l 1
 135 739 l 1
 570 739 l 1
 558 672 l 1
 83 67 l 1
 456 67 l 1
 444 0 l 1
 -13 0 l 1
EndSplineSet
Validated: 1
AlternateSubs2: "'aalt' Access All Alternates lookup 0 subtable" z.sc
AlternateSubs2: "'aalt' Access All Alternates in Latin lookup 0 subtable" z.sc
Substitution2: "'c2sc' Capitals to Small Capitals in Latin lookup 13 subtable" z.sc
Position2: "'cpsp' Capital Spacing in Latin lookup 13 subtable" dx=7 dy=0 dh=14 dv=0
EndChar

StartChar: asciicircum
Encoding: 94 94 71
Width: 606
VWidth: 0
Flags: W
TeX: 739 0
HStem: 719 20G<355.585 456.973>
LayerCount: 2
Fore
SplineSet
21 180 m 1
 368 739 l 1
 452 739 l 1
 591 180 l 1
 510 180 l 1
 396 657 l 1
 104 180 l 1
 21 180 l 1
EndSplineSet
Validated: 1
EndChar

StartChar: underscore
Encoding: 95 95 72
Width: 500
VWidth: 0
Flags: W
TeX: 0 -125
HStem: -125 58<-42 447>
LayerCount: 2
Fore
SplineSet
-53 -125 m 1
 -42 -67 l 1
 458 -67 l 1
 447 -125 l 1
 -53 -125 l 1
EndSplineSet
Validated: 1
EndChar

StartChar: a
Encoding: 97 97 73
Width: 683
VWidth: 0
GlyphClass: 2
Flags: W
TeX: 547 0
HStem: -13 68<226.53 413.235> 0 21G<516 593.693> 492 68<300.211 484.27> 527 20G<613.289 691>
VStem: 58 77<144.916 332.406>
AnchorPoint: "bot_acc" 277 -123 basechar 0
AnchorPoint: "dotbelow" 277 -123 basechar 0
AnchorPoint: "ogon_acc" 498 -123 basechar 0
AnchorPoint: "top_accl" 424 670 basechar 0
AnchorPoint: "dotabove" 424 670 basechar 0
LayerCount: 2
Fore
SplineSet
58 216 m 0x88
 58 401 218 560 404 560 c 0xa8
 492 560 557 532 599 450 c 1
 617 547 l 1
 691 547 l 1
 590 0 l 1
 516 0 l 1x58
 534 96 l 1
 453 14 396 -13 303 -13 c 0
 156 -13 58 79 58 216 c 0x88
135 235 m 0
 135 128 209 55 318 55 c 0
 451 55 571 181 571 319 c 0
 571 419 497 492 397 492 c 0
 258 492 135 371 135 235 c 0
EndSplineSet
Validated: 1
AlternateSubs2: "'aalt' Access All Alternates lookup 0 subtable" a.sc
AlternateSubs2: "'aalt' Access All Alternates in Latin lookup 0 subtable" a.sc
Substitution2: "'smcp' Lowercase to Small Capitals in Latin lookup 2 subtable" a.sc
EndChar

StartChar: b
Encoding: 98 98 74
Width: 682
VWidth: 0
GlyphClass: 2
Flags: W
TeX: 739 0
HStem: -13 68<240.333 427.724> 0 21G<33 110.617> 492 68<312.783 501.346> 719 20G<166.292 244>
VStem: 589 77<219.775 407.294>
AnchorPoint: "bot_acc" 299 -123 basechar 0
AnchorPoint: "dotbelow" 299 -123 basechar 0
AnchorPoint: "ogon_acc" 299 -123 basechar 0
AnchorPoint: "top_accu" 230 862 basechar 0
AnchorPoint: "dotabove" 445 670 basechar 0
LayerCount: 2
Fore
SplineSet
33 0 m 1x78
 170 739 l 1
 244 739 l 1
 191 453 l 1
 248 521 334 560 425 560 c 0
 565 560 666 464 666 330 c 0
 666 145 505 -13 318 -13 c 0xb8
 229 -13 159 26 124 94 c 1
 107 0 l 1
 33 0 l 1x78
148 237 m 0
 148 133 223 55 329 55 c 0
 467 55 589 178 589 318 c 0
 589 422 518 492 411 492 c 0
 272 492 148 366 148 237 c 0
EndSplineSet
Validated: 1
AlternateSubs2: "'aalt' Access All Alternates lookup 0 subtable" b.sc
AlternateSubs2: "'aalt' Access All Alternates in Latin lookup 0 subtable" b.sc
Substitution2: "'smcp' Lowercase to Small Capitals in Latin lookup 2 subtable" b.sc
EndChar

StartChar: c
Encoding: 99 99 75
Width: 647
VWidth: 0
GlyphClass: 2
Flags: W
TeX: 547 0
HStem: -13 68<229.325 421.241> 492 68<298.172 486.049>
VStem: 58 77<146.793 329.158>
AnchorPoint: "bot_acc" 281 -123 basechar 0
AnchorPoint: "dotbelow" 281 -123 basechar 0
AnchorPoint: "ogon_acc" 281 -123 basechar 0
AnchorPoint: "top_accl" 428 670 basechar 0
AnchorPoint: "dotabove" 428 670 basechar 0
LayerCount: 2
Fore
SplineSet
58 222 m 0
 58 400 224 560 408 560 c 0
 533 560 625 492 649 381 c 1
 566 381 l 1
 539 451 477 492 396 492 c 0
 258 492 135 370 135 233 c 0
 135 129 211 55 318 55 c 0
 399 55 441 76 526 161 c 1
 609 161 l 1
 512 29 419 -13 309 -13 c 0
 160 -13 58 81 58 222 c 0
EndSplineSet
Validated: 1
AlternateSubs2: "'aalt' Access All Alternates lookup 0 subtable" c.sc
AlternateSubs2: "'aalt' Access All Alternates in Latin lookup 0 subtable" c.sc
Substitution2: "'smcp' Lowercase to Small Capitals in Latin lookup 2 subtable" c.sc
EndChar

StartChar: d
Encoding: 100 100 76
Width: 685
VWidth: 0
GlyphClass: 2
Flags: W
TeX: 739 0
HStem: -13 68<228.727 415.374> 0 21G<518 595.708> 492 68<296.748 481.636> 719 20G<651.272 729>
VStem: 58 77<146.275 329.591>
AnchorPoint: "bot_acc" 279 -123 basechar 0
AnchorPoint: "dotbelow" 279 -123 basechar 0
AnchorPoint: "ogon_acc" 500 -123 basechar 0
AnchorPoint: "top_accu" 715 862 basechar 0
AnchorPoint: "dotabove" 428 670 basechar 0
AnchorPoint: "ccmped" 856 676 basechar 0
LayerCount: 2
Fore
SplineSet
58 217 m 0xb8
 58 400 221 560 408 560 c 0
 494 560 557 528 603 460 c 1
 655 739 l 1
 729 739 l 1
 592 0 l 1
 518 0 l 1x78
 536 99 l 1
 465 19 399 -13 305 -13 c 0
 162 -13 58 84 58 217 c 0xb8
135 236 m 0
 135 128 210 55 320 55 c 0xb8
 452 55 576 182 576 318 c 0
 576 418 497 492 392 492 c 0
 258 492 135 370 135 236 c 0
EndSplineSet
Validated: 1
AlternateSubs2: "'aalt' Access All Alternates lookup 0 subtable" d.sc
AlternateSubs2: "'aalt' Access All Alternates in Latin lookup 0 subtable" d.sc
Substitution2: "'smcp' Lowercase to Small Capitals in Latin lookup 2 subtable" d.sc
EndChar

StartChar: e
Encoding: 101 101 77
Width: 650
VWidth: 0
GlyphClass: 2
Flags: W
TeX: 547 0
HStem: -13 68<220.51 402.495> 249 67<146 565> 492 68<291.348 476.795>
VStem: 58 71<142.251 246.803> 565 70<316.696 400.879>
AnchorPoint: "bot_acc" 271 -123 basechar 0
AnchorPoint: "dotbelow" 271 -123 basechar 0
AnchorPoint: "ogon_acc" 271 -123 basechar 0
AnchorPoint: "top_accl" 418 670 basechar 0
AnchorPoint: "dotabove" 418 670 basechar 0
LayerCount: 2
Fore
SplineSet
58 220 m 0
 58 400 218 560 398 560 c 0
 537 560 635 466 635 332 c 0
 635 308 633 289 626 249 c 1
 131 249 l 1
 130 237 129 228 129 221 c 0
 129 128 208 55 308 55 c 0
 390 55 479 107 522 180 c 1
 599 180 l 1
 535 62 416 -13 295 -13 c 0
 159 -13 58 86 58 220 c 0
146 316 m 1
 565 316 l 1
 560 424 491 492 385 492 c 0
 281 492 182 419 146 316 c 1
EndSplineSet
Validated: 1
AlternateSubs2: "'aalt' Access All Alternates lookup 0 subtable" e.sc
AlternateSubs2: "'aalt' Access All Alternates in Latin lookup 0 subtable" e.sc
Substitution2: "'smcp' Lowercase to Small Capitals in Latin lookup 2 subtable" e.sc
EndChar

StartChar: f
Encoding: 102 102 78
Width: 314
VWidth: 0
GlyphClass: 2
Flags: W
TeX: 739 0
HStem: 0 21G<71 148.708> 480 67<87 160 246 369> 672 67<304.902 405>
AnchorPoint: "bot_acc" 110 -123 basechar 0
AnchorPoint: "dotbelow" 110 -123 basechar 0
AnchorPoint: "ogon_acc" 53 -123 basechar 0
AnchorPoint: "top_accl" 293 862 basechar 0
AnchorPoint: "dotabove" 293 862 basechar 0
LayerCount: 2
Fore
SplineSet
71 0 m 1
 160 480 l 1
 75 480 l 1
 87 547 l 1
 172 547 l 1
 200 685 292 739 400 739 c 2
 417 739 l 1
 405 672 l 1
 390 672 l 2
 305 672 262 635 246 547 c 1
 381 547 l 1
 369 480 l 1
 234 480 l 1
 145 0 l 1
 71 0 l 1
EndSplineSet
Validated: 1
AlternateSubs2: "'aalt' Access All Alternates lookup 0 subtable" f.sc
AlternateSubs2: "'aalt' Access All Alternates in Latin lookup 0 subtable" f.sc
Substitution2: "'smcp' Lowercase to Small Capitals in Latin lookup 2 subtable" f.sc
EndChar

StartChar: g
Encoding: 103 103 79
Width: 673
VWidth: 0
GlyphClass: 2
Flags: W
TeX: 547 -215
HStem: -215 68<181.836 385.3> -13 68<220.548 401.799> 492 68<292.138 474.109> 527 20G<603.289 681>
VStem: 57 77<142.059 331.311>
AnchorPoint: "bot_acc" 230 -338 basechar 0
AnchorPoint: "dotbelow" 230 -338 basechar 0
AnchorPoint: "ogon_acc" 232 -325 basechar 0
AnchorPoint: "top_accl" 416 670 basechar 0
AnchorPoint: "dotabove" 416 670 basechar 0
AnchorPoint: "ccmped" 416 670 basechar 0
LayerCount: 2
Fore
SplineSet
30 -17 m 1xd8
 102 -17 l 1
 147 -122 187 -147 279 -147 c 0
 407 -147 492 -72 519 74 c 2
 526 111 l 1
 473 30 393 -13 295 -13 c 0
 156 -13 57 83 57 219 c 0
 57 399 219 560 396 560 c 0xe8
 481 560 532 540 589 450 c 1
 607 547 l 1
 681 547 l 1
 597 98 l 2
 575 -18 556 -65 507 -117 c 0
 448 -180 362 -215 265 -215 c 0
 138 -215 54 -161 30 -17 c 1xd8
134 236 m 0
 134 137 192 55 307 55 c 0
 439 55 562 178 562 325 c 0
 562 421 487 492 385 492 c 0
 260 492 134 377 134 236 c 0
EndSplineSet
Validated: 1
AlternateSubs2: "'aalt' Access All Alternates lookup 0 subtable" g.sc
AlternateSubs2: "'aalt' Access All Alternates in Latin lookup 0 subtable" g.sc
Substitution2: "'smcp' Lowercase to Small Capitals in Latin lookup 2 subtable" g.sc
EndChar

StartChar: h
Encoding: 104 104 80
Width: 610
VWidth: 0
GlyphClass: 2
Flags: W
TeX: 739 0
HStem: 0 21G<33 110.733 441 518.673> 492 68<280.353 443.865> 719 20G<166.292 244>
VStem: 502 77<229.688 435.96>
AnchorPoint: "bot_acc" 251 -123 basechar 0
AnchorPoint: "dotbelow" 251 -123 basechar 0
AnchorPoint: "ogon_acc" 423 -123 basechar 0
AnchorPoint: "top_accu" 230 862 basechar 0
AnchorPoint: "dotabove" 400 670 basechar 0
LayerCount: 2
Fore
SplineSet
33 0 m 1
 170 739 l 1
 244 739 l 1
 195 476 l 1
 244 530 309 560 380 560 c 0
 506 560 579 492 579 376 c 0
 579 351 578 344 569 294 c 2
 515 0 l 1
 441 0 l 1
 495 294 l 2
 498 313 502 349 502 366 c 0
 502 440 444 492 363 492 c 0
 264 492 187 427 163 300 c 2
 107 0 l 1
 33 0 l 1
EndSplineSet
Validated: 1
AlternateSubs2: "'aalt' Access All Alternates lookup 0 subtable" h.sc
AlternateSubs2: "'aalt' Access All Alternates in Latin lookup 0 subtable" h.sc
Substitution2: "'smcp' Lowercase to Small Capitals in Latin lookup 2 subtable" h.sc
EndChar

StartChar: dotlessj
Encoding: 274 567 81
Width: 203
VWidth: 0
GlyphClass: 2
Flags: W
TeX: 547 -192
HStem: -192 71<-98 -24.0146> 527 20G<134.306 212>
VStem: -111 323
AnchorPoint: "bot_acc" 15 -315 basechar 0
AnchorPoint: "dotbelow" 15 -315 basechar 0
AnchorPoint: "ogon_acc" -126 -302 basechar 0
AnchorPoint: "top_accl" 198 670 basechar 0
AnchorPoint: "dotabove" 198 670 basechar 0
LayerCount: 2
Fore
SplineSet
-111 -192 m 1
 -98 -121 l 1
 -13 -116 22 -76 44 38 c 2
 138 547 l 1
 212 547 l 1
 118 38 l 2
 95 -108 19 -185 -111 -192 c 1
EndSplineSet
Validated: 1
AlternateSubs2: "'aalt' Access All Alternates lookup 0 subtable" dotlessj.sc
AlternateSubs2: "'aalt' Access All Alternates in Latin lookup 0 subtable" dotlessj.sc
Substitution2: "'smcp' Lowercase to Small Capitals in Latin lookup 2 subtable" dotlessj.sc
EndChar

StartChar: j
Encoding: 106 106 82
Width: 203
VWidth: 0
GlyphClass: 2
Flags: W
TeX: 733 -192
HStem: -192 71<-98 -24.0146> 527 20G<134.306 212>
AnchorPoint: "bot_acc" 15 -315 basechar 0
AnchorPoint: "dotbelow" 15 -315 basechar 0
AnchorPoint: "ogon_acc" -126 -302 basechar 0
LayerCount: 2
Fore
SplineSet
-111 -192 m 1
 -98 -121 l 1
 -13 -116 22 -76 44 38 c 2
 138 547 l 1
 212 547 l 1
 118 38 l 2
 95 -108 19 -185 -111 -192 c 1
150 607 m 1
 173 733 l 1
 247 733 l 1
 224 607 l 1
 150 607 l 1
EndSplineSet
Validated: 1
AlternateSubs2: "'aalt' Access All Alternates lookup 0 subtable" dotlessj j.sc
AlternateSubs2: "'aalt' Access All Alternates in Latin lookup 0 subtable" dotlessj j.sc
Substitution2: "ccmp_sub_acc subtable" dotlessj
Substitution2: "'smcp' Lowercase to Small Capitals in Latin lookup 2 subtable" j.sc
EndChar

StartChar: k
Encoding: 107 107 83
Width: 502
VWidth: 0
GlyphClass: 2
Flags: W
TeX: 739 0
HStem: 0 21G<33 110.717 362.123 467> 527 20G<443.964 554> 719 20G<166.292 244>
AnchorPoint: "bot_acc" 227 -123 basechar 0
AnchorPoint: "dotbelow" 227 -123 basechar 0
AnchorPoint: "ogon_acc" 375 -123 basechar 0
AnchorPoint: "top_accu" 230 862 basechar 0
AnchorPoint: "dotabove" 389 670 basechar 0
LayerCount: 2
Fore
SplineSet
33 0 m 1
 170 739 l 1
 244 739 l 1
 147 215 l 1
 463 547 l 1
 554 547 l 1
 290 272 l 1
 467 0 l 1
 375 0 l 1
 234 219 l 1
 128 113 l 1
 107 0 l 1
 33 0 l 1
EndSplineSet
Validated: 1
AlternateSubs2: "'aalt' Access All Alternates lookup 0 subtable" k.sc
AlternateSubs2: "'aalt' Access All Alternates in Latin lookup 0 subtable" k.sc
Substitution2: "'smcp' Lowercase to Small Capitals in Latin lookup 2 subtable" k.sc
EndChar

StartChar: l
Encoding: 108 108 84
Width: 200
VWidth: 0
GlyphClass: 2
Flags: W
TeX: 739 0
HStem: 0 21G<33 110.708> 719 20G<166.292 244>
VStem: 33 211
AnchorPoint: "bot_acc" 47 -123 basechar 0
AnchorPoint: "dotbelow" 47 -123 basechar 0
AnchorPoint: "ogon_acc" 15 -123 basechar 0
AnchorPoint: "top_accu" 230 862 basechar 0
AnchorPoint: "dotabove" 230 862 basechar 0
AnchorPoint: "ccmped" 371 676 basechar 0
LayerCount: 2
Fore
SplineSet
33 0 m 1
 170 739 l 1
 244 739 l 1
 107 0 l 1
 33 0 l 1
EndSplineSet
Validated: 1
AlternateSubs2: "'aalt' Access All Alternates lookup 0 subtable" l.sc
AlternateSubs2: "'aalt' Access All Alternates in Latin lookup 0 subtable" l.sc
Substitution2: "'smcp' Lowercase to Small Capitals in Latin lookup 2 subtable" l.sc
EndChar

StartChar: m
Encoding: 109 109 85
Width: 938
VWidth: 0
GlyphClass: 2
Flags: W
TeX: 547 0
HStem: 0 21G<33 110.699 401 478.722 769 846.692> 492 68<263.683 421.043 628.821 792.109> 527 20G<130.307 208>
VStem: 834 77<253.258 448.931>
AnchorPoint: "bot_acc" 415 -123 basechar 0
AnchorPoint: "dotbelow" 415 -123 basechar 0
AnchorPoint: "ogon_acc" 751 -123 basechar 0
AnchorPoint: "top_accl" 562 670 basechar 0
AnchorPoint: "dotabove" 562 670 basechar 0
LayerCount: 2
Fore
SplineSet
33 0 m 1xd0
 134 547 l 1
 208 547 l 1xb0
 197 484 l 1
 262 549 299 560 363 560 c 0
 446 560 502 523 522 455 c 1
 587 530 646 560 731 560 c 0
 839 560 911 497 911 402 c 0
 911 380 908 354 903 325 c 2
 843 0 l 1
 769 0 l 1
 828 317 l 2
 831 335 834 363 834 379 c 0
 834 449 789 492 716 492 c 0
 628 492 557 439 534 317 c 2
 475 0 l 1
 401 0 l 1
 460 319 l 2
 465 345 466 356 466 372 c 0
 466 455 412 492 345 492 c 0
 254 492 186 426 166 319 c 2
 107 0 l 1
 33 0 l 1xd0
EndSplineSet
Validated: 1
AlternateSubs2: "'aalt' Access All Alternates lookup 0 subtable" m.sc
AlternateSubs2: "'aalt' Access All Alternates in Latin lookup 0 subtable" m.sc
Substitution2: "'smcp' Lowercase to Small Capitals in Latin lookup 2 subtable" m.sc
EndChar

StartChar: n
Encoding: 110 110 86
Width: 610
VWidth: 0
GlyphClass: 2
Flags: W
TeX: 547 0
HStem: 0 21G<33 110.721 441 518.693> 492 68<284.566 444.991> 527 20G<130.307 208>
VStem: 502 77<228.703 437.078>
AnchorPoint: "bot_acc" 251 -123 basechar 0
AnchorPoint: "dotbelow" 251 -123 basechar 0
AnchorPoint: "ogon_acc" 423 -123 basechar 0
AnchorPoint: "top_accl" 398 670 basechar 0
AnchorPoint: "dotabove" 398 670 basechar 0
LayerCount: 2
Fore
SplineSet
33 0 m 1xd0
 134 547 l 1
 208 547 l 1xb0
 195 476 l 1
 254 533 315 560 383 560 c 0
 503 560 579 489 579 379 c 0
 579 353 577 334 568 287 c 2
 515 0 l 1
 441 0 l 1
 494 287 l 2
 499 315 502 341 502 361 c 0
 502 441 448 492 363 492 c 0
 266 492 188 436 163 301 c 2
 107 0 l 1
 33 0 l 1xd0
EndSplineSet
Validated: 1
AlternateSubs2: "'aalt' Access All Alternates lookup 0 subtable" n.sc
AlternateSubs2: "'aalt' Access All Alternates in Latin lookup 0 subtable" n.sc
Substitution2: "'smcp' Lowercase to Small Capitals in Latin lookup 2 subtable" n.sc
EndChar

StartChar: o
Encoding: 111 111 87
Width: 655
VWidth: 0
GlyphClass: 2
Flags: W
TeX: 547 0
HStem: -13 68<220.424 408.224> 492 68<294.978 478.328>
VStem: 57 77<141.202 327.511> 562 77<216.551 409.635>
AnchorPoint: "bot_acc" 278 -123 basechar 0
AnchorPoint: "dotbelow" 278 -123 basechar 0
AnchorPoint: "ogon_acc" 278 -123 basechar 0
AnchorPoint: "top_accl" 425 670 basechar 0
AnchorPoint: "dotabove" 425 670 basechar 0
LayerCount: 2
Fore
SplineSet
57 215 m 0
 57 405 223 560 405 560 c 0
 544 560 639 468 639 332 c 0
 639 143 476 -13 303 -13 c 0
 158 -13 57 80 57 215 c 0
134 228 m 0
 134 125 206 55 313 55 c 0
 452 55 562 174 562 325 c 0
 562 422 490 492 392 492 c 0
 252 492 134 371 134 228 c 0
EndSplineSet
Validated: 1
AlternateSubs2: "'aalt' Access All Alternates lookup 0 subtable" o.sc
AlternateSubs2: "'aalt' Access All Alternates in Latin lookup 0 subtable" o.sc
Substitution2: "'smcp' Lowercase to Small Capitals in Latin lookup 2 subtable" o.sc
EndChar

StartChar: p
Encoding: 112 112 88
Width: 682
VWidth: 0
GlyphClass: 2
Flags: W
TeX: 547 -192
HStem: -192 21G<-3 74.7063> -13 68<237.881 419.994> 492 68<310.257 495.676> 527 20G<130.292 208>
VStem: 588 77<219.541 403.555>
AnchorPoint: "bot_acc" 263 -315 basechar 0
AnchorPoint: "dotbelow" 300 -123 basechar 0
AnchorPoint: "ogon_acc" 351 -123 basechar 0
AnchorPoint: "top_accl" 445 670 basechar 0
AnchorPoint: "dotabove" 445 670 basechar 0
LayerCount: 2
Fore
SplineSet
-3 -192 m 1xe8
 134 547 l 1
 208 547 l 1xd8
 191 453 l 1
 241 519 331 560 425 560 c 0
 569 560 665 465 665 325 c 0
 665 148 501 -13 320 -13 c 0
 227 -13 161 23 124 94 c 1
 71 -192 l 1
 -3 -192 l 1xe8
147 227 m 0
 147 129 223 55 325 55 c 0
 455 55 588 167 588 317 c 0
 588 419 513 492 409 492 c 0xe8
 284 492 147 383 147 227 c 0
EndSplineSet
Validated: 1
AlternateSubs2: "'aalt' Access All Alternates lookup 0 subtable" p.sc
AlternateSubs2: "'aalt' Access All Alternates in Latin lookup 0 subtable" p.sc
Substitution2: "'smcp' Lowercase to Small Capitals in Latin lookup 2 subtable" p.sc
EndChar

StartChar: q
Encoding: 113 113 89
Width: 682
VWidth: 0
GlyphClass: 2
Flags: W
TeX: 547 -192
HStem: -192 21G<479 556.708> -13 68<221.027 410.712> 492 68<294.095 482.339> 527 20G<612.383 690>
VStem: 57 77<144.952 326.838>
AnchorPoint: "bot_acc" 242 -315 basechar 0
AnchorPoint: "dotbelow" 275 -123 basechar 0
AnchorPoint: "ogon_acc" 461 -315 basechar 0
AnchorPoint: "top_accl" 424 670 basechar 0
AnchorPoint: "dotabove" 424 670 basechar 0
LayerCount: 2
Fore
SplineSet
57 217 m 0xd8
 57 400 218 560 402 560 c 0xe8
 497 560 565 523 599 453 c 1
 616 547 l 1
 690 547 l 1
 553 -192 l 1
 479 -192 l 1
 532 94 l 1
 473 25 389 -13 295 -13 c 0
 157 -13 57 83 57 217 c 0xd8
134 229 m 0
 134 128 208 55 310 55 c 0
 449 55 575 174 575 318 c 0
 575 418 498 492 393 492 c 0
 255 492 134 369 134 229 c 0
EndSplineSet
Validated: 1
AlternateSubs2: "'aalt' Access All Alternates lookup 0 subtable" q.sc
AlternateSubs2: "'aalt' Access All Alternates in Latin lookup 0 subtable" q.sc
Substitution2: "'smcp' Lowercase to Small Capitals in Latin lookup 2 subtable" q.sc
EndChar

StartChar: r
Encoding: 114 114 90
Width: 301
VWidth: 0
GlyphClass: 2
Flags: W
TeX: 547 0
HStem: 0 21G<33 110.699> 487 73<271.382 352> 527 20G<130.307 208>
AnchorPoint: "bot_acc" 47 -123 basechar 0
AnchorPoint: "dotbelow" 47 -123 basechar 0
AnchorPoint: "ogon_acc" 47 -123 basechar 0
AnchorPoint: "top_accl" 231 670 basechar 0
AnchorPoint: "dotabove" 231 670 basechar 0
LayerCount: 2
Fore
SplineSet
33 0 m 1xc0
 134 547 l 1
 208 547 l 1xa0
 194 469 l 1
 234 529 282 555 366 560 c 1
 352 487 l 1
 247 476 185 420 166 319 c 2
 107 0 l 1
 33 0 l 1xc0
EndSplineSet
Validated: 1
AlternateSubs2: "'aalt' Access All Alternates lookup 0 subtable" r.sc
AlternateSubs2: "'aalt' Access All Alternates in Latin lookup 0 subtable" r.sc
Substitution2: "'smcp' Lowercase to Small Capitals in Latin lookup 2 subtable" r.sc
EndChar

StartChar: s
Encoding: 115 115 91
Width: 388
VWidth: 0
GlyphClass: 2
Flags: W
TeX: 547 0
HStem: -13 68<110.895 236.12> 492 68<196.664 304.54>
VStem: 13 76<76.8719 161> 80 77<352.612 454.114> 285 77<104.112 218.754> 319 76<412 478.141>
AnchorPoint: "bot_acc" 141 -123 basechar 0
AnchorPoint: "dotbelow" 141 -123 basechar 0
AnchorPoint: "ogon_acc" 107 -123 basechar 0
AnchorPoint: "top_accl" 288 670 basechar 0
AnchorPoint: "dotabove" 288 670 basechar 0
LayerCount: 2
Fore
SplineSet
13 117 m 0xe8
 13 127 13 137 16 161 c 1
 89 161 l 1
 89 74 120 55 172 55 c 0
 233 55 285 107 285 167 c 0xe8
 285 209 271 223 197 255 c 0
 137 281 121 290 106 308 c 0
 91 325 80 355 80 380 c 0
 80 477 171 560 268 560 c 0
 341 560 395 510 395 442 c 0
 395 434 395 423 394 412 c 1
 319 412 l 1
 319 467 299 492 254 492 c 0
 204 492 157 447 157 400 c 0xd4
 157 374 171 354 195 341 c 0
 208 334 225 326 290 297 c 0
 341 274 362 240 362 189 c 0
 362 76 265 -13 159 -13 c 0
 69 -13 13 47 13 117 c 0xe8
EndSplineSet
Validated: 1
AlternateSubs2: "'aalt' Access All Alternates lookup 0 subtable" s.sc
AlternateSubs2: "'aalt' Access All Alternates in Latin lookup 0 subtable" s.sc
Substitution2: "'smcp' Lowercase to Small Capitals in Latin lookup 2 subtable" s.sc
EndChar

StartChar: t
Encoding: 116 116 92
Width: 339
VWidth: 0
GlyphClass: 2
Flags: W
TeX: 739 0
HStem: 0 21G<94 171.708> 480 67<83 183 269 386> 719 20G<227.25 305>
VStem: 71 327
AnchorPoint: "bot_acc" 117 -123 basechar 0
AnchorPoint: "dotbelow" 117 -123 basechar 0
AnchorPoint: "ogon_acc" 76 -123 basechar 0
AnchorPoint: "top_accl" 291 862 basechar 0
AnchorPoint: "dotabove" 291 862 basechar 0
AnchorPoint: "ccmped" 437 699 basechar 0
LayerCount: 2
Fore
SplineSet
71 480 m 1
 83 547 l 1
 195 547 l 1
 231 739 l 1
 305 739 l 1
 269 547 l 1
 398 547 l 1
 386 480 l 1
 257 480 l 1
 168 0 l 1
 94 0 l 1
 183 480 l 1
 71 480 l 1
EndSplineSet
Validated: 1
AlternateSubs2: "'aalt' Access All Alternates lookup 0 subtable" t.sc
AlternateSubs2: "'aalt' Access All Alternates in Latin lookup 0 subtable" t.sc
Substitution2: "'smcp' Lowercase to Small Capitals in Latin lookup 2 subtable" t.sc
EndChar

StartChar: u
Encoding: 117 117 93
Width: 608
VWidth: 0
GlyphClass: 2
Flags: W
TeX: 547 0
HStem: -13 68<195.071 368.222> 0 21G<440 517.729> 527 20G<129.271 207 538.228 616>
VStem: 69 77<104.507 321.141> 133 74<509.455 547>
AnchorPoint: "bot_acc" 250 -123 basechar 0
AnchorPoint: "dotbelow" 250 -123 basechar 0
AnchorPoint: "ogon_acc" 422 -123 basechar 0
AnchorPoint: "top_accl" 397 670 basechar 0
AnchorPoint: "dotabove" 397 670 basechar 0
LayerCount: 2
Fore
SplineSet
69 155 m 0xb0
 69 183 73 224 78 252 c 2
 133 547 l 1
 207 547 l 1xa8
 152 252 l 2
 149 239 146 200 146 185 c 0
 146 104 190 55 280 55 c 0xb0
 375 55 460 111 489 266 c 2
 542 547 l 1
 616 547 l 1
 514 0 l 1
 440 0 l 1x70
 456 85 l 1
 403 15 347 -13 260 -13 c 0
 144 -13 69 53 69 155 c 0xb0
EndSplineSet
Validated: 1
AlternateSubs2: "'aalt' Access All Alternates lookup 0 subtable" u.sc
AlternateSubs2: "'aalt' Access All Alternates in Latin lookup 0 subtable" u.sc
Substitution2: "'smcp' Lowercase to Small Capitals in Latin lookup 2 subtable" u.sc
EndChar

StartChar: v
Encoding: 118 118 94
Width: 554
VWidth: 0
GlyphClass: 2
Flags: W
TeX: 547 0
HStem: 0 21G<203.283 298.102> 527 20G<79 158.652 529.783 617>
AnchorPoint: "bot_acc" 224 -123 basechar 0
AnchorPoint: "dotbelow" 224 -123 basechar 0
AnchorPoint: "ogon_acc" 194 -123 basechar 0
AnchorPoint: "top_accl" 371 670 basechar 0
AnchorPoint: "dotabove" 371 670 basechar 0
LayerCount: 2
Fore
SplineSet
79 547 m 1
 154 547 l 1
 261 87 l 1
 542 547 l 1
 617 547 l 1
 286 0 l 1
 208 0 l 1
 79 547 l 1
EndSplineSet
Validated: 1
AlternateSubs2: "'aalt' Access All Alternates lookup 0 subtable" v.sc
AlternateSubs2: "'aalt' Access All Alternates in Latin lookup 0 subtable" v.sc
Substitution2: "'smcp' Lowercase to Small Capitals in Latin lookup 2 subtable" v.sc
EndChar

StartChar: w
Encoding: 119 119 95
Width: 831
VWidth: 0
GlyphClass: 2
Flags: W
TeX: 547 0
HStem: 0 21G<182.051 276.193 500.135 593.444> 527 20G<78 155.886 811.515 895>
AnchorPoint: "bot_acc" 362 -123 basechar 0
AnchorPoint: "dotbelow" 362 -123 basechar 0
AnchorPoint: "ogon_acc" 490 -123 basechar 0
AnchorPoint: "top_accl" 509 670 basechar 0
AnchorPoint: "dotabove" 509 670 basechar 0
LayerCount: 2
Fore
SplineSet
78 547 m 1
 152 547 l 1
 241 89 l 1
 443 480 l 1
 504 480 l 1
 560 89 l 1
 823 547 l 1
 895 547 l 1
 582 0 l 1
 503 0 l 1
 451 363 l 1
 266 0 l 1
 186 0 l 1
 78 547 l 1
EndSplineSet
Validated: 1
AlternateSubs2: "'aalt' Access All Alternates lookup 0 subtable" w.sc
AlternateSubs2: "'aalt' Access All Alternates in Latin lookup 0 subtable" w.sc
Substitution2: "'smcp' Lowercase to Small Capitals in Latin lookup 2 subtable" w.sc
EndChar

StartChar: x
Encoding: 120 120 96
Width: 480
VWidth: 0
GlyphClass: 2
Flags: W
TeX: 547 0
HStem: 0 21G<-22 79.2603 347.32 442> 527 20G<79 173.332 440.37 543>
AnchorPoint: "bot_acc" 187 -123 basechar 0
AnchorPoint: "dotbelow" 187 -123 basechar 0
AnchorPoint: "ogon_acc" 350 -123 basechar 0
AnchorPoint: "top_accl" 334 670 basechar 0
AnchorPoint: "dotabove" 334 670 basechar 0
LayerCount: 2
Fore
SplineSet
-22 0 m 1
 220 279 l 1
 79 547 l 1
 163 547 l 1
 272 336 l 1
 458 547 l 1
 543 547 l 1
 303 279 l 1
 442 0 l 1
 357 0 l 1
 251 219 l 1
 62 0 l 1
 -22 0 l 1
EndSplineSet
Validated: 1
AlternateSubs2: "'aalt' Access All Alternates lookup 0 subtable" x.sc
AlternateSubs2: "'aalt' Access All Alternates in Latin lookup 0 subtable" x.sc
Substitution2: "'smcp' Lowercase to Small Capitals in Latin lookup 2 subtable" x.sc
EndChar

StartChar: y
Encoding: 121 121 97
Width: 536
VWidth: 0
GlyphClass: 2
Flags: W
TeX: 547 -192
HStem: -192 21G<67 157.26> 527 20G<80 165.22 506.798 598>
AnchorPoint: "bot_acc" 180 -315 basechar 0
AnchorPoint: "dotbelow" 347 -123 basechar 0
AnchorPoint: "ogon_acc" 53 -315 basechar 0
AnchorPoint: "top_accl" 363 670 basechar 0
AnchorPoint: "dotabove" 363 670 basechar 0
LayerCount: 2
Fore
SplineSet
67 -192 m 1
 194 18 l 1
 80 547 l 1
 161 547 l 1
 253 111 l 1
 519 547 l 1
 598 547 l 1
 145 -192 l 1
 67 -192 l 1
EndSplineSet
Validated: 1
AlternateSubs2: "'aalt' Access All Alternates lookup 0 subtable" y.sc
AlternateSubs2: "'aalt' Access All Alternates in Latin lookup 0 subtable" y.sc
Substitution2: "'smcp' Lowercase to Small Capitals in Latin lookup 2 subtable" y.sc
EndChar

StartChar: z
Encoding: 122 122 98
Width: 425
VWidth: 0
GlyphClass: 2
Flags: W
TeX: 547 0
HStem: 0 67<79 385> 480 67<91 371>
AnchorPoint: "bot_acc" 155 -123 basechar 0
AnchorPoint: "dotbelow" 155 -123 basechar 0
AnchorPoint: "ogon_acc" 293 -123 basechar 0
AnchorPoint: "top_accl" 302 670 basechar 0
AnchorPoint: "dotabove" 302 670 basechar 0
LayerCount: 2
Fore
SplineSet
-20 0 m 1
 -8 67 l 1
 371 480 l 1
 79 480 l 1
 91 547 l 1
 467 547 l 1
 456 484 l 1
 79 67 l 1
 397 67 l 1
 385 0 l 1
 -20 0 l 1
EndSplineSet
Validated: 1
AlternateSubs2: "'aalt' Access All Alternates lookup 0 subtable" z.sc
AlternateSubs2: "'aalt' Access All Alternates in Latin lookup 0 subtable" z.sc
Substitution2: "'smcp' Lowercase to Small Capitals in Latin lookup 2 subtable" z.sc
EndChar

StartChar: asciitilde
Encoding: 126 126 99
Width: 606
VWidth: 0
Flags: W
TeX: 390 0
HStem: 231 78<369.199 495.692> 299 78<163.912 293.909>
LayerCount: 2
Fore
SplineSet
69 257 m 1x40
 133 344 179 377 235 377 c 0x40
 256 377 280 370 308 358 c 2
 368 331 l 2
 402 315 424 308 443 309 c 0
 476 309 509 333 554 390 c 1
 589 343 l 1
 542 275 479 231 427 231 c 0x80
 404 231 381 239 340 257 c 2
 290 279 l 2
 257 293 239 299 221 299 c 0
 180 299 160 284 102 210 c 1
 69 257 l 1x40
EndSplineSet
Validated: 33
EndChar

StartChar: Euro
Encoding: 128 8364 100
Width: 554
VWidth: 0
Flags: W
TeX: 739 0
HStem: -13 65<185.569 374.153> 272 59<-27 34 115 383> 400 59<-4 55 145 461> 561 21G<542.5 577.836> 686 66<294.596 485.775>
VStem: 34 75<137.264 272>
LayerCount: 2
Fore
SplineSet
-62 272 m 1
 -27 331 l 1
 41 331 l 1
 45 363 46 368 55 400 c 1
 -39 400 l 1
 -4 459 l 1
 71 459 l 1
 111 566 140 617 188 663 c 0
 249 722 321 752 406 752 c 0
 493 752 550 730 608 628 c 1
 565 561 l 1
 520 655 479 686 399 686 c 0
 283 686 215 633 145 459 c 1
 496 459 l 1
 461 400 l 1
 128 400 l 1
 120 369 119 364 115 331 c 1
 418 331 l 1
 383 272 l 1
 109 272 l 1
 109 245 l 2
 109 121 168 52 274 52 c 0
 353 52 386 72 480 148 c 1
 466 62 l 1
 409 12 344 -13 268 -13 c 0
 105 -13 34 74 34 272 c 1
 -62 272 l 1
EndSplineSet
Validated: 1
EndChar

StartChar: quotesinglbase
Encoding: 275 8218 101
Width: 354
VWidth: 0
Flags: W
TeX: 126 -67
HStem: -67 193
VStem: 47 197
LayerCount: 2
Fore
SplineSet
47 -67 m 1
 171 126 l 1
 244 126 l 1
 120 -67 l 1
 47 -67 l 1
EndSplineSet
Validated: 1
EndChar

StartChar: florin
Encoding: 276 402 102
Width: 554
VWidth: 0
Flags: W
TeX: 818 -153
HStem: -153 68<-30.5469 108.123> 517 67<277 365 458 546> 751 67<545.752 633.797>
LayerCount: 2
Fore
SplineSet
-51 -146 m 1
 -26 -82 l 1
 -6 -84 l 2
 -1 -85 4 -85 18 -85 c 0
 113 -85 154 -46 206 92 c 2
 365 517 l 1
 252 517 l 1
 277 584 l 1
 388 584 l 1
 397 607 l 2
 455 756 534 818 632 818 c 0
 642 818 646 817 655 815 c 1
 632 749 l 1
 621 751 617 751 613 751 c 2
 611 751 l 2
 552 752 517 720 468 607 c 2
 458 584 l 1
 570 584 l 1
 546 517 l 1
 434 517 l 1
 274 86 l 2
 232 -28 211 -64 164 -101 c 0
 119 -136 67 -153 3 -153 c 0
 -17 -153 -23 -152 -51 -146 c 1
EndSplineSet
Validated: 33
EndChar

StartChar: quotedblbase
Encoding: 132 8222 103
Width: 502
VWidth: 0
GlyphClass: 3
Flags: W
TeX: 126 -66
HStem: -66 192
LayerCount: 2
Fore
SplineSet
47 -66 m 1
 171 126 l 1
 245 126 l 1
 121 -66 l 1
 47 -66 l 1
193 -66 m 1
 317 126 l 1
 391 126 l 1
 267 -66 l 1
 193 -66 l 1
EndSplineSet
Validated: 1
Ligature2: "'dlig' Discretionary Ligatures in Latin lookup 12 subtable" comma comma
EndChar

StartChar: dagger
Encoding: 134 8224 104
Width: 553
VWidth: 0
Flags: W
TeX: 739 0
HStem: 470 66<128 294 380 552> 719 20G<340.256 418>
LayerCount: 2
Fore
SplineSet
116 470 m 1
 128 536 l 1
 306 536 l 1
 344 739 l 1
 418 739 l 1
 380 536 l 1
 564 536 l 1
 552 470 l 1
 368 470 l 1
 256 -133 l 1
 182 -133 l 1
 294 470 l 1
 116 470 l 1
EndSplineSet
Validated: 1
EndChar

StartChar: daggerdbl
Encoding: 135 8225 105
Width: 553
VWidth: 0
Flags: W
TeX: 739 -250
HStem: 335 66<103 270 356 526> 493 70<133 299 386 555> 719 20G<341.25 419>
LayerCount: 2
Fore
SplineSet
91 335 m 1
 103 401 l 1
 282 401 l 1
 299 493 l 1
 120 493 l 1
 133 563 l 1
 312 563 l 1
 345 739 l 1
 419 739 l 1
 386 563 l 1
 568 563 l 1
 555 493 l 1
 373 493 l 1
 356 401 l 1
 538 401 l 1
 526 335 l 1
 344 335 l 1
 257 -133 l 1
 183 -133 l 1
 270 335 l 1
 91 335 l 1
EndSplineSet
Validated: 1
EndChar

StartChar: perthousand
Encoding: 137 8240 106
Width: 1174
VWidth: 0
Flags: W
TeX: 739 0
HStem: -13 68<497.109 625.198 895.109 1023.2> 0 21G<153 237.747> 270 68<530.656 658.193 928.656 1056.19> 397 68<184.579 313.409> 681 68<217.591 346.193> 719 20G<609.307 696>
VStem: 87 68<494.125 618.956> 376 68<526.975 650.38> 399 68<84.3281 209.343> 688 68<116.553 239.648> 797 68<84.3281 209.343> 1086 68<116.553 239.648>
LayerCount: 2
Fore
SplineSet
87 542 m 0x3b70
 87 644 185 749 299 749 c 0
 382 749 444 687 444 606 c 0
 444 498 343 397 235 397 c 0
 149 397 87 458 87 542 c 0x3b70
153 0 m 1x7670
 622 739 l 1
 696 739 l 1
 225 0 l 1
 153 0 l 1x7670
155 552 m 0
 155 502 193 465 243 465 c 0
 314 465 376 526 376 595 c 0
 376 643 337 681 288 681 c 0x3b70
 217 681 155 621 155 552 c 0
399 132 m 0xb2f0
 399 239 501 338 611 338 c 0
 694 338 756 277 756 195 c 0
 756 87 655 -13 546 -13 c 0
 461 -13 399 48 399 132 c 0xb2f0
467 142 m 0
 467 93 505 55 555 55 c 0
 626 55 688 116 688 185 c 0
 688 232 649 270 600 270 c 0
 530 270 467 209 467 142 c 0
797 132 m 0
 797 239 899 338 1009 338 c 0
 1092 338 1154 277 1154 195 c 0
 1154 87 1053 -13 944 -13 c 0
 859 -13 797 48 797 132 c 0
865 142 m 0
 865 93 903 55 953 55 c 0
 1024 55 1086 116 1086 185 c 0
 1086 232 1047 270 998 270 c 0
 928 270 865 209 865 142 c 0
EndSplineSet
Validated: 1
EndChar

StartChar: guilsinglleft
Encoding: 277 8249 107
Width: 251
VWidth: 0
Flags: W
TeX: 499 0
VStem: 66 202
LayerCount: 2
Fore
SplineSet
66 300 m 1
 215 499 l 1
 268 467 l 1
 144 300 l 1
 206 132 l 1
 141 99 l 1
 66 300 l 1
EndSplineSet
Validated: 1
EndChar

StartChar: OE
Encoding: 141 338 108
Width: 1194
VWidth: 0
Flags: W
TeX: 739 0
HStem: -13 68<306.508 535.046> 0 67<801 1108> 340 67<864 1160> 672 67<913 1232> 684 68<407.746 642.134>
VStem: 76 77<207.606 429.861> 791 73<416.519 444.857>
LayerCount: 2
Fore
SplineSet
76 300 m 0xa6
 76 543 291 752 542 752 c 0xae
 679 752 779 695 823 592 c 1
 851 739 l 1
 1245 739 l 1
 1232 672 l 1
 913 672 l 1
 864 407 l 1
 1172 407 l 1
 1160 340 l 1
 852 340 l 1
 801 67 l 1
 1120 67 l 1
 1108 0 l 1
 714 0 l 1x76
 742 151 l 1
 656 41 547 -13 412 -13 c 0
 209 -13 76 111 76 300 c 0xa6
153 313 m 0
 153 170 253 55 419 55 c 0
 612 55 791 227 791 436 c 0
 791 584 685 684 528 684 c 0
 326 684 153 507 153 313 c 0
EndSplineSet
Validated: 1
AlternateSubs2: "'aalt' Access All Alternates lookup 0 subtable" oe.sc
AlternateSubs2: "'aalt' Access All Alternates in Latin lookup 0 subtable" oe.sc
Substitution2: "'c2sc' Capitals to Small Capitals in Latin lookup 13 subtable" oe.sc
Position2: "'cpsp' Capital Spacing in Latin lookup 13 subtable" dx=7 dy=0 dh=14 dv=0
EndChar

StartChar: quoteleft
Encoding: 145 8216 109
Width: 351
VWidth: 0
Flags: W
TeX: 739 0
HStem: 547 192<257 279>
VStem: 205 126
LayerCount: 2
Fore
SplineSet
205 739 m 1
 279 739 l 1
 331 547 l 1
 257 547 l 1
 205 739 l 1
EndSplineSet
Validated: 1
EndChar

StartChar: quoteright
Encoding: 146 8217 110
Width: 351
VWidth: 0
Flags: W
TeX: 739 0
HStem: 547 192
VStem: 162 198
LayerCount: 2
Fore
SplineSet
162 547 m 1
 286 739 l 1
 360 739 l 1
 236 547 l 1
 162 547 l 1
EndSplineSet
Validated: 1
EndChar

StartChar: quotedblleft
Encoding: 147 8220 111
Width: 502
VWidth: 0
GlyphClass: 3
Flags: W
TeX: 739 0
HStem: 547 192<329 351 477 499>
VStem: 203 274
LayerCount: 2
Fore
SplineSet
203 739 m 1
 277 739 l 1
 329 547 l 1
 255 547 l 1
 203 739 l 1
351 739 m 1
 425 739 l 1
 477 547 l 1
 403 547 l 1
 351 739 l 1
EndSplineSet
Validated: 1
Ligature2: "'dlig' Discretionary Ligatures in Latin lookup 12 subtable" quoteleft quoteleft
EndChar

StartChar: quotedblright
Encoding: 148 8221 112
Width: 484
VWidth: 0
GlyphClass: 3
Flags: W
TeX: 739 0
HStem: 547 192
LayerCount: 2
Fore
SplineSet
158 547 m 1
 282 739 l 1
 356 739 l 1
 232 547 l 1
 158 547 l 1
302 547 m 1
 426 739 l 1
 500 739 l 1
 376 547 l 1
 302 547 l 1
EndSplineSet
Validated: 1
Ligature2: "'dlig' Discretionary Ligatures in Latin lookup 12 subtable" quoteright quoteright
EndChar

StartChar: endash
Encoding: 150 8211 113
Width: 500
VWidth: 0
GlyphClass: 3
Flags: W
TeX: 296 0
HStem: 233 63<31 520>
LayerCount: 2
Fore
SplineSet
19 233 m 1
 31 296 l 1
 532 296 l 1
 520 233 l 1
 19 233 l 1
EndSplineSet
Validated: 1
Ligature2: "'dlig' Discretionary Ligatures in Latin lookup 12 subtable" hyphen hyphen
EndChar

StartChar: emdash
Encoding: 151 8212 114
Width: 1000
VWidth: 0
GlyphClass: 3
Flags: W
TeX: 296 0
HStem: 233 63<31 1020>
LayerCount: 2
Fore
SplineSet
19 233 m 1
 31 296 l 1
 1032 296 l 1
 1020 233 l 1
 19 233 l 1
EndSplineSet
Validated: 1
Ligature2: "'dlig' Discretionary Ligatures in Latin lookup 12 subtable" hyphen hyphen hyphen hyphen
EndChar

StartChar: guilsinglright
Encoding: 278 8250 115
Width: 251
VWidth: 0
Flags: W
TeX: 499 0
VStem: 35 202
LayerCount: 2
Fore
SplineSet
35 132 m 1
 159 300 l 1
 97 467 l 1
 162 499 l 1
 237 300 l 1
 88 99 l 1
 35 132 l 1
EndSplineSet
Validated: 1
EndChar

StartChar: oe
Encoding: 157 339 116
Width: 1137
VWidth: 0
Flags: W
TeX: 547 0
HStem: -13 68<221.837 403.346 714.493 899.525> 248 67<635 1054> 492 68<290.246 475.694 778.249 966.565>
VStem: 58 77<142.894 329.793> 560 60<219.953 248> 1054 69<315.138 406.922>
LayerCount: 2
Fore
SplineSet
58 217 m 0
 58 412 232 560 398 560 c 0
 500 560 560 527 617 414 c 1
 658 482 767 560 889 560 c 0
 1024 560 1123 469 1123 339 c 0
 1123 315 1120 293 1110 248 c 1
 622 248 l 1
 621 235 620 224 620 216 c 0
 620 131 698 55 804 55 c 0
 888 55 962 98 1013 179 c 1
 1088 179 l 1
 1043 80 923 -13 792 -13 c 0
 692 -13 598 31 566 138 c 1
 511 72 495 56 460 35 c 0
 406 2 357 -13 302 -13 c 0
 159 -13 58 81 58 217 c 0
135 230 m 0
 135 128 207 55 308 55 c 0
 441 55 560 181 560 320 c 0
 560 422 490 492 387 492 c 0
 252 492 135 371 135 230 c 0
635 315 m 1
 1054 315 l 1
 1054 318 l 1
 1054 327 l 2
 1054 421 978 492 878 492 c 0
 772 492 686 429 635 315 c 1
EndSplineSet
Validated: 1
AlternateSubs2: "'aalt' Access All Alternates lookup 0 subtable" oe.sc
AlternateSubs2: "'aalt' Access All Alternates in Latin lookup 0 subtable" oe.sc
Substitution2: "'smcp' Lowercase to Small Capitals in Latin lookup 2 subtable" oe.sc
EndChar

StartChar: cent
Encoding: 279 162 117
Width: 554
VWidth: 0
Flags: W
TeX: 707 0
HStem: 151 66<219.951 257 324 378.276> 547 67<273.882 343 410 433.131>
VStem: 83 77<274.799 439.165>
LayerCount: 2
Fore
SplineSet
83 338 m 0
 83 468 187 594 343 614 c 1
 360 707 l 1
 427 707 l 1
 410 614 l 1
 495 600 551 546 565 463 c 1
 483 463 l 1
 480 468 478 473 477 475 c 0
 451 529 406 547 354 547 c 0
 251 547 160 456 160 353 c 0
 160 272 214 217 294 217 c 0
 347 217 402 243 447 290 c 1
 527 290 l 1
 489 218 408 163 324 151 c 1
 308 62 l 1
 241 62 l 1
 257 151 l 1
 154 160 83 236 83 338 c 0
EndSplineSet
Validated: 1
AlternateSubs2: "'aalt' Access All Alternates lookup 0 subtable" cent.oldstyle
AlternateSubs2: "'aalt' Access All Alternates in Latin lookup 0 subtable" cent.oldstyle
Substitution2: "'onum' Oldstyle Figures in Latin lookup 3 subtable" cent.oldstyle
EndChar

StartChar: sterling
Encoding: 280 163 118
Width: 554
VWidth: 0
Flags: W
TeX: 739 0
HStem: 0 67<40 197.323 265 427.967> 347 67<64 140 274 490> 684 68<316.53 486.46>
VStem: 128 77<415.349 569.563> 244 77<128.446 289.181> 531 72<168.208 268> 553 72<541 618.014>
LayerCount: 2
Fore
SplineSet
28 0 m 1xfc
 40 67 l 1
 178 67 l 1
 218 104 244 163 244 220 c 0
 244 261 225 295 175 347 c 1
 51 347 l 1
 64 414 l 1
 140 414 l 1
 131 444 128 459 128 481 c 0
 128 633 273 752 414 752 c 0
 541 752 625 667 625 569 c 0
 625 562 624 553 623 541 c 1
 553 541 l 1xfa
 553 627 494 684 402 684 c 0
 294 684 205 590 205 476 c 0
 205 457 209 442 220 414 c 1
 503 414 l 1
 490 347 l 1
 274 347 l 1
 308 301 321 267 321 219 c 0
 321 169 305 127 265 67 c 1
 322 67 l 2
 462 67 531 148 531 268 c 1
 603 268 l 1
 603 98 486 0 313 0 c 2
 28 0 l 1xfc
EndSplineSet
Validated: 1
EndChar

StartChar: currency
Encoding: 164 164 119
Width: 554
VWidth: 0
Flags: W
TeX: 554 0
HStem: 50 73<186.523 359.915> 481 73<249.776 424.455>
VStem: 49 72<187.167 356.629> 488 72<248.034 419.761>
LayerCount: 2
Fore
SplineSet
21 111 m 1
 72 153 l 1
 55 182 49 209 49 250 c 0
 49 327 72 387 127 452 c 1
 92 495 l 1
 156 549 l 1
 191 507 l 1
 263 544 296 554 349 554 c 0
 407 554 455 538 491 507 c 1
 542 549 l 1
 585 495 l 1
 536 452 l 1
 554 411 560 387 560 352 c 0
 560 278 529 200 481 153 c 1
 515 111 l 1
 451 58 l 1
 418 100 l 1
 353 63 312 50 255 50 c 0
 199 50 163 63 116 100 c 1
 65 58 l 1
 21 111 l 1
121 270 m 0
 121 181 180 123 272 123 c 0
 388 123 488 223 488 340 c 0
 488 434 420 481 341 481 c 0
 220 481 121 378 121 270 c 0
EndSplineSet
Validated: 1
EndChar

StartChar: yen
Encoding: 281 165 120
Width: 554
VWidth: 0
Flags: W
TeX: 739 0
HStem: 0 21G<231 308.713> 237 67<79 261 386 554> 396 67<102 206 501 590> 719 20G<109 192.039 605.922 696>
LayerCount: 2
Fore
SplineSet
67 237 m 1
 79 304 l 1
 261 304 l 1
 229 396 l 1
 89 396 l 1
 102 463 l 1
 206 463 l 1
 109 739 l 1
 185 739 l 1
 330 327 l 1
 620 739 l 1
 696 739 l 1
 501 463 l 1
 603 463 l 1
 590 396 l 1
 452 396 l 1
 386 304 l 1
 566 304 l 1
 554 237 l 1
 349 237 l 1
 305 0 l 1
 231 0 l 1
 275 237 l 1
 67 237 l 1
EndSplineSet
Validated: 1
EndChar

StartChar: section
Encoding: 167 167 121
Width: 615
VWidth: 0
Flags: W
TeX: 739 -250
HStem: -141 68<198.017 345.775> 684 68<331.966 470.9>
VStem: 84 70<-29.6441 64> 116 72<291.925 393.835> 210 70<520.889 634.646> 412 68<-8.86145 96.3897> 481 72<233.298 349.57> 493 73<606 661.298>
LayerCount: 2
Fore
SplineSet
84 22 m 0xee
 84 33 85 47 87 64 c 1
 155 64 l 1
 154 55 154 46 154 39 c 0xee
 154 -27 201 -73 271 -73 c 0
 345 -73 412 -12 412 52 c 0
 412 80 384 110 334 137 c 2
 204 207 l 2
 141 241 116 270 116 310 c 0
 116 380 161 450 234 491 c 1
 217 511 210 530 210 561 c 0
 210 663 306 752 416 752 c 0
 499 752 566 698 566 631 c 0
 566 625 565 617 564 606 c 1
 493 606 l 1xdd
 491 664 455 684 400 684 c 0
 335 684 280 634 280 575 c 0
 280 543 294 521 325 505 c 2
 468 431 l 2
 526 401 553 364 553 315 c 0
 553 258 528 204 449 146 c 1
 470 120 480 94 480 70 c 0
 480 -58 364 -141 256 -141 c 0
 152 -141 84 -66 84 22 c 0xee
188 333 m 0xde
 188 314 205 291 229 278 c 2
 410 182 l 1
 454 211 481 255 481 300 c 0
 481 329 467 349 436 365 c 2
 265 454 l 1
 221 426 188 374 188 333 c 0xde
EndSplineSet
Validated: 1
EndChar

StartChar: ordfeminine
Encoding: 282 170 122
Width: 369
VWidth: 0
Flags: W
TeX: 739 0
HStem: 319 52<70 379> 441 49<196.106 311.886> 696 49<226.266 343.366>
VStem: 115 53<518.424 638.424>
LayerCount: 2
Fore
SplineSet
61 319 m 1
 70 371 l 1
 388 371 l 1
 379 319 l 1
 61 319 l 1
115 569 m 0
 115 660 205 745 303 745 c 0
 339 745 368 728 391 694 c 1
 399 739 l 1
 447 739 l 1
 393 448 l 1
 345 448 l 1
 353 493 l 1
 321 459 283 441 239 441 c 0
 169 441 115 497 115 569 c 0
168 575 m 0
 168 529 205 490 250 490 c 0
 308 490 370 551 370 610 c 0
 370 658 336 696 291 696 c 0
 228 696 168 637 168 575 c 0
EndSplineSet
Validated: 1
EndChar

StartChar: guillemotleft
Encoding: 171 171 123
Width: 425
VWidth: 0
Flags: W
TeX: 499 0
LayerCount: 2
Fore
SplineSet
66 300 m 1
 215 499 l 1
 268 467 l 1
 144 300 l 1
 206 132 l 1
 141 99 l 1
 66 300 l 1
240 300 m 1
 389 499 l 1
 442 467 l 1
 318 300 l 1
 380 132 l 1
 315 99 l 1
 240 300 l 1
EndSplineSet
Validated: 1
EndChar

StartChar: degree
Encoding: 176 176 124
Width: 400
VWidth: 0
Flags: W
TeX: 739 0
HStem: 440 57<230.289 350.411> 683 57<229.581 351.222>
VStem: 138 57<531.57 648.588> 386 57<531.27 648.311>
LayerCount: 2
Fore
SplineSet
138 591 m 0
 138 674 207 740 293 740 c 0
 375 740 443 672 443 590 c 0
 443 507 375 440 290 440 c 0
 206 440 138 507 138 591 c 0
195 591 m 0
 195 539 238 497 290 497 c 0
 343 497 386 539 386 590 c 0
 386 640 343 683 292 683 c 0
 238 683 195 642 195 591 c 0
EndSplineSet
Validated: 1
EndChar

StartChar: two.superior
Encoding: 283 178 125
Width: 332
VWidth: 0
Flags: W
TeX: 739 0
HStem: 297 52<129 343> 695 52<197.723 327.665>
VStem: 95 57<588 646.494> 347 58<567.266 675.307>
LayerCount: 2
Fore
SplineSet
37 297 m 1
 46 346 l 1
 237 492 l 2
 340 571 347 583 347 629 c 0
 347 668 314 695 266 695 c 0
 209 695 166 664 152 588 c 1
 95 588 l 1
 110 686 180 747 278 747 c 0
 354 747 405 702 405 634 c 0
 405 577 376 535 290 470 c 2
 129 349 l 1
 352 349 l 1
 343 297 l 1
 37 297 l 1
EndSplineSet
Validated: 1
EndChar

StartChar: three.superior
Encoding: 284 179 126
Width: 332
VWidth: 0
Flags: W
TeX: 739 0
HStem: 289 52<141.497 265.826> 523 50<205 289.91> 695 52<209.954 314.611>
VStem: 61 59<362.162 443> 128 57<620 668.159> 315 58<386.779 498.696> 323 58<597.189 685.888>
LayerCount: 2
Fore
SplineSet
61 402 m 0xfc
 61 407 61 420 64 443 c 1
 121 443 l 1
 120 408 l 2
 119 372 156 341 200 341 c 0
 260 341 315 390 315 444 c 0xfc
 315 500 276 523 204 523 c 2
 195 523 l 1
 205 573 l 1
 229 573 l 2
 284 573 323 602 323 644 c 0
 323 676 302 695 267 695 c 0
 222 695 193 669 185 620 c 1
 128 620 l 1
 139 694 201 747 275 747 c 0
 340 747 381 710 381 653 c 0xfa
 381 610 356 570 317 550 c 1
 354 531 373 499 373 456 c 0
 373 369 287 289 192 289 c 0
 113 289 61 337 61 402 c 0xfc
EndSplineSet
Validated: 33
EndChar

StartChar: mu
Encoding: 181 956 127
Width: 608
VWidth: 0
Flags: W
TeX: 547 -192
HStem: -192 21G<-3 74.7063> -13 68<205.703 380.347> 0 21G<440 517.729> 527 20G<130.292 208 538.228 616>
LayerCount: 2
Fore
SplineSet
-3 -192 m 1xd0
 134 547 l 1
 208 547 l 1
 156 266 l 2
 152 244 149 216 149 198 c 0
 149 103 199 55 298 55 c 0xd0
 388 55 458 101 489 266 c 2
 542 547 l 1
 616 547 l 1
 514 0 l 1
 440 0 l 1xb0
 456 85 l 1
 411 15 364 -13 289 -13 c 0
 212 -13 160 21 124 94 c 1
 71 -192 l 1
 -3 -192 l 1xd0
EndSplineSet
Validated: 1
AlternateSubs2: "'aalt' Access All Alternates lookup 0 subtable" uni00B5
AlternateSubs2: "'aalt' Access All Alternates in Latin lookup 0 subtable" uni00B5
Substitution2: "'ss03' Style Set 3 in Latin lookup 17 subtable" uni00B5
Substitution2: "'ss01' Style Set 1 in Latin lookup 15 subtable" uni00B5
Substitution2: "'salt' Stylistic Alternatives in Latin lookup 14 subtable" uni00B5
EndChar

StartChar: paragraph
Encoding: 182 182 128
Width: 564
VWidth: 0
Flags: W
TeX: 739 -133
HStem: 672 67<396 512>
LayerCount: 2
Fore
SplineSet
105 510 m 0
 105 632 198 739 367 739 c 2
 598 739 l 1
 437 -133 l 1
 363 -133 l 1
 512 672 l 1
 396 672 l 1
 247 -133 l 1
 173 -133 l 1
 263 355 l 1
 163 365 105 421 105 510 c 0
EndSplineSet
Validated: 1
AlternateSubs2: "'aalt' Access All Alternates lookup 0 subtable" paragraph.alt
AlternateSubs2: "'aalt' Access All Alternates in Latin lookup 0 subtable" paragraph.alt
Substitution2: "'ss02' Style Set 2 in Latin lookup 16 subtable" paragraph.alt
Substitution2: "'ss01' Style Set 1 in Latin lookup 15 subtable" paragraph.alt
Substitution2: "'salt' Stylistic Alternatives in Latin lookup 14 subtable" paragraph.alt
EndChar

StartChar: one.superior
Encoding: 285 185 129
Width: 332
VWidth: 0
Flags: W
TeX: 739 0
HStem: 687 52<206 273>
VStem: 197 143
LayerCount: 2
Fore
SplineSet
197 687 m 1
 206 739 l 1
 340 739 l 1
 259 297 l 1
 201 297 l 1
 273 687 l 1
 197 687 l 1
EndSplineSet
Validated: 1
EndChar

StartChar: ordmasculine
Encoding: 286 186 130
Width: 369
VWidth: 0
Flags: W
TeX: 739 0
HStem: 319 52<71 367> 442 49<189.821 312.496> 696 49<218.344 340.181>
VStem: 111 53<517.077 639.325> 367 53<547.941 669.465>
LayerCount: 2
Fore
SplineSet
62 319 m 1
 71 371 l 1
 376 371 l 1
 367 319 l 1
 62 319 l 1
111 567 m 0
 111 660 199 745 296 745 c 0
 367 745 420 691 420 619 c 0
 420 527 331 442 234 442 c 0
 164 442 111 496 111 567 c 0
164 572 m 0
 164 525 199 491 246 491 c 0
 311 491 367 549 367 617 c 0
 367 660 331 696 287 696 c 0
 220 696 164 639 164 572 c 0
EndSplineSet
Validated: 1
EndChar

StartChar: guillemotright
Encoding: 187 187 131
Width: 425
VWidth: 0
Flags: W
TeX: 499 0
LayerCount: 2
Fore
SplineSet
35 132 m 1
 159 300 l 1
 97 467 l 1
 162 499 l 1
 237 300 l 1
 88 99 l 1
 35 132 l 1
209 132 m 1
 333 300 l 1
 271 467 l 1
 336 499 l 1
 411 300 l 1
 262 99 l 1
 209 132 l 1
EndSplineSet
Validated: 1
EndChar

StartChar: onequarter
Encoding: 287 188 132
Width: 831
VWidth: 0
GlyphClass: 3
Flags: W
TeX: 739 0
HStem: 0 21G<187 253.963 671 732.797> 79 52<534 686 753 786> 687 52<213 280>
LayerCount: 2
Fore
SplineSet
187 0 m 1
 666 739 l 1
 720 739 l 1
 241 0 l 1
 187 0 l 1
204 687 m 1
 213 739 l 1
 347 739 l 1
 266 297 l 1
 208 297 l 1
 280 687 l 1
 204 687 l 1
454 79 m 1
 463 127 l 1
 748 442 l 1
 811 442 l 1
 753 131 l 1
 795 131 l 1
 786 79 l 1
 744 79 l 1
 729 0 l 1
 671 0 l 1
 686 79 l 1
 454 79 l 1
534 131 m 1
 695 131 l 1
 738 358 l 1
 534 131 l 1
EndSplineSet
Validated: 1
Ligature2: "'frac' Diagonal Fractions in Latin lookup 20 subtable" one fraction four
Ligature2: "'frac' Diagonal Fractions in Latin lookup 20 subtable" one slash four
EndChar

StartChar: onehalf
Encoding: 288 189 133
Width: 831
VWidth: 0
GlyphClass: 3
Flags: W
TeX: 739 0
HStem: 0 52<568 782> 398 52<636.723 766.665> 687 52<203 270>
VStem: 534 57<291 349.494> 786 58<270.266 378.307>
LayerCount: 2
Fore
SplineSet
177 0 m 1
 656 739 l 1
 710 739 l 1
 231 0 l 1
 177 0 l 1
194 687 m 1
 203 739 l 1
 337 739 l 1
 256 297 l 1
 198 297 l 1
 270 687 l 1
 194 687 l 1
476 0 m 1
 485 49 l 1
 676 195 l 2
 779 274 786 286 786 332 c 0
 786 371 753 398 705 398 c 0
 648 398 605 367 591 291 c 1
 534 291 l 1
 549 389 619 450 717 450 c 0
 793 450 844 405 844 337 c 0
 844 280 815 238 729 173 c 2
 568 52 l 1
 791 52 l 1
 782 0 l 1
 476 0 l 1
EndSplineSet
Validated: 1
Ligature2: "'frac' Diagonal Fractions in Latin lookup 20 subtable" one fraction two
Ligature2: "'frac' Diagonal Fractions in Latin lookup 20 subtable" one slash two
EndChar

StartChar: threequarters
Encoding: 289 190 134
Width: 831
VWidth: 0
GlyphClass: 3
Flags: W
TeX: 739 0
HStem: 0 21G<197 263.963 671 732.797> 79 52<534 686 753 786> 289 52<141.497 265.826> 523 50<205 289.91> 695 52<209.954 314.611> 719 20G<663.037 730>
VStem: 61 59<362.162 443> 128 57<620 668.159> 315 58<386.779 498.696> 323 58<597.189 685.888>
LayerCount: 2
Fore
SplineSet
61 402 m 0xfb80
 61 407 61 420 64 443 c 1
 121 443 l 1
 120 408 l 2
 119 372 156 341 200 341 c 0
 260 341 315 390 315 444 c 0xfb80
 315 500 276 523 204 523 c 2
 195 523 l 1
 205 573 l 1
 229 573 l 2
 284 573 323 602 323 644 c 0
 323 676 302 695 267 695 c 0
 222 695 193 669 185 620 c 1
 128 620 l 1
 139 694 201 747 275 747 c 0
 340 747 381 710 381 653 c 0xfb40
 381 610 356 570 317 550 c 1
 354 531 373 499 373 456 c 0
 373 369 287 289 192 289 c 0
 113 289 61 337 61 402 c 0xfb80
197 0 m 1
 676 739 l 1
 730 739 l 1xf7
 251 0 l 1
 197 0 l 1
454 79 m 1
 463 127 l 1
 748 442 l 1
 811 442 l 1
 753 131 l 1
 795 131 l 1
 786 79 l 1
 744 79 l 1
 729 0 l 1
 671 0 l 1
 686 79 l 1
 454 79 l 1
534 131 m 1
 695 131 l 1
 738 358 l 1
 534 131 l 1
EndSplineSet
Validated: 33
Ligature2: "'frac' Diagonal Fractions in Latin lookup 20 subtable" three fraction four
Ligature2: "'frac' Diagonal Fractions in Latin lookup 20 subtable" three slash four
EndChar

StartChar: AE
Encoding: 170 198 135
Width: 992
VWidth: 0
Flags: W
TeX: 739 0
HStem: 0 67<599 906> 250 67<348 559> 340 67<662 958> 672 67<712 1031>
LayerCount: 2
Fore
SplineSet
-19 0 m 1
 629 739 l 1
 1043 739 l 1
 1031 672 l 1
 712 672 l 1
 662 407 l 1
 970 407 l 1
 958 340 l 1
 650 340 l 1
 599 67 l 1
 918 67 l 1
 906 0 l 1
 513 0 l 1
 559 250 l 1
 288 250 l 1
 69 0 l 1
 -19 0 l 1
348 317 m 1
 572 317 l 1
 632 644 l 1
 348 317 l 1
EndSplineSet
Validated: 1
AlternateSubs2: "'aalt' Access All Alternates lookup 0 subtable" ae.sc
AlternateSubs2: "'aalt' Access All Alternates in Latin lookup 0 subtable" ae.sc
Substitution2: "'c2sc' Capitals to Small Capitals in Latin lookup 13 subtable" ae.sc
Position2: "'cpsp' Capital Spacing in Latin lookup 13 subtable" dx=7 dy=0 dh=14 dv=0
EndChar

StartChar: Eth
Encoding: 208 208 136
Width: 790
VWidth: 0
Flags: W
TeX: 739 0
HStem: 0 67<179 464.03> 347 67<75 156 242 436> 672 67<291 559.682>
VStem: 713 77<313.927 544.9>
LayerCount: 2
Fore
SplineSet
63 347 m 1
 75 414 l 1
 168 414 l 1
 229 739 l 1
 403 739 l 2
 536 739 612 723 672 681 c 0
 751 626 790 551 790 451 c 0
 790 311 732 188 625 102 c 0
 535 30 438 0 291 0 c 2
 92 0 l 1
 156 347 l 1
 63 347 l 1
179 67 m 1
 282 67 l 2
 435 67 522 94 598 165 c 0
 669 231 713 336 713 435 c 0
 713 581 633 672 394 672 c 2
 291 672 l 1
 242 414 l 1
 448 414 l 1
 436 347 l 1
 230 347 l 1
 179 67 l 1
EndSplineSet
Validated: 1
AlternateSubs2: "'aalt' Access All Alternates lookup 0 subtable" eth.sc
AlternateSubs2: "'aalt' Access All Alternates in Latin lookup 0 subtable" eth.sc
Substitution2: "'c2sc' Capitals to Small Capitals in Latin lookup 13 subtable" eth.sc
Position2: "'cpsp' Capital Spacing in Latin lookup 13 subtable" dx=7 dy=0 dh=14 dv=0
EndChar

StartChar: Oslash
Encoding: 216 216 137
Width: 868
VWidth: 0
GlyphClass: 2
Flags: W
TeX: 739 0
HStem: -13 68<299.398 523.328> 684 68<410.302 641.022>
VStem: 73 77<197.647 418.469> 790 77<319.984 536.947>
AnchorPoint: "bot_acc" 379 -123 basechar 0
AnchorPoint: "dotbelow" 379 -123 basechar 0
AnchorPoint: "ogon_acc" 379 -123 basechar 0
AnchorPoint: "top_accu" 559 852 basechar 0
AnchorPoint: "dotabove" 559 852 basechar 0
LayerCount: 2
Fore
SplineSet
42 -42 m 1
 159 82 l 1
 102 138 73 209 73 294 c 0
 73 538 297 752 534 752 c 0
 616 752 684 729 733 696 c 1
 850 821 l 1
 895 778 l 1
 781 656 l 1
 837 601 867 528 867 442 c 0
 867 206 640 -13 401 -13 c 0
 333 -13 256 9 208 42 c 1
 90 -83 l 1
 42 -42 l 1
150 309 m 0
 150 235 162 201 211 138 c 1
 682 641 l 1
 643 668 584 684 524 684 c 0
 324 684 150 494 150 309 c 0
259 97 m 1
 316 65 353 55 410 55 c 0
 601 55 790 225 790 426 c 0
 790 497 779 530 736 590 c 2
 729 600 l 1
 259 97 l 1
EndSplineSet
Validated: 1
AlternateSubs2: "'aalt' Access All Alternates lookup 0 subtable" oslash.sc
AlternateSubs2: "'aalt' Access All Alternates in Latin lookup 0 subtable" oslash.sc
Substitution2: "'c2sc' Capitals to Small Capitals in Latin lookup 13 subtable" oslash.sc
Position2: "'cpsp' Capital Spacing in Latin lookup 13 subtable" dx=7 dy=0 dh=14 dv=0
EndChar

StartChar: Thorn
Encoding: 290 222 138
Width: 592
VWidth: 0
Flags: W
TeX: 739 0
HStem: 0 21G<46 123.684> 152 67<160 434.875> 525 67<230 477.802> 719 20G<179.292 257>
VStem: 530 77<317.333 480.257>
LayerCount: 2
Fore
SplineSet
46 0 m 1
 183 739 l 1
 257 739 l 1
 230 592 l 1
 360 592 l 2
 534 592 607 543 607 425 c 0
 607 349 578 273 529 224 c 0
 477 172 410 152 289 152 c 2
 148 152 l 1
 120 0 l 1
 46 0 l 1
160 219 m 1
 297 219 l 2
 393 219 443 234 479 272 c 0
 510 305 530 360 530 411 c 0
 530 452 513 485 483 503 c 0
 457 519 409 525 322 525 c 2
 217 525 l 1
 160 219 l 1
EndSplineSet
Validated: 1
AlternateSubs2: "'aalt' Access All Alternates lookup 0 subtable" thorn.sc
AlternateSubs2: "'aalt' Access All Alternates in Latin lookup 0 subtable" thorn.sc
Substitution2: "'c2sc' Capitals to Small Capitals in Latin lookup 13 subtable" thorn.sc
Position2: "'cpsp' Capital Spacing in Latin lookup 13 subtable" dx=7 dy=0 dh=14 dv=0
EndChar

StartChar: germandbls
Encoding: 223 223 139
Width: 554
VWidth: 0
Flags: W
TeX: 752 0
HStem: -13 68<231.832 372.367> 0 21G<29 106.67> 343 65<270 375.532> 684 68<282.261 428.295>
VStem: 458 77<145.07 294.393> 469 77<495.335 643.609>
LayerCount: 2
Fore
SplineSet
29 0 m 1x78
 118 481 l 2
 154 669 238 752 373 752 c 0
 475 752 546 685 546 588 c 0x74
 546 500 507 433 431 389 c 1
 500 365 535 316 535 245 c 0
 535 105 422 -13 288 -13 c 0xb8
 203 -13 149 23 123 109 c 1
 103 0 l 1
 29 0 l 1x78
141 203 m 1
 192 203 l 1
 189 188 188 181 188 172 c 0
 188 103 233 55 298 55 c 0
 383 55 458 137 458 230 c 0xb8
 458 301 400 343 300 343 c 0
 289 343 279 343 257 341 c 1
 270 408 l 1
 285 408 l 2
 393 408 469 485 469 574 c 0
 469 640 426 684 360 684 c 0
 270 684 218 623 192 481 c 2
 141 203 l 1
EndSplineSet
Validated: 1
AlternateSubs2: "'aalt' Access All Alternates lookup 0 subtable" germandbls.sc
AlternateSubs2: "'aalt' Access All Alternates in Latin lookup 0 subtable" germandbls.sc
Substitution2: "'smcp' Lowercase to Small Capitals in Latin lookup 2 subtable" germandbls.sc
EndChar

StartChar: ae
Encoding: 186 230 140
Width: 1157
VWidth: 0
Flags: W
TeX: 547 0
HStem: -13 68<224.565 411.97 729.66 910.753> 0 21G<516 590.696> 247 67<653 1073> 492 68<297.456 487.415 797.563 986.188> 527 20G<614.211 689>
VStem: 58 77<145.256 329.231> 574 62<220.516 247> 1073 69<314.588 403.584>
LayerCount: 2
Fore
SplineSet
58 219 m 0xa7
 58 390 214 560 402 560 c 0xb7
 498 560 564 524 600 452 c 1
 618 547 l 1
 689 547 l 1x2f
 671 452 l 1
 741 524 819 560 906 560 c 0
 1045 560 1142 467 1142 333 c 0
 1142 303 1140 284 1132 247 c 1
 637 247 l 1
 636 237 636 230 636 225 c 0
 636 129 715 55 818 55 c 0
 901 55 988 105 1029 178 c 1
 1106 178 l 1
 1058 73 922 -13 804 -13 c 0xb7
 718 -13 652 22 604 92 c 1
 587 0 l 1
 516 0 l 1x67
 533 92 l 1
 463 20 388 -13 300 -13 c 0
 155 -13 58 80 58 219 c 0xa7
135 231 m 0
 135 128 209 55 312 55 c 0
 451 55 574 179 574 319 c 0
 574 422 502 492 396 492 c 0
 252 492 135 367 135 231 c 0
653 314 m 1
 1073 314 l 1
 1071 423 1002 492 896 492 c 0
 788 492 685 416 653 314 c 1
EndSplineSet
Validated: 1
AlternateSubs2: "'aalt' Access All Alternates lookup 0 subtable" ae.sc
AlternateSubs2: "'aalt' Access All Alternates in Latin lookup 0 subtable" ae.sc
Substitution2: "'smcp' Lowercase to Small Capitals in Latin lookup 2 subtable" ae.sc
EndChar

StartChar: eth
Encoding: 240 240 141
Width: 655
VWidth: 0
Flags: W
TeX: 739 0
HStem: -13 68<222.439 412.033> 492 65<294.649 480.301> 721 20G<489 551.889>
VStem: 57 77<139.469 331.721> 566 77<222.4 406.937>
LayerCount: 2
Fore
SplineSet
57 220 m 0
 57 399 214 557 392 557 c 0
 425 557 444 554 483 540 c 1
 409 632 l 1
 314 592 l 1
 286 637 l 1
 372 674 l 1
 326 719 l 1
 381 756 l 1
 402 739 395 744 439 701 c 1
 539 741 l 1
 568 696 l 1
 475 659 l 1
 581 550 643 442 643 346 c 0
 643 147 491 -13 302 -13 c 0
 154 -13 57 79 57 220 c 0
134 229 m 0
 134 124 205 55 315 55 c 0
 453 55 566 174 566 319 c 0
 566 421 496 492 395 492 c 0
 253 492 134 372 134 229 c 0
EndSplineSet
Validated: 1
AlternateSubs2: "'aalt' Access All Alternates lookup 0 subtable" eth.sc
AlternateSubs2: "'aalt' Access All Alternates in Latin lookup 0 subtable" eth.sc
Substitution2: "'smcp' Lowercase to Small Capitals in Latin lookup 2 subtable" eth.sc
EndChar

StartChar: oslash
Encoding: 248 248 142
Width: 653
VWidth: 0
GlyphClass: 2
Flags: W
TeX: 547 0
HStem: -13 68<208.997 401.225> 492 68<301.902 486.238>
VStem: 59 77<123.851 324.92> 562 77<222.202 420.032>
AnchorPoint: "bot_acc" 268 -161 basechar 0
AnchorPoint: "dotbelow" 268 -161 basechar 0
AnchorPoint: "ogon_acc" 275 -123 basechar 0
AnchorPoint: "top_accl" 422 670 basechar 0
AnchorPoint: "dotabove" 422 670 basechar 0
LayerCount: 2
Fore
SplineSet
46 2 m 1
 108 68 l 1
 71 123 59 159 59 214 c 0
 59 406 236 560 400 560 c 0
 456 560 503 546 541 519 c 1
 611 593 l 1
 657 551 l 1
 587 478 l 1
 624 439 639 398 639 340 c 0
 639 148 484 -13 299 -13 c 0
 243 -13 197 0 154 28 c 1
 91 -38 l 1
 46 2 l 1
136 225 m 0
 136 190 145 151 159 121 c 1
 491 468 l 1
 459 485 430 492 395 492 c 0
 261 492 136 362 136 225 c 0
203 79 m 1
 252 59 261 55 299 55 c 0
 449 55 562 176 562 336 c 0
 562 371 556 392 537 426 c 1
 203 79 l 1
EndSplineSet
Validated: 1
AlternateSubs2: "'aalt' Access All Alternates lookup 0 subtable" oslash.sc
AlternateSubs2: "'aalt' Access All Alternates in Latin lookup 0 subtable" oslash.sc
Substitution2: "'smcp' Lowercase to Small Capitals in Latin lookup 2 subtable" oslash.sc
EndChar

StartChar: thorn
Encoding: 291 254 143
Width: 682
VWidth: 0
Flags: W
TeX: 739 -192
HStem: -192 21G<-3 74.7063> -13 68<237.881 419.994> 492 68<310.059 495.514> 719 20G<166.284 244>
VStem: 588 77<219.541 403.555>
LayerCount: 2
Fore
SplineSet
-3 -192 m 1
 170 739 l 1
 244 739 l 1
 191 453 l 1
 241 519 331 560 425 560 c 0
 569 560 665 465 665 325 c 0
 665 148 501 -13 320 -13 c 0
 227 -13 161 23 124 94 c 1
 71 -192 l 1
 -3 -192 l 1
147 227 m 0
 147 129 223 55 325 55 c 0
 455 55 588 167 588 317 c 0
 588 419 513 492 408 492 c 0
 284 492 147 383 147 227 c 0
EndSplineSet
Validated: 1
AlternateSubs2: "'aalt' Access All Alternates lookup 0 subtable" thorn.sc
AlternateSubs2: "'aalt' Access All Alternates in Latin lookup 0 subtable" thorn.sc
Substitution2: "'smcp' Lowercase to Small Capitals in Latin lookup 2 subtable" thorn.sc
EndChar

StartChar: space_uni0326
Encoding: 292 -1 144
Width: 351
VWidth: 0
Flags: W
TeX: 0 -250
HStem: -232 179
VStem: 36 158
LayerCount: 2
Fore
SplineSet
36 -232 m 1
 120 -53 l 1
 194 -53 l 1
 107 -232 l 1
 36 -232 l 1
EndSplineSet
Validated: 1
EndChar

StartChar: Hbar
Encoding: 293 294 145
Width: 683
VWidth: 0
Flags: W
TeX: 739 0
HStem: 0 21G<46 123.689 503 580.717> 347 67<197 567> 565 64<99 151 237 608 694 749> 719 20G<179.364 257 636.364 714>
LayerCount: 2
Fore
SplineSet
46 0 m 1
 151 565 l 1
 87 565 l 1
 99 629 l 1
 163 629 l 1
 183 739 l 1
 257 739 l 1
 237 629 l 1
 620 629 l 1
 640 739 l 1
 714 739 l 1
 694 629 l 1
 761 629 l 1
 749 565 l 1
 682 565 l 1
 577 0 l 1
 503 0 l 1
 567 347 l 1
 184 347 l 1
 120 0 l 1
 46 0 l 1
197 414 m 1
 580 414 l 1
 608 565 l 1
 225 565 l 1
 197 414 l 1
EndSplineSet
Validated: 1
AlternateSubs2: "'aalt' Access All Alternates lookup 0 subtable" hbar.sc
AlternateSubs2: "'aalt' Access All Alternates in Latin lookup 0 subtable" hbar.sc
Substitution2: "'c2sc' Capitals to Small Capitals in Latin lookup 13 subtable" hbar.sc
Position2: "'cpsp' Capital Spacing in Latin lookup 13 subtable" dx=7 dy=0 dh=14 dv=0
EndChar

StartChar: hbar
Encoding: 294 295 146
Width: 610
VWidth: 0
Flags: W
TeX: 739 0
HStem: 0 21G<32 109.733 442 519.673> 492 68<278.248 446.061> 615 64<105 146 233 320> 719 20G<166.333 244>
LayerCount: 2
Fore
SplineSet
32 0 m 1
 146 615 l 1
 93 615 l 1
 105 679 l 1
 159 679 l 1
 170 739 l 1
 244 739 l 1
 233 679 l 1
 332 679 l 1
 320 615 l 1
 221 615 l 1
 194 476 l 1
 241 530 309 560 384 560 c 0
 463 560 526 529 557 475 c 0
 581 432 586 376 570 294 c 2
 516 0 l 1
 442 0 l 1
 496 294 l 2
 508 358 505 400 485 432 c 0
 463 469 417 492 364 492 c 0
 308 492 253 467 215 424 c 0
 187 394 173 359 162 300 c 2
 106 0 l 1
 32 0 l 1
EndSplineSet
Validated: 33
AlternateSubs2: "'aalt' Access All Alternates lookup 0 subtable" hbar.sc
AlternateSubs2: "'aalt' Access All Alternates in Latin lookup 0 subtable" hbar.sc
Substitution2: "'smcp' Lowercase to Small Capitals in Latin lookup 2 subtable" hbar.sc
EndChar

StartChar: longs
Encoding: 295 383 147
Width: 314
VWidth: 0
Flags: W
TeX: 739 0
HStem: 0 21G<71 148.693> 480 67<87 160> 672 67<303.721 405>
LayerCount: 2
Fore
SplineSet
71 0 m 1
 160 480 l 1
 75 480 l 1
 87 547 l 1
 172 547 l 1
 187 620 207 656 249 689 c 0
 290 721 345 739 400 739 c 2
 406 739 l 1
 417 739 l 1
 405 672 l 1
 394 672 l 1
 390 672 l 2
 305 672 262 635 246 547 c 2
 145 0 l 1
 71 0 l 1
EndSplineSet
Validated: 1
EndChar

StartChar: Ohorn
Encoding: 296 416 148
Width: 869
VWidth: 0
GlyphClass: 2
Flags: W
TeX: 739 0
HStem: -13 68<308.388 524.639> 684 68<414.604 636.872> 719 20G<833.5 898>
VStem: 76 77<211.955 423.9> 793 77<317.977 529.587> 836 62<674.226 739>
AnchorPoint: "bot_acc" 386 -123 basechar 0
AnchorPoint: "dotbelow" 386 -123 basechar 0
AnchorPoint: "ogon_acc" 386 -123 basechar 0
AnchorPoint: "top_accu" 567 852 basechar 0
AnchorPoint: "dotabove" 567 852 basechar 0
LayerCount: 2
Fore
SplineSet
76 302 m 0xb8
 76 536 303 752 548 752 c 0xd8
 642 752 731 712 792 646 c 1
 814 667 831 696 836 739 c 1
 898 739 l 1xb4
 891 677 862 633 826 601 c 1
 855 553 870 500 870 436 c 0
 870 203 643 -13 398 -13 c 0
 295 -13 193 36 136 113 c 0
 98 164 76 234 76 302 c 0xb8
153 316 m 0
 153 170 266 55 410 55 c 0
 608 55 793 232 793 422 c 0
 793 574 683 684 530 684 c 0
 339 684 153 503 153 316 c 0
EndSplineSet
Validated: 1
AlternateSubs2: "'aalt' Access All Alternates lookup 0 subtable" ohorn.sc
AlternateSubs2: "'aalt' Access All Alternates in Latin lookup 0 subtable" ohorn.sc
Substitution2: "'c2sc' Capitals to Small Capitals in Latin lookup 13 subtable" ohorn.sc
Position2: "'cpsp' Capital Spacing in Latin lookup 13 subtable" dx=7 dy=0 dh=14 dv=0
EndChar

StartChar: Uhorn
Encoding: 297 431 149
Width: 729
VWidth: 0
GlyphClass: 2
Flags: W
TeX: 739 0
HStem: -13 68<226.141 399.772> 719 20G<181.312 259 608.312 686 734.5 800>
VStem: 89 76<114.424 335.625> 185 74<701.035 739> 738 62<674.205 739>
AnchorPoint: "bot_acc" 276 -123 basechar 0
AnchorPoint: "dotbelow" 276 -123 basechar 0
AnchorPoint: "ogon_acc" 276 -123 basechar 0
AnchorPoint: "top_accu" 456 852 basechar 0
AnchorPoint: "dotabove" 456 852 basechar 0
LayerCount: 2
Fore
SplineSet
89 173 m 0
 89 203 93 239 100 278 c 2
 185 739 l 1
 259 739 l 1
 174 278 l 2
 168 246 165 215 165 188 c 0
 165 109 223 55 309 55 c 0
 367 55 426 82 464 125 c 0
 494 159 514 210 527 278 c 2
 612 739 l 1
 686 739 l 1
 665 624 l 1
 698 645 731 679 738 739 c 1
 800 739 l 1
 789 636 715 581 651 552 c 1
 601 278 l 2
 584 184 558 127 512 78 c 0
 457 20 379 -13 296 -13 c 0
 174 -13 89 63 89 173 c 0
EndSplineSet
Validated: 1
AlternateSubs2: "'aalt' Access All Alternates lookup 0 subtable" uhorn.sc
AlternateSubs2: "'aalt' Access All Alternates in Latin lookup 0 subtable" uhorn.sc
Substitution2: "'c2sc' Capitals to Small Capitals in Latin lookup 13 subtable" uhorn.sc
Position2: "'cpsp' Capital Spacing in Latin lookup 13 subtable" dx=7 dy=0 dh=14 dv=0
EndChar

StartChar: ohorn
Encoding: 298 417 150
Width: 698
VWidth: 0
GlyphClass: 2
Flags: W
TeX: 547 0
HStem: -13 68<220.424 409.865> 492 68<291.871 477.703> 527 20G<647.5 712>
VStem: 57 77<141.202 330.298> 562 77<217.91 404.629> 650 62<482.264 547>
AnchorPoint: "bot_acc" 278 -123 basechar 0
AnchorPoint: "dotbelow" 278 -123 basechar 0
AnchorPoint: "ogon_acc" 278 -123 basechar 0
AnchorPoint: "top_accl" 425 670 basechar 0
AnchorPoint: "dotabove" 425 670 basechar 0
LayerCount: 2
Fore
SplineSet
57 215 m 0xbc
 57 298 92 384 150 447 c 0
 219 521 307 560 405 560 c 0xdc
 496 560 568 520 607 455 c 1
 628 476 645 505 650 547 c 1
 712 547 l 1
 705 480 671 432 630 400 c 1
 635 379 639 356 639 332 c 0
 639 246 604 159 543 95 c 0
 475 23 395 -13 303 -13 c 0
 158 -13 57 80 57 215 c 0xbc
134 228 m 0
 134 125 206 55 313 55 c 0
 452 55 562 174 562 325 c 0
 562 422 490 492 392 492 c 0
 252 492 134 371 134 228 c 0
EndSplineSet
Validated: 1
AlternateSubs2: "'aalt' Access All Alternates lookup 0 subtable" ohorn.sc
AlternateSubs2: "'aalt' Access All Alternates in Latin lookup 0 subtable" ohorn.sc
Substitution2: "'smcp' Lowercase to Small Capitals in Latin lookup 2 subtable" ohorn.sc
EndChar

StartChar: uhorn
Encoding: 299 432 151
Width: 698
VWidth: 0
GlyphClass: 2
Flags: W
TeX: 547 0
HStem: -13 68<197.918 367.666> 0 21G<440 517.722> 527 20G<129.271 207 538.228 616 664.5 730>
VStem: 69 77<101.634 321.141> 133 74<509.455 547> 668 62<483.546 547>
AnchorPoint: "bot_acc" 250 -123 basechar 0
AnchorPoint: "dotbelow" 250 -123 basechar 0
AnchorPoint: "ogon_acc" 422 -123 basechar 0
AnchorPoint: "top_accl" 397 670 basechar 0
AnchorPoint: "dotabove" 397 670 basechar 0
LayerCount: 2
Fore
SplineSet
69 155 m 0xb4
 69 183 73 224 78 252 c 2
 133 547 l 1
 207 547 l 1xac
 152 252 l 2
 150 239 146 200 146 185 c 0
 146 156 155 122 167 103 c 0
 186 74 231 55 280 55 c 0xb4
 336 55 389 79 429 123 c 0
 460 157 475 194 489 266 c 2
 542 547 l 1
 616 547 l 1
 594 432 l 1
 628 453 661 486 668 547 c 1
 730 547 l 1
 719 444 644 389 581 360 c 1
 514 0 l 1
 440 0 l 1x74
 456 85 l 1
 403 15 347 -13 260 -13 c 0
 144 -13 69 53 69 155 c 0xb4
EndSplineSet
Validated: 1
AlternateSubs2: "'aalt' Access All Alternates lookup 0 subtable" uhorn.sc
AlternateSubs2: "'aalt' Access All Alternates in Latin lookup 0 subtable" uhorn.sc
Substitution2: "'smcp' Lowercase to Small Capitals in Latin lookup 2 subtable" uhorn.sc
EndChar

StartChar: space_uni031B
Encoding: 300 -1 152
Width: 375
VWidth: 0
Flags: W
TeX: 547 0
HStem: 360 187
VStem: 384 62<483.546 547>
LayerCount: 2
Fore
SplineSet
290 396 m 1
 310 432 l 1
 344 453 377 486 384 547 c 1
 446 547 l 1
 435 444 360 389 297 360 c 1
 290 396 l 1
EndSplineSet
Validated: 1
EndChar

StartChar: aogonek
Encoding: 185 261 153
Width: 683
VWidth: 0
GlyphClass: 3
Flags: W
TeX: 547 -250
HStem: -250 74<495.74 560> -13 68<226.53 413.235> 492 68<300.211 484.27> 527 20G<613.289 691>
VStem: 58 77<144.916 332.406> 412 76<-171.977 -76.1218>
AnchorPoint: "bot_acc" 454 -360 basechar 0
AnchorPoint: "dotbelow" 454 -360 basechar 0
AnchorPoint: "ogon_acc" 454 -360 basechar 0
AnchorPoint: "top_accl" 424 670 basechar 0
AnchorPoint: "dotabove" 424 670 basechar 0
LayerCount: 2
Fore
SplineSet
58 216 m 0xdc
 58 401 218 560 404 560 c 0xec
 492 560 557 532 599 450 c 1
 617 547 l 1
 691 547 l 1
 590 0 l 1
 527 -31 488 -81 488 -116 c 0
 488 -141 495 -176 524 -176 c 0
 543 -176 558 -175 574 -172 c 1
 560 -246 l 1
 540 -249 516 -250 500 -250 c 0
 432 -250 412 -193 412 -147 c 0
 412 -88 450 -42 516 0 c 1
 534 96 l 1
 453 14 396 -13 303 -13 c 0
 156 -13 58 79 58 216 c 0xdc
135 235 m 0
 135 128 209 55 318 55 c 0
 451 55 571 181 571 319 c 0
 571 419 497 492 397 492 c 0
 258 492 135 371 135 235 c 0
EndSplineSet
Validated: 1
AlternateSubs2: "'aalt' Access All Alternates lookup 0 subtable" aogonek.sc
AlternateSubs2: "'aalt' Access All Alternates in Latin lookup 0 subtable" aogonek.sc
Ligature2: "ccmp_lig subtable" a ogonekcomb
Substitution2: "'smcp' Lowercase to Small Capitals in Latin lookup 2 subtable" aogonek.sc
EndChar

StartChar: Aogonek
Encoding: 165 260 154
Width: 740
VWidth: 0
GlyphClass: 3
Flags: W
TeX: 739 -250
HStem: -250 74<604.74 669> 0 21G<-19 71.3695> 249 67<254 541> 719 20G<422.713 522.899>
VStem: 521 76<-171.977 -75.4597>
AnchorPoint: "bot_acc" 563 -360 basechar 0
AnchorPoint: "dotbelow" 563 -360 basechar 0
AnchorPoint: "ogon_acc" 563 -360 basechar 0
AnchorPoint: "top_accu" 498 852 basechar 0
AnchorPoint: "dotabove" 498 852 basechar 0
LayerCount: 2
Fore
SplineSet
-19 0 m 1
 435 739 l 1
 518 739 l 1
 699 0 l 1
 636 -31 597 -81 597 -116 c 0
 597 -141 604 -176 633 -176 c 0
 652 -176 667 -175 683 -172 c 1
 669 -246 l 1
 649 -249 625 -250 609 -250 c 0
 541 -250 521 -193 521 -147 c 0
 521 -117 530 -91 548 -67 c 0
 567 -41 591 -18 618 0 c 1
 557 249 l 1
 213 249 l 1
 59 0 l 1
 -19 0 l 1
254 316 m 1
 541 316 l 1
 461 655 l 1
 254 316 l 1
EndSplineSet
Validated: 1
AlternateSubs2: "'aalt' Access All Alternates lookup 0 subtable" aogonek.sc
AlternateSubs2: "'aalt' Access All Alternates in Latin lookup 0 subtable" aogonek.sc
Ligature2: "ccmp_lig subtable" A ogonekcomb
Substitution2: "'c2sc' Capitals to Small Capitals in Latin lookup 13 subtable" aogonek.sc
Position2: "'cpsp' Capital Spacing in Latin lookup 13 subtable" dx=7 dy=0 dh=14 dv=0
EndChar

StartChar: Eogonek
Encoding: 202 280 155
Width: 536
VWidth: 0
GlyphClass: 3
Flags: W
TeX: 739 -250
HStem: -250 74<354.697 421> 0 67<132 376> 340 67<195 502> 672 67<245 575>
VStem: 272 76<-171.977 -76.1218>
AnchorPoint: "bot_acc" 314 -360 basechar 0
AnchorPoint: "dotbelow" 314 -360 basechar 0
AnchorPoint: "ogon_acc" 314 -360 basechar 0
AnchorPoint: "top_accu" 406 852 basechar 0
AnchorPoint: "dotabove" 406 852 basechar 0
LayerCount: 2
Fore
SplineSet
46 0 m 1
 183 739 l 1
 587 739 l 1
 575 672 l 1
 245 672 l 1
 195 407 l 1
 514 407 l 1
 502 340 l 1
 183 340 l 1
 132 67 l 1
 462 67 l 1
 450 0 l 1
 387 -31 348 -81 348 -116 c 0
 348 -141 355 -176 384 -176 c 0
 403 -176 418 -175 434 -172 c 1
 421 -246 l 1
 400 -249 377 -250 361 -250 c 0
 293 -250 272 -193 272 -147 c 0
 272 -88 310 -42 376 0 c 1
 46 0 l 1
EndSplineSet
Validated: 1
AlternateSubs2: "'aalt' Access All Alternates lookup 0 subtable" eogonek.sc
AlternateSubs2: "'aalt' Access All Alternates in Latin lookup 0 subtable" eogonek.sc
Ligature2: "ccmp_lig subtable" E ogonekcomb
Substitution2: "'c2sc' Capitals to Small Capitals in Latin lookup 13 subtable" eogonek.sc
Position2: "'cpsp' Capital Spacing in Latin lookup 13 subtable" dx=7 dy=0 dh=14 dv=0
EndChar

StartChar: eogonek
Encoding: 234 281 156
Width: 650
VWidth: 0
GlyphClass: 3
Flags: W
TeX: 547 -250
HStem: -250 74<305.74 370> -13 68<222.626 307> 249 67<146 565> 492 68<291.348 476.795>
VStem: 58 71<142.251 246.803> 222 76<-171.977 -76.4418> 565 70<316.696 400.879>
AnchorPoint: "bot_acc" 264 -360 basechar 0
AnchorPoint: "dotbelow" 264 -360 basechar 0
AnchorPoint: "ogon_acc" 264 -360 basechar 0
AnchorPoint: "top_accl" 418 670 basechar 0
AnchorPoint: "dotabove" 418 670 basechar 0
LayerCount: 2
Fore
SplineSet
58 220 m 0
 58 400 218 560 398 560 c 0
 537 560 635 466 635 332 c 0
 635 308 633 289 626 249 c 1
 131 249 l 1
 130 237 129 228 129 221 c 0
 129 128 208 55 308 55 c 0
 390 55 479 107 522 180 c 1
 599 180 l 1
 564 115 512 63 452 30 c 0
 383 -10 298 -57 298 -116 c 0
 298 -141 305 -176 334 -176 c 0
 353 -176 368 -175 384 -172 c 1
 370 -246 l 1
 350 -249 326 -250 310 -250 c 0
 242 -250 222 -193 222 -147 c 0
 222 -94 253 -51 307 -13 c 1
 295 -13 l 2
 159 -13 58 86 58 220 c 0
146 316 m 1
 565 316 l 1
 560 424 491 492 385 492 c 0
 281 492 182 419 146 316 c 1
EndSplineSet
Validated: 1
AlternateSubs2: "'aalt' Access All Alternates lookup 0 subtable" eogonek.sc
AlternateSubs2: "'aalt' Access All Alternates in Latin lookup 0 subtable" eogonek.sc
Ligature2: "ccmp_lig subtable" e ogonekcomb
Substitution2: "'smcp' Lowercase to Small Capitals in Latin lookup 2 subtable" eogonek.sc
EndChar

StartChar: Iogonek
Encoding: 222 302 157
Width: 226
VWidth: 0
GlyphClass: 3
Flags: W
TeX: 739 -250
HStem: -250 74<25.7396 90> 719 20G<179.292 257>
VStem: -58 76<-171.977 -75.5805>
AnchorPoint: "bot_acc" -16 -360 basechar 0
AnchorPoint: "dotbelow" -16 -360 basechar 0
AnchorPoint: "ogon_acc" -16 -360 basechar 0
AnchorPoint: "top_accu" 241 852 basechar 0
AnchorPoint: "dotabove" 241 852 basechar 0
LayerCount: 2
Fore
SplineSet
-58 -147 m 0
 -58 -103 -37 -66 2 -32 c 0
 16 -20 31 -10 46 0 c 1
 183 739 l 1
 257 739 l 1
 120 0 l 1
 57 -31 18 -81 18 -116 c 0
 18 -141 25 -176 54 -176 c 0
 73 -176 88 -175 104 -172 c 1
 90 -246 l 1
 70 -249 46 -250 30 -250 c 0
 -38 -250 -58 -193 -58 -147 c 0
EndSplineSet
Validated: 1
AlternateSubs2: "'aalt' Access All Alternates lookup 0 subtable" iogonek.sc
AlternateSubs2: "'aalt' Access All Alternates in Latin lookup 0 subtable" iogonek.sc
Ligature2: "ccmp_lig subtable" I ogonekcomb
Substitution2: "'c2sc' Capitals to Small Capitals in Latin lookup 13 subtable" iogonek.sc
Position2: "'cpsp' Capital Spacing in Latin lookup 13 subtable" dx=7 dy=0 dh=14 dv=0
EndChar

StartChar: dotlessiogonek
Encoding: 301 -1 158
Width: 200
VWidth: 0
GlyphClass: 3
Flags: W
TeX: 547 -195
HStem: -250 74<12.7396 77> 527 20G<130.307 208>
VStem: -71 76<-171.977 -76.1218>
AnchorPoint: "bot_acc" -29 -360 basechar 0
AnchorPoint: "dotbelow" -29 -360 basechar 0
AnchorPoint: "ogon_acc" -29 -360 basechar 0
AnchorPoint: "top_accl" 194 670 basechar 0
AnchorPoint: "dotabove" 194 670 basechar 0
LayerCount: 2
Fore
SplineSet
-71 -147 m 0
 -71 -88 -33 -42 33 0 c 1
 134 547 l 1
 208 547 l 1
 107 0 l 1
 44 -31 5 -81 5 -116 c 0
 5 -141 12 -176 41 -176 c 0
 60 -176 75 -175 91 -172 c 1
 77 -246 l 1
 57 -249 33 -250 17 -250 c 0
 -51 -250 -71 -193 -71 -147 c 0
EndSplineSet
Validated: 1
Ligature2: "ccmp_lig subtable" dotlessi ogonekcomb
EndChar

StartChar: Oogonek
Encoding: 302 490 159
Width: 869
VWidth: 0
GlyphClass: 3
Flags: W
TeX: 739 -250
HStem: -250 74<408.74 473> -13 68<309.437 410> 684 68<414.604 635.041>
VStem: 76 77<213.275 423.9> 325 76<-171.977 -75.0321> 793 77<317.014 526.815>
AnchorPoint: "bot_acc" 367 -360 basechar 0
AnchorPoint: "dotbelow" 367 -360 basechar 0
AnchorPoint: "ogon_acc" 367 -360 basechar 0
AnchorPoint: "top_accu" 562 852 basechar 0
AnchorPoint: "dotabove" 562 852 basechar 0
LayerCount: 2
Fore
SplineSet
76 302 m 0
 76 536 303 752 548 752 c 0
 721 752 870 622 870 436 c 0
 870 250 725 74 541 11 c 0
 472 -12 401 -54 401 -116 c 0
 401 -141 408 -176 437 -176 c 0
 456 -176 471 -175 487 -172 c 1
 473 -246 l 1
 453 -249 429 -250 413 -250 c 0
 345 -250 325 -193 325 -147 c 0
 325 -94 355 -51 410 -13 c 1
 398 -13 l 2
 219 -13 76 120 76 302 c 0
153 316 m 0
 153 170 266 55 410 55 c 0
 608 55 793 232 793 422 c 0
 793 574 683 684 530 684 c 0
 339 684 153 503 153 316 c 0
EndSplineSet
Validated: 1
AlternateSubs2: "'aalt' Access All Alternates lookup 0 subtable" oogonek.sc
AlternateSubs2: "'aalt' Access All Alternates in Latin lookup 0 subtable" oogonek.sc
Ligature2: "ccmp_lig subtable" O ogonekcomb
Substitution2: "'c2sc' Capitals to Small Capitals in Latin lookup 13 subtable" oogonek.sc
Position2: "'cpsp' Capital Spacing in Latin lookup 13 subtable" dx=7 dy=0 dh=14 dv=0
EndChar

StartChar: oogonek
Encoding: 303 491 160
Width: 655
VWidth: 0
GlyphClass: 3
Flags: W
TeX: 547 -250
HStem: -250 74<311.74 377> -13 68<220.565 313> 492 68<294.978 478.328>
VStem: 57 77<141.202 327.511> 228 76<-171.977 -75.8015> 562 77<217.841 409.635>
AnchorPoint: "bot_acc" 270 -360 basechar 0
AnchorPoint: "dotbelow" 270 -360 basechar 0
AnchorPoint: "ogon_acc" 270 -360 basechar 0
AnchorPoint: "top_accl" 422 670 basechar 0
AnchorPoint: "dotabove" 422 670 basechar 0
LayerCount: 2
Fore
SplineSet
57 215 m 0
 57 405 223 560 405 560 c 0
 544 560 639 468 639 332 c 0
 639 196 555 77 443 21 c 0
 377 -12 304 -53 304 -116 c 0
 304 -141 311 -176 340 -176 c 0
 359 -176 374 -175 390 -172 c 1
 377 -246 l 1
 356 -249 332 -250 316 -250 c 0
 248 -250 228 -193 228 -147 c 0
 228 -94 259 -51 313 -13 c 1
 303 -13 l 2
 158 -13 57 80 57 215 c 0
134 228 m 0
 134 125 206 55 313 55 c 0
 452 55 562 174 562 325 c 0
 562 422 490 492 392 492 c 0
 252 492 134 371 134 228 c 0
EndSplineSet
Validated: 1
AlternateSubs2: "'aalt' Access All Alternates lookup 0 subtable" oogonek.sc
AlternateSubs2: "'aalt' Access All Alternates in Latin lookup 0 subtable" oogonek.sc
Ligature2: "ccmp_lig subtable" o ogonekcomb
Substitution2: "'smcp' Lowercase to Small Capitals in Latin lookup 2 subtable" oogonek.sc
EndChar

StartChar: Uogonek
Encoding: 168 370 161
Width: 655
VWidth: 0
GlyphClass: 3
Flags: W
TeX: 739 -250
HStem: -250 74<305.478 370> -13 68<226.638 306> 719 20G<181.312 259 608.312 686>
VStem: 89 76<114.424 335.625> 185 74<701.035 739> 221 76<-171.697 -75.8914>
AnchorPoint: "bot_acc" 264 -360 basechar 0
AnchorPoint: "dotbelow" 264 -360 basechar 0
AnchorPoint: "ogon_acc" 264 -360 basechar 0
AnchorPoint: "top_accu" 457 852 basechar 0
AnchorPoint: "dotabove" 457 852 basechar 0
LayerCount: 2
Fore
SplineSet
89 173 m 0xf4
 89 203 93 239 100 278 c 2
 185 739 l 1
 259 739 l 1xf8
 174 278 l 2
 168 246 165 215 165 188 c 0
 165 109 223 55 309 55 c 0
 417 55 498 123 527 278 c 2
 612 739 l 1
 686 739 l 1
 601 278 l 2
 575 139 510 52 421 12 c 0
 360 -15 297 -58 297 -116 c 0
 297 -141 305 -176 334 -176 c 0
 353 -176 367 -175 384 -172 c 1
 370 -246 l 1
 350 -249 326 -250 310 -250 c 0
 242 -250 221 -193 221 -147 c 0
 221 -94 252 -51 306 -13 c 1
 296 -13 l 2
 174 -13 89 63 89 173 c 0xf4
EndSplineSet
Validated: 1
AlternateSubs2: "'aalt' Access All Alternates lookup 0 subtable" uogonek.sc
AlternateSubs2: "'aalt' Access All Alternates in Latin lookup 0 subtable" uogonek.sc
Ligature2: "ccmp_lig subtable" U ogonekcomb
Substitution2: "'c2sc' Capitals to Small Capitals in Latin lookup 13 subtable" uogonek.sc
Position2: "'cpsp' Capital Spacing in Latin lookup 13 subtable" dx=7 dy=0 dh=14 dv=0
EndChar

StartChar: uogonek
Encoding: 184 371 162
Width: 608
VWidth: 0
GlyphClass: 3
Flags: W
TeX: 547 -250
HStem: -250 74<420.478 485> -13 68<195.071 368.222> 527 20G<129.271 207 538.228 616>
VStem: 69 77<104.507 321.141> 133 74<509.455 547> 336 76<-171.697 -76.1218>
AnchorPoint: "bot_acc" 379 -360 basechar 0
AnchorPoint: "dotbelow" 379 -360 basechar 0
AnchorPoint: "ogon_acc" 379 -360 basechar 0
AnchorPoint: "top_accl" 397 670 basechar 0
AnchorPoint: "dotabove" 397 670 basechar 0
LayerCount: 2
Fore
SplineSet
69 155 m 0xf4
 69 183 73 224 78 252 c 2
 133 547 l 1
 207 547 l 1xec
 152 252 l 2
 149 239 146 200 146 185 c 0
 146 104 190 55 280 55 c 0
 375 55 460 111 489 266 c 2
 542 547 l 1
 616 547 l 1
 514 0 l 1
 451 -31 412 -81 412 -116 c 0
 412 -141 420 -176 449 -176 c 0
 468 -176 482 -175 499 -172 c 1
 485 -246 l 1
 465 -249 441 -250 425 -250 c 0
 357 -250 336 -193 336 -147 c 0
 336 -88 375 -42 441 0 c 1
 440 0 456 85 456 85 c 1
 403 15 347 -13 260 -13 c 0
 144 -13 69 53 69 155 c 0xf4
EndSplineSet
Validated: 33
AlternateSubs2: "'aalt' Access All Alternates lookup 0 subtable" uogonek.sc
AlternateSubs2: "'aalt' Access All Alternates in Latin lookup 0 subtable" uogonek.sc
Ligature2: "ccmp_lig subtable" u ogonekcomb
Substitution2: "'smcp' Lowercase to Small Capitals in Latin lookup 2 subtable" uogonek.sc
EndChar

StartChar: Ccedilla
Encoding: 199 199 163
Width: 813
VWidth: 0
GlyphClass: 3
Flags: W
TeX: 739 -250
HStem: -249 56<354.444 434.428> 547 21G<734.5 839> 684 68<413.592 646.472>
VStem: 76 77<204.31 426.25> 442 56<-185.428 -105.029>
AnchorPoint: "bot_acc" 348 -359 basechar 0
AnchorPoint: "dotbelow" 348 -359 basechar 0
AnchorPoint: "ogon_acc" 348 -359 basechar 0
AnchorPoint: "top_accu" 536 852 basechar 0
AnchorPoint: "dotabove" 536 852 basechar 0
LayerCount: 2
Fore
SplineSet
76 290 m 0
 76 540 289 752 539 752 c 0
 691 752 813 669 839 547 c 1
 757 547 l 1
 712 648 633 684 529 684 c 0
 333 684 153 509 153 310 c 0
 153 162 263 55 414 55 c 0
 518 55 609 100 695 194 c 1
 777 194 l 1
 694 71 568 -3 430 -12 c 1
 408 -42 l 1
 459 -49 498 -92 498 -145 c 0
 498 -202 451 -249 394 -249 c 0
 342 -249 298 -210 291 -160 c 1
 348 -160 l 1
 355 -179 373 -193 394 -193 c 0
 421 -193 442 -172 442 -145 c 0
 442 -119 421 -97 394 -97 c 0
 377 -97 362 -106 353 -119 c 1
 314 -94 l 1
 375 -12 l 1
 197 -1 76 119 76 290 c 0
EndSplineSet
Validated: 1
AlternateSubs2: "'aalt' Access All Alternates lookup 0 subtable" ccedilla.sc
AlternateSubs2: "'aalt' Access All Alternates in Latin lookup 0 subtable" ccedilla.sc
Ligature2: "ccmp_lig subtable" C cedillacmb
Substitution2: "'c2sc' Capitals to Small Capitals in Latin lookup 13 subtable" ccedilla.sc
Position2: "'cpsp' Capital Spacing in Latin lookup 13 subtable" dx=7 dy=0 dh=14 dv=0
EndChar

StartChar: ccedilla
Encoding: 231 231 164
Width: 647
VWidth: 0
GlyphClass: 3
Flags: W
TeX: 547 -250
HStem: -249 56<264.444 344.428> 492 68<298.172 486.049>
VStem: 58 77<146.006 329.158> 352 56<-185.428 -105.029>
AnchorPoint: "bot_acc" 258 -359 basechar 0
AnchorPoint: "dotbelow" 258 -359 basechar 0
AnchorPoint: "ogon_acc" 258 -359 basechar 0
AnchorPoint: "top_accl" 420 670 basechar 0
AnchorPoint: "dotabove" 420 670 basechar 0
LayerCount: 2
Fore
SplineSet
58 222 m 0
 58 400 224 560 408 560 c 0
 533 560 625 492 649 381 c 1
 566 381 l 1
 539 451 477 492 396 492 c 0
 258 492 135 370 135 233 c 0
 135 129 211 55 318 55 c 0
 399 55 441 76 526 161 c 1
 609 161 l 1
 521 42 437 -4 340 -12 c 1
 318 -42 l 1
 369 -49 408 -92 408 -145 c 0
 408 -202 361 -249 304 -249 c 0
 252 -249 208 -210 201 -160 c 1
 258 -160 l 1
 265 -179 283 -193 304 -193 c 0
 331 -193 352 -172 352 -145 c 0
 352 -119 331 -97 304 -97 c 0
 287 -97 272 -106 263 -119 c 1
 224 -94 l 1
 285 -12 l 1
 149 -3 58 89 58 222 c 0
EndSplineSet
Validated: 1
AlternateSubs2: "'aalt' Access All Alternates lookup 0 subtable" ccedilla.sc
AlternateSubs2: "'aalt' Access All Alternates in Latin lookup 0 subtable" ccedilla.sc
Ligature2: "ccmp_lig subtable" c cedillacmb
Substitution2: "'smcp' Lowercase to Small Capitals in Latin lookup 2 subtable" ccedilla.sc
EndChar

StartChar: Scedilla
Encoding: 304 350 165
Width: 498
VWidth: 0
GlyphClass: 3
Flags: W
TeX: 739 -250
HStem: -249 56<174.444 254.428> 552 21G<454 532> 684 68<270.927 416.57>
VStem: 26 81<105.722 207> 115 77<470.437 605.43> 262 56<-185.428 -105.029> 411 77<151.175 295.895> 454 80<552 644.339>
AnchorPoint: "bot_acc" 168 -359 basechar 0
AnchorPoint: "dotbelow" 168 -359 basechar 0
AnchorPoint: "ogon_acc" 168 -359 basechar 0
AnchorPoint: "top_accu" 376 852 basechar 0
AnchorPoint: "dotabove" 376 852 basechar 0
LayerCount: 2
Fore
SplineSet
26 165 m 0xfe
 26 177 27 191 28 207 c 1
 107 207 l 1
 107 99 150 55 234 55 c 0
 330 55 411 136 411 232 c 0xfe
 411 293 378 323 272 356 c 0
 134 399 115 444 115 520 c 0
 115 636 223 752 361 752 c 0
 465 752 534 688 534 590 c 0
 534 580 533 570 531 552 c 1
 454 552 l 1xfd
 454 656 407 684 348 684 c 0
 258 684 192 605 192 531 c 0
 192 511 202 481 214 469 c 0
 228 454 243 447 315 423 c 0
 399 395 434 375 456 347 c 0
 477 320 488 286 488 246 c 0
 488 121 380 6 251 -11 c 1
 228 -42 l 1
 279 -49 318 -92 318 -145 c 0
 318 -202 271 -249 214 -249 c 0
 162 -249 118 -210 111 -160 c 1
 168 -160 l 1
 175 -179 193 -193 214 -193 c 0
 241 -193 262 -172 262 -145 c 0
 262 -119 241 -97 214 -97 c 0
 197 -97 182 -106 173 -119 c 1
 134 -94 l 1
 196 -12 l 1
 94 -3 26 67 26 165 c 0xfe
EndSplineSet
Validated: 1
AlternateSubs2: "'aalt' Access All Alternates lookup 0 subtable" scedilla.sc
AlternateSubs2: "'aalt' Access All Alternates in Latin lookup 0 subtable" scedilla.sc uni0218
Ligature2: "ccmp_lig subtable" S cedillacmb
Substitution2: "'c2sc' Capitals to Small Capitals in Latin lookup 13 subtable" scedilla.sc
Position2: "'cpsp' Capital Spacing in Latin lookup 13 subtable" dx=7 dy=0 dh=14 dv=0
Substitution2: "locl_ROM subtable" uni0218
EndChar

StartChar: scedilla
Encoding: 305 351 166
Width: 388
VWidth: 0
GlyphClass: 3
Flags: W
TeX: 547 -250
HStem: -249 56<119.444 199.428> 492 68<196.664 304.54>
VStem: 13 76<76.8719 161> 80 77<352.612 454.114> 207 56<-185.428 -105.029> 285 77<102.903 218.754> 319 76<412 478.141>
AnchorPoint: "bot_acc" 113 -359 basechar 0
AnchorPoint: "dotbelow" 113 -359 basechar 0
AnchorPoint: "ogon_acc" 113 -359 basechar 0
AnchorPoint: "top_accl" 282 670 basechar 0
AnchorPoint: "dotabove" 282 670 basechar 0
LayerCount: 2
Fore
SplineSet
13 117 m 0xec
 13 127 13 137 16 161 c 1
 89 161 l 1
 89 74 120 55 172 55 c 0
 233 55 285 107 285 167 c 0xec
 285 209 271 223 197 255 c 0
 137 281 121 290 106 308 c 0
 91 325 80 355 80 380 c 0
 80 477 171 560 268 560 c 0
 341 560 395 510 395 442 c 0
 395 434 395 423 394 412 c 1
 319 412 l 1
 319 467 299 492 254 492 c 0
 204 492 157 447 157 400 c 0xda
 157 374 171 354 195 341 c 0
 208 334 225 326 290 297 c 0
 341 274 362 240 362 189 c 0
 362 90 287 9 197 -9 c 1
 173 -42 l 1
 224 -49 263 -92 263 -145 c 0
 263 -202 216 -249 159 -249 c 0
 107 -249 63 -210 56 -160 c 1
 113 -160 l 1
 120 -179 138 -193 159 -193 c 0
 186 -193 207 -172 207 -145 c 0
 207 -119 186 -97 159 -97 c 0
 142 -97 127 -106 118 -119 c 1
 79 -94 l 1
 140 -12 l 1
 61 -4 13 52 13 117 c 0xec
EndSplineSet
Validated: 1
AlternateSubs2: "'aalt' Access All Alternates lookup 0 subtable" scedilla.sc
AlternateSubs2: "'aalt' Access All Alternates in Latin lookup 0 subtable" scedilla.sc uni0219
Ligature2: "ccmp_lig subtable" s cedillacmb
Substitution2: "'smcp' Lowercase to Small Capitals in Latin lookup 2 subtable" scedilla.sc
Substitution2: "locl_ROM subtable" uni0219
EndChar

StartChar: Tcedilla
Encoding: 306 354 167
Width: 426
VWidth: 0
GlyphClass: 3
Flags: W
TeX: 739 -250
HStem: -249 56<124.444 204.428> 672 67<114 271 345 514>
VStem: 212 56<-185.428 -105.029>
AnchorPoint: "bot_acc" 118 -359 basechar 0
AnchorPoint: "dotbelow" 118 -359 basechar 0
AnchorPoint: "ogon_acc" 118 -359 basechar 0
AnchorPoint: "top_accu" 341 852 basechar 0
AnchorPoint: "dotabove" 341 852 basechar 0
LayerCount: 2
Fore
SplineSet
61 -160 m 1
 118 -160 l 1
 125 -179 143 -193 164 -193 c 0
 191 -193 212 -172 212 -145 c 0
 212 -119 191 -97 164 -97 c 0
 147 -97 132 -106 123 -119 c 1
 84 -94 l 1
 155 0 l 1
 146 0 l 1
 271 672 l 1
 102 672 l 1
 114 739 l 1
 526 739 l 1
 514 672 l 1
 345 672 l 1
 220 0 l 1
 209 0 l 1
 178 -42 l 1
 229 -49 268 -92 268 -145 c 0
 268 -202 221 -249 164 -249 c 0
 112 -249 68 -210 61 -160 c 1
EndSplineSet
Validated: 1
AlternateSubs2: "'aalt' Access All Alternates lookup 0 subtable" tcedilla.sc
AlternateSubs2: "'aalt' Access All Alternates in Latin lookup 0 subtable" tcedilla.sc uni021A
Ligature2: "ccmp_lig subtable" T cedillacmb
Substitution2: "'c2sc' Capitals to Small Capitals in Latin lookup 13 subtable" tcedilla.sc
Position2: "'cpsp' Capital Spacing in Latin lookup 13 subtable" dx=7 dy=0 dh=14 dv=0
Substitution2: "locl_ROM subtable" uni021A
EndChar

StartChar: tcedilla
Encoding: 307 355 168
Width: 339
VWidth: 0
GlyphClass: 3
Flags: W
TeX: 739 -250
HStem: -249 56<74.4442 154.428> 480 67<83 183 269 386> 719 20G<227.25 305>
VStem: 162 56<-185.428 -105.029>
AnchorPoint: "bot_acc" 68 -359 basechar 0
AnchorPoint: "dotbelow" 68 -359 basechar 0
AnchorPoint: "ogon_acc" 68 -359 basechar 0
AnchorPoint: "top_accl" 291 862 basechar 0
AnchorPoint: "dotabove" 291 862 basechar 0
AnchorPoint: "ccmped" 437 699 basechar 0
LayerCount: 2
Fore
SplineSet
11 -160 m 1
 68 -160 l 1
 75 -179 93 -193 114 -193 c 0
 141 -193 162 -172 162 -145 c 0
 162 -119 141 -97 114 -97 c 0
 97 -97 82 -106 73 -119 c 1
 34 -94 l 1
 105 0 l 1
 94 0 l 1
 183 480 l 1
 71 480 l 1
 83 547 l 1
 195 547 l 1
 231 739 l 1
 305 739 l 1
 269 547 l 1
 398 547 l 1
 386 480 l 1
 257 480 l 1
 168 0 l 1
 159 0 l 1
 128 -42 l 1
 179 -49 218 -92 218 -145 c 0
 218 -202 171 -249 114 -249 c 0
 62 -249 18 -210 11 -160 c 1
EndSplineSet
Validated: 1
AlternateSubs2: "'aalt' Access All Alternates lookup 0 subtable" tcedilla.sc
AlternateSubs2: "'aalt' Access All Alternates in Latin lookup 0 subtable" tcedilla.sc uni021B
Ligature2: "ccmp_lig subtable" t cedillacmb
Substitution2: "'smcp' Lowercase to Small Capitals in Latin lookup 2 subtable" tcedilla.sc
Substitution2: "locl_ROM subtable" uni021B
EndChar

StartChar: dcroat
Encoding: 308 273 169
Width: 685
VWidth: 0
Flags: W
TeX: 739 -13
HStem: -13 68<228.727 415.374> 0 21G<518 595.721> 492 68<296.748 481.636> 602 63<490 630 715 767> 719 20G<651.486 729>
VStem: 58 77<146.275 329.591>
LayerCount: 2
Fore
SplineSet
58 217 m 0xbc
 58 400 221 560 408 560 c 0
 494 560 557 528 603 460 c 1
 630 602 l 1
 478 602 l 1
 490 665 l 1
 642 665 l 1
 655 739 l 1
 729 739 l 1
 715 665 l 1
 778 665 l 1
 767 602 l 1
 704 602 l 1
 592 0 l 1
 518 0 l 1x7c
 536 99 l 1
 465 19 399 -13 305 -13 c 0
 162 -13 58 84 58 217 c 0xbc
135 236 m 0
 135 128 210 55 320 55 c 0xbc
 452 55 576 182 576 318 c 0
 576 417 497 492 392 492 c 0
 258 492 135 370 135 236 c 0
EndSplineSet
Validated: 1
AlternateSubs2: "'aalt' Access All Alternates lookup 0 subtable" dcroat.sc
AlternateSubs2: "'aalt' Access All Alternates in Latin lookup 0 subtable" dcroat.sc
Substitution2: "'smcp' Lowercase to Small Capitals in Latin lookup 2 subtable" dcroat.sc
EndChar

StartChar: uni203D
Encoding: 309 8253 170
Width: 591
VWidth: 0
Flags: W
TeX: 839 0
HStem: 0 21G<231 308.492> 681 68<297.992 357 443 472.556>
VStem: 128 70<508 565.42> 519 77<486.454 635.282>
LayerCount: 2
Fore
SplineSet
128 508 m 1
 161 653 252 735 369 749 c 1
 386 839 l 1
 460 839 l 1
 443 749 l 1
 537 736 596 671 596 577 c 0
 596 495 574 447 470 365 c 0
 397 307 361 265 345 221 c 1
 340 193 l 1
 266 193 l 1
 357 681 l 1
 281 668 226 614 198 508 c 1
 128 508 l 1
231 0 m 1
 253 126 l 1
 327 126 l 1
 305 0 l 1
 231 0 l 1
373 368 m 1
 458 444 472 449 492 478 c 0
 510 504 519 533 519 567 c 0
 518 624 484 667 431 680 c 1
 373 368 l 1
EndSplineSet
Validated: 1
EndChar

StartChar: paragraph.alt
Encoding: 310 -1 171
Width: 370
VWidth: 0
Flags: W
TeX: 739 -133
HStem: 719 20G<281.5 407>
VStem: 104 303
LayerCount: 2
Fore
SplineSet
104 510 m 0
 104 632 197 739 366 739 c 2
 407 739 l 1
 246 -133 l 1
 172 -133 l 1
 262 355 l 1
 162 365 104 421 104 510 c 0
EndSplineSet
Validated: 1
EndChar

StartChar: zero.taboldstyle
Encoding: 311 -1 172
Width: 554
VWidth: 0
Flags: W
TeX: 563 -13
HStem: -13 68<164.593 373.456> 495 68<222.116 434.58>
VStem: 36 77<102.141 308.203> 482 77<300.542 450.006>
LayerCount: 2
Fore
SplineSet
36 155 m 0
 36 182 38 205 43 229 c 2
 62 330 l 2
 95 515 199 563 352 563 c 0
 471 563 559 507 559 406 c 0
 559 385 558 352 554 330 c 2
 535 229 l 2
 498 32 400 -13 246 -13 c 0
 120 -13 36 36 36 155 c 0
113 169 m 0
 113 89 174 55 259 55 c 0
 367 55 431 79 463 241 c 2
 477 313 l 2
 482 348 482 354 482 381 c 0
 482 467 417 495 338 495 c 0
 221 495 157 463 131 313 c 2
 117 241 l 2
 112 216 113 184 113 169 c 0
EndSplineSet
Validated: 33
AlternateSubs2: "'aalt' Access All Alternates lookup 0 subtable" zero.oldstyle zero
AlternateSubs2: "'aalt' Access All Alternates in Latin lookup 0 subtable" zero.oldstyle zero
Substitution2: "'pnum' Proportional Numbers in Latin lookup 5 subtable" zero.oldstyle
Substitution2: "'lnum' Lining Figures in Latin lookup 4 subtable" zero
EndChar

StartChar: one.taboldstyle
Encoding: 312 -1 173
Width: 554
VWidth: 0
Flags: W
TeX: 547 0
HStem: 0 21G<251 327.693> 480 67<226 339>
VStem: 213 212
LayerCount: 2
Fore
SplineSet
213 480 m 1
 226 547 l 1
 425 547 l 1
 324 0 l 1
 251 0 l 1
 339 480 l 1
 213 480 l 1
EndSplineSet
Validated: 1
AlternateSubs2: "'aalt' Access All Alternates lookup 0 subtable" one.oldstyle one
AlternateSubs2: "'aalt' Access All Alternates in Latin lookup 0 subtable" one.oldstyle one
Substitution2: "'pnum' Proportional Numbers in Latin lookup 5 subtable" one.oldstyle
Substitution2: "'lnum' Lining Figures in Latin lookup 4 subtable" one
EndChar

StartChar: two.taboldstyle
Encoding: 313 -1 174
Width: 554
VWidth: 0
Flags: W
TeX: 562 0
HStem: 0 67<134 472> 494 68<218.168 450.114>
VStem: 75 73<357 420.507> 473 76<337.758 471.335>
LayerCount: 2
Fore
SplineSet
3 0 m 1
 14 67 l 1
 301 211 l 2
 422 272 473 339 473 417 c 0
 473 492 412 494 332 494 c 0
 231 494 167 471 148 357 c 1
 75 357 l 1
 97 507 202 562 345 562 c 0
 463 562 549 537 549 429 c 0
 549 330 479 235 374 184 c 2
 134 67 l 1
 483 67 l 1
 472 0 l 1
 3 0 l 1
EndSplineSet
Validated: 1
AlternateSubs2: "'aalt' Access All Alternates lookup 0 subtable" two.oldstyle two
AlternateSubs2: "'aalt' Access All Alternates in Latin lookup 0 subtable" two.oldstyle two
Substitution2: "'pnum' Proportional Numbers in Latin lookup 5 subtable" two.oldstyle
Substitution2: "'lnum' Lining Figures in Latin lookup 4 subtable" two
EndChar

StartChar: four.taboldstyle
Encoding: 314 -1 175
Width: 554
VWidth: 0
Flags: W
TeX: 547 -135
HStem: 0 67<79 356 441 497> 527 20G<425.208 531>
LayerCount: 2
Fore
SplineSet
-19 0 m 1
 -7 67 l 1
 444 547 l 1
 531 547 l 1
 441 67 l 1
 509 67 l 1
 497 0 l 1
 429 0 l 1
 404 -135 l 1
 331 -135 l 1
 356 0 l 1
 -19 0 l 1
79 67 m 1
 368 67 l 1
 438 445 l 1
 79 67 l 1
EndSplineSet
Validated: 1
AlternateSubs2: "'aalt' Access All Alternates lookup 0 subtable" four.oldstyle four
AlternateSubs2: "'aalt' Access All Alternates in Latin lookup 0 subtable" four.oldstyle four
Substitution2: "'pnum' Proportional Numbers in Latin lookup 5 subtable" four.oldstyle
Substitution2: "'lnum' Lining Figures in Latin lookup 4 subtable" four
EndChar

StartChar: three.taboldstyle
Encoding: 315 -1 176
Width: 554
VWidth: 0
Flags: W
TeX: 563 -202
HStem: -202 68<133.068 296.135> 199 66<235.727 342.262> 495 68<255.943 392.699>
VStem: 6 75<-79.0958 27 27.0051 42> 119 73<366 426.72> 406 77<-20.4625 143.32> 422 77<329.641 465.384>
LayerCount: 2
Fore
SplineSet
6 -18 m 0xfc
 6 -12 6 4 9 42 c 1
 82 42 l 1
 81 34 81 27 81 27 c 1
 81 -93 131 -134 212 -134 c 0
 315 -134 406 -42 406 63 c 0xfc
 406 166 338 199 225 199 c 1
 237 265 l 1
 276 263 l 1
 356 263 422 322 422 404 c 0
 422 456 387 495 329 495 c 0
 258 495 200 441 192 366 c 1
 119 366 l 1
 145 494 240 563 344 563 c 0
 437 563 499 503 499 415 c 0xfa
 499 339 462 279 391 234 c 1
 453 201 483 151 483 81 c 0
 483 -69 352 -202 205 -202 c 0
 88 -202 6 -125 6 -18 c 0xfc
EndSplineSet
Validated: 1
AlternateSubs2: "'aalt' Access All Alternates lookup 0 subtable" three.oldstyle three
AlternateSubs2: "'aalt' Access All Alternates in Latin lookup 0 subtable" three.oldstyle three
Substitution2: "'pnum' Proportional Numbers in Latin lookup 5 subtable" three.oldstyle
Substitution2: "'lnum' Lining Figures in Latin lookup 4 subtable" three
EndChar

StartChar: five.taboldstyle
Encoding: 316 -1 177
Width: 554
VWidth: 0
Flags: W
TeX: 547 -205
HStem: -205 68<139.123 303.249> 243 68<205.25 367.759> 480 67<249 525>
VStem: 1 72<-63.8813 40> 434 77<0.885731 175.545>
LayerCount: 2
Fore
SplineSet
1 -2 m 2
 1 40 l 1
 73 40 l 1
 73 -85 136 -137 217 -137 c 0
 334 -137 434 -30 434 94 c 0
 434 182 375 243 290 243 c 0
 233 243 176 215 122 161 c 1
 69 183 l 1
 202 547 l 1
 537 547 l 1
 525 480 l 1
 249 480 l 1
 175 276 l 1
 228 301 266 311 311 311 c 0
 429 311 511 227 511 105 c 0
 511 -59 363 -205 210 -205 c 0
 98 -205 1 -124 1 -2 c 2
EndSplineSet
Validated: 1
AlternateSubs2: "'aalt' Access All Alternates lookup 0 subtable" five.oldstyle five
AlternateSubs2: "'aalt' Access All Alternates in Latin lookup 0 subtable" five.oldstyle five
Substitution2: "'pnum' Proportional Numbers in Latin lookup 5 subtable" five.oldstyle
Substitution2: "'lnum' Lining Figures in Latin lookup 4 subtable" five
EndChar

StartChar: six.taboldstyle
Encoding: 317 -1 178
Width: 554
VWidth: 0
Flags: W
TeX: 739 -13
HStem: -13 68<179.528 344.355> 435 68<268.614 409.029> 719 20G<385.868 488>
VStem: 36 77<121 298.669> 472 77<191.521 368.272>
LayerCount: 2
Fore
SplineSet
36 189 m 0
 36 279 52 330 170 467 c 2
 403 739 l 1
 488 739 l 1
 267 482 l 1
 303 497 327 503 358 503 c 0
 470 503 549 419 549 299 c 0
 549 131 410 -13 247 -13 c 0
 123 -13 36 71 36 189 c 0
113 204 m 0
 113 114 171 55 261 55 c 0
 374 55 472 167 472 286 c 0
 472 375 416 435 331 435 c 0
 217 435 113 330 113 204 c 0
EndSplineSet
Validated: 1
AlternateSubs2: "'aalt' Access All Alternates lookup 0 subtable" six.oldstyle six
AlternateSubs2: "'aalt' Access All Alternates in Latin lookup 0 subtable" six.oldstyle six
Substitution2: "'pnum' Proportional Numbers in Latin lookup 5 subtable" six.oldstyle
Substitution2: "'lnum' Lining Figures in Latin lookup 4 subtable" six
EndChar

StartChar: seven.taboldstyle
Encoding: 318 -1 179
Width: 554
VWidth: 0
Flags: W
TeX: 547 -192
HStem: -192 21G<42 132.768> 480 67<135 473>
LayerCount: 2
Fore
SplineSet
42 -192 m 1
 473 480 l 1
 123 480 l 1
 135 547 l 1
 561 547 l 1
 549 480 l 1
 120 -192 l 1
 42 -192 l 1
EndSplineSet
Validated: 1
AlternateSubs2: "'aalt' Access All Alternates lookup 0 subtable" seven.oldstyle seven
AlternateSubs2: "'aalt' Access All Alternates in Latin lookup 0 subtable" seven.oldstyle seven
Substitution2: "'pnum' Proportional Numbers in Latin lookup 5 subtable" seven.oldstyle
Substitution2: "'lnum' Lining Figures in Latin lookup 4 subtable" seven
EndChar

StartChar: eight.taboldstyle
Encoding: 319 -1 180
Width: 554
VWidth: 0
Flags: W
TeX: 739 -13
HStem: -13 68<183.77 345.32> 375 69<266.648 396.247> 684 68<299.529 439.426>
VStem: 48 77<111.425 269.975> 151 77<480.837 614.593> 451 75<162.857 323.106> 473 77<515.94 650.192>
LayerCount: 2
Fore
SplineSet
48 176 m 0xfc
 48 275 112 367 213 413 c 1
 162 451 151 478 151 527 c 0
 151 651 270 752 387 752 c 0
 484 752 550 691 550 603 c 0xfa
 550 526 516 450 431 413 c 1
 496 379 526 334 526 267 c 0
 526 112 402 -13 249 -13 c 0
 126 -13 48 61 48 176 c 0xfc
125 181 m 0
 125 108 182 55 259 55 c 0
 365 55 451 143 451 250 c 0xfc
 451 325 398 375 319 375 c 0
 214 375 125 290 125 181 c 0
228 541 m 0
 228 486 273 444 332 444 c 0
 410 444 473 516 473 587 c 0xfa
 473 646 434 684 373 684 c 0
 294 684 228 619 228 541 c 0
EndSplineSet
Validated: 1
AlternateSubs2: "'aalt' Access All Alternates lookup 0 subtable" eight.oldstyle eight
AlternateSubs2: "'aalt' Access All Alternates in Latin lookup 0 subtable" eight.oldstyle eight
Substitution2: "'pnum' Proportional Numbers in Latin lookup 5 subtable" eight.oldstyle
Substitution2: "'lnum' Lining Figures in Latin lookup 4 subtable" eight
EndChar

StartChar: nine.taboldstyle
Encoding: 320 -1 181
Width: 554
VWidth: 0
Flags: W
TeX: 563 -189
HStem: 47 68<186.952 327.675> 495 68<252.018 413.985>
VStem: 47 77<179.218 359.547> 483 77<249.504 426.125>
LayerCount: 2
Fore
SplineSet
47 246 m 0
 47 417 185 563 347 563 c 0
 473 563 560 481 560 361 c 0
 560 314 549 267 528 224 c 0
 508 183 492 162 425 83 c 2
 192 -189 l 1
 107 -189 l 1
 329 68 l 1
 293 53 269 47 238 47 c 0
 128 47 47 131 47 246 c 0
124 266 m 0
 124 175 179 115 264 115 c 0
 382 115 483 220 483 343 c 0
 483 434 423 495 335 495 c 0
 216 495 124 377 124 266 c 0
EndSplineSet
Validated: 1
AlternateSubs2: "'aalt' Access All Alternates lookup 0 subtable" nine.oldstyle nine
AlternateSubs2: "'aalt' Access All Alternates in Latin lookup 0 subtable" nine.oldstyle nine
Substitution2: "'pnum' Proportional Numbers in Latin lookup 5 subtable" nine.oldstyle
Substitution2: "'lnum' Lining Figures in Latin lookup 4 subtable" nine
EndChar

StartChar: Eng
Encoding: 321 330 182
Width: 740
VWidth: 0
Flags: W
TeX: 739 0
HStem: -251 68<335.686 475.492> 0 21G<46 123.692> 719 20G<179.292 292.788 693.281 771>
VStem: 228 73<-90.4873 -62>
LayerCount: 2
Fore
SplineSet
46 0 m 1
 183 739 l 1
 283 739 l 1
 583 126 l 1
 697 739 l 1
 771 739 l 1
 633 -6 l 2
 603 -167 520 -251 392 -251 c 0
 293 -251 226 -198 226 -91 c 0
 226 -80 226 -73 228 -62 c 1
 301 -62 l 1
 309 -143 330 -183 403 -183 c 0
 485 -183 535 -128 560 0 c 1
 240 650 l 1
 120 0 l 1
 46 0 l 1
EndSplineSet
Validated: 1
AlternateSubs2: "'aalt' Access All Alternates lookup 0 subtable" eng.sc
AlternateSubs2: "'aalt' Access All Alternates in Latin lookup 0 subtable" eng.sc
Substitution2: "'c2sc' Capitals to Small Capitals in Latin lookup 13 subtable" eng.sc
Position2: "'cpsp' Capital Spacing in Latin lookup 13 subtable" dx=7 dy=0 dh=14 dv=0
EndChar

StartChar: eng
Encoding: 322 331 183
Width: 610
VWidth: 0
Flags: W
TeX: 560 0
HStem: -192 71<306 379.985> 0 21G<33 110.721> 492 68<284.566 444.991> 527 20G<130.307 208>
VStem: 502 77<228.641 437.078>
LayerCount: 2
Fore
SplineSet
33 0 m 1xe8
 134 547 l 1
 208 547 l 1xd8
 195 476 l 1
 254 533 315 560 383 560 c 0
 503 560 579 489 579 379 c 0
 579 353 577 334 568 287 c 2
 522 38 l 2
 499 -108 423 -185 293 -192 c 1
 306 -121 l 1
 391 -116 426 -76 448 38 c 2
 494 287 l 2
 499 315 502 341 502 361 c 0
 502 441 448 492 363 492 c 0
 266 492 188 436 163 301 c 2
 107 0 l 1
 33 0 l 1xe8
EndSplineSet
Validated: 1
AlternateSubs2: "'aalt' Access All Alternates lookup 0 subtable" eng.sc
AlternateSubs2: "'aalt' Access All Alternates in Latin lookup 0 subtable" eng.sc
Substitution2: "'smcp' Lowercase to Small Capitals in Latin lookup 2 subtable" eng.sc
EndChar

StartChar: at.alt
Encoding: 323 -1 184
Width: 867
VWidth: 0
Flags: W
TeX: 608 -157
HStem: -157 52<292.227 526.526> -5 52<527.715 616.814> 0 58<301.84 412.146> 397 52<446.547 557.517> 556 52<409.72 635.709>
VStem: 76 53<56.8855 274.57> 214 72<73.3529 207.642> 773 53<238.716 431.473>
LayerCount: 2
Fore
SplineSet
76 154 m 0xdf
 76 394 295 608 541 608 c 0
 705 608 826 497 826 345 c 0
 826 184 667 -5 535 -5 c 0xdf
 487 -5 465 11 456 52 c 1
 408 14 374 0 327 0 c 0xbf
 258 0 214 44 214 113 c 0
 214 261 385 449 517 449 c 0
 575 449 605 428 619 380 c 1
 645 430 l 1
 706 430 l 1
 561 152 l 2
 528 83 527 82 527 67 c 0
 527 56 541 47 558 47 c 0
 638 47 773 198 773 338 c 0
 773 466 671 556 525 556 c 0
 321 556 129 366 129 163 c 0
 129 7 244 -105 404 -105 c 0
 496 -105 579 -72 656 -6 c 1
 690 -39 l 1
 603 -118 503 -157 386 -157 c 0
 207 -157 76 -26 76 154 c 0xdf
286 127 m 0
 286 85 311 58 350 58 c 0xbf
 403 58 448 93 505 180 c 0
 546 243 571 302 571 338 c 0
 571 373 549 395 510 397 c 2
 505 397 l 2
 414 397 286 235 286 127 c 0
EndSplineSet
Validated: 1
EndChar

StartChar: Gamma
Encoding: 324 915 185
Width: 485
VWidth: 0
Flags: W
TeX: 680 0
HStem: 0 21G<46 123.72> 672 67<245 546>
LayerCount: 2
Fore
SplineSet
46 0 m 1
 183 739 l 1
 558 739 l 1
 546 672 l 1
 245 672 l 1
 120 0 l 1
 46 0 l 1
EndSplineSet
Validated: 1
EndChar

StartChar: Lambda
Encoding: 325 923 186
Width: 740
VWidth: 0
Flags: W
TeX: 679 -1
HStem: 0 21G<-19 71.2748 613.206 699> 719 20G<422.713 522.899>
LayerCount: 2
Fore
SplineSet
-19 0 m 1
 435 739 l 1
 518 739 l 1
 699 0 l 1
 618 0 l 1
 461 655 l 1
 59 0 l 1
 -19 0 l 1
EndSplineSet
Validated: 1
EndChar

StartChar: Theta
Encoding: 326 920 187
Width: 869
VWidth: 0
Flags: W
TeX: 690 -12
HStem: -13 68<309.265 524.639> 333 74<333 614> 684 68<414.604 635.041>
VStem: 76 77<213.275 423.9> 793 77<317.977 526.815>
LayerCount: 2
Fore
SplineSet
76 302 m 0
 76 536 303 752 548 752 c 0
 721 752 870 622 870 436 c 0
 870 203 643 -13 398 -13 c 0
 219 -13 76 120 76 302 c 0
153 316 m 0
 153 170 266 55 410 55 c 0
 608 55 793 232 793 422 c 0
 793 574 683 684 530 684 c 0
 339 684 153 503 153 316 c 0
319 333 m 1
 333 407 l 1
 627 407 l 1
 614 333 l 1
 319 333 l 1
EndSplineSet
Validated: 1
EndChar

StartChar: Upsilon
Encoding: 327 933 188
Width: 592
VWidth: 0
Flags: W
TeX: 680 0
HStem: 0 21G<228 305.725> 719 20G<109 197.425 601.894 697>
LayerCount: 2
Fore
SplineSet
109 739 m 1
 191 739 l 1
 324 325 l 1
 616 739 l 1
 697 739 l 1
 348 247 l 1
 302 0 l 1
 228 0 l 1
 274 247 l 1
 109 739 l 1
EndSplineSet
Validated: 1
EndChar

StartChar: Xi
Encoding: 328 926 189
Width: 683
VWidth: 0
Flags: W
TeX: 680 0
HStem: 0 74<16 621> 333 74<152 608> 665 74<139 744>
LayerCount: 2
Fore
SplineSet
2 0 m 1
 16 74 l 1
 635 74 l 1
 621 0 l 1
 2 0 l 1
125 665 m 1
 139 739 l 1
 758 739 l 1
 744 665 l 1
 125 665 l 1
139 333 m 1
 152 407 l 1
 621 407 l 1
 608 333 l 1
 139 333 l 1
EndSplineSet
Validated: 1
EndChar

StartChar: Delta
Encoding: 329 916 190
Width: 645
VWidth: 0
Flags: W
TeX: 680 0
HStem: 0 75<102 510>
LayerCount: 2
Fore
SplineSet
-31 0 m 1
 375 680 l 1
 449 680 l 1
 617 0 l 1
 -31 0 l 1
102 75 m 1
 510 75 l 1
 393 572 l 1
 102 75 l 1
EndSplineSet
Validated: 1
EndChar

StartChar: Omega
Encoding: 330 937 191
Width: 797
VWidth: 0
Flags: W
TeX: 690 0
HStem: -2 76<68 150 257.481 289 466 514.875 619 684> 612 78<372.042 576.857>
VStem: 60 82<198.787 397.574> 719 82<284.46 478.294>
LayerCount: 2
Fore
SplineSet
54 -2 m 1
 68 74 l 1
 150 74 l 1
 94 115 60 195 60 283 c 0
 60 301 61 319 64 336 c 0
 94 528 295 690 491 690 c 0
 663 690 801 562 801 399 c 0
 801 380 799 360 795 340 c 0
 774 232 704 122 619 74 c 1
 698 74 l 1
 684 -2 l 1
 452 -2 l 1
 466 76 l 1
 584 108 690 212 714 340 c 0
 717 355 719 370 719 384 c 0
 719 511 612 612 478 612 c 0
 325 612 169 486 145 336 c 0
 143 323 142 309 142 296 c 0
 142 188 210 105 303 76 c 1
 289 -2 l 1
 54 -2 l 1
EndSplineSet
Validated: 1
EndChar

StartChar: Pi
Encoding: 331 928 192
Width: 636
VWidth: 0
Flags: W
TeX: 739 0
HStem: 0 21G<32 118.531 496 582.529> 606 74<222 603>
LayerCount: 2
Fore
SplineSet
32 0 m 1
 152 680 l 1
 699 680 l 1
 579 0 l 1
 496 0 l 1
 603 606 l 1
 222 606 l 1
 115 0 l 1
 32 0 l 1
EndSplineSet
Validated: 1
EndChar

StartChar: Sigma
Encoding: 332 931 193
Width: 453
VWidth: 0
Flags: W
TeX: 680 0
HStem: 0 74<88 413> 606 74<188 507>
LayerCount: 2
Fore
SplineSet
-21 0 m 1
 -10 68 l 1
 209 346 l 1
 94 611 l 1
 106 680 l 1
 520 680 l 1
 507 606 l 1
 188 606 l 1
 303 346 l 1
 88 74 l 1
 426 74 l 1
 413 0 l 1
 -21 0 l 1
EndSplineSet
Validated: 1
EndChar

StartChar: lira
Encoding: 333 8356 194
Width: 554
VWidth: 0
Flags: W
TeX: 752 0
HStem: 0 67<39 196.323 264 424.488> 281 67<51 173 311 477> 413 67<75 126 220 501> 684 68<315.907 485.46>
VStem: 127 76<481 568.152> 243 77<128.446 280.04> 530 72<168.208 268> 552 72<541 618.014>
LayerCount: 2
Fore
SplineSet
28 0 m 1xfe
 39 67 l 1
 177 67 l 1
 217 104 243 163 243 220 c 0
 243 241 238 260 227 281 c 1
 38 281 l 1
 51 348 l 1
 173 348 l 1
 139 413 l 1
 62 413 l 1
 75 480 l 1
 126 480 l 1
 127 481 l 1
 127 633 272 752 413 752 c 0
 540 752 624 667 624 569 c 0
 624 562 623 553 622 541 c 1
 552 541 l 1xfd
 552 627 493 684 401 684 c 0
 294 684 206 592 203 480 c 1
 514 480 l 1
 501 413 l 1
 220 413 l 1
 272 348 l 1
 490 348 l 1
 477 281 l 1
 311 281 l 1
 317 261 319 242 320 219 c 0
 320 169 304 127 264 67 c 1
 321 67 l 2
 461 67 530 148 530 268 c 1
 602 268 l 1
 602 98 486 0 313 0 c 2
 28 0 l 1xfe
EndSplineSet
Validated: 1
EndChar

StartChar: partialdiff
Encoding: 334 8706 195
Width: 494
VWidth: 0
Flags: W
TeX: 753 0
HStem: -15 56<117.477 256.179> 355 55<193.621 404.076> 698 56<194.297 379.417>
LayerCount: 2
Fore
SplineSet
17 189 m 0
 39 309 148 410 264 410 c 0
 329 410 391 399 447 376 c 1
 476 536 443 698 302 698 c 0
 261 698 208 681 161 666 c 1
 138 737 l 1
 191 754 248 754 302 754 c 0
 484 754 557 563 520 363 c 0
 484 170 345 -15 170 -15 c 0
 62 -15 -4 79 17 189 c 0
90 176 m 0
 77 106 106 41 170 41 c 0
 301 41 394 175 434 322 c 1
 382 344 325 355 264 355 c 0
 178 355 107 268 90 176 c 0
EndSplineSet
Validated: 33
EndChar

StartChar: eta
Encoding: 335 951 196
Width: 610
VWidth: 0
Flags: W
TeX: 560 -200
HStem: 0 21G<3 80.7209> 492 68<254.566 414.991> 527 20G<100.307 178>
VStem: 472 77<233.734 437.078>
LayerCount: 2
Fore
SplineSet
3 0 m 1xd0
 104 547 l 1
 178 547 l 1xb0
 165 476 l 1
 224 533 285 560 353 560 c 0
 473 560 549 489 549 379 c 0
 549 353 547 334 538 287 c 2
 448 -200 l 1
 374 -200 l 1
 464 287 l 2
 469 315 472 341 472 361 c 0
 472 441 418 492 333 492 c 0
 236 492 158 436 133 301 c 2
 77 0 l 1
 3 0 l 1xd0
EndSplineSet
Validated: 1
EndChar

StartChar: numero
Encoding: 336 8470 197
Width: 1103
VWidth: 0
Flags: W
TeX: 739 0
HStem: 0 62<668 1023> 188 58<822.413 956.227> 492 59<860.269 995.393> 719 20G<149.292 262.788 663.281 741>
VStem: 724 63<281.083 419.04> 1031 63<320.258 456.927>
LayerCount: 2
Fore
SplineSet
16 0 m 1
 153 739 l 1
 253 739 l 1
 553 126 l 1
 667 739 l 1
 741 739 l 1
 604 0 l 1
 530 0 l 1
 210 650 l 1
 90 0 l 1
 16 0 l 1
657 0 m 1
 668 62 l 1
 1034 62 l 1
 1023 0 l 1
 657 0 l 1
724 338 m 0
 724 449 829 551 946 551 c 0
 1031 551 1094 486 1094 400 c 0
 1094 290 988 188 871 188 c 0
 787 188 724 252 724 338 c 0
787 344 m 0
 787 287 829 246 886 246 c 0
 964 246 1031 316 1031 398 c 0
 1031 449 988 492 935 492 c 0
 854 492 787 424 787 344 c 0
EndSplineSet
Validated: 1
EndChar

StartChar: a.sc
Encoding: 337 -1 198
Width: 631
VWidth: 0
GlyphClass: 2
Flags: W
TeX: 547 0
HStem: 0 21G<-11 83.2584 494.27 580> 178 67<232 430> 527 20G<334.874 428.74>
AnchorPoint: "bot_acc" 262 -123 basechar 0
AnchorPoint: "dotbelow" 262 -123 basechar 0
AnchorPoint: "ogon_acc" 489 -123 basechar 0
AnchorPoint: "top_accl" 409 670 basechar 0
AnchorPoint: "dotabove" 409 670 basechar 0
LayerCount: 2
Fore
SplineSet
-11 0 m 1
 348 547 l 1
 423 547 l 1
 580 0 l 1
 500 0 l 1
 449 178 l 1
 188 178 l 1
 70 0 l 1
 -11 0 l 1
232 245 m 1
 430 245 l 1
 371 457 l 1
 232 245 l 1
EndSplineSet
Validated: 1
EndChar

StartChar: aogonek.sc
Encoding: 338 -1 199
Width: 631
VWidth: 0
GlyphClass: 3
Flags: W
TeX: 547 -250
HStem: -250 74<484.697 551> 0 21G<-11 83.2584> 178 67<232 430> 527 20G<334.874 428.74>
VStem: 402 76<-171.977 -76.0338>
AnchorPoint: "bot_acc" 444 -360 basechar 0
AnchorPoint: "dotbelow" 444 -360 basechar 0
AnchorPoint: "ogon_acc" 444 -360 basechar 0
AnchorPoint: "top_accl" 417 670 basechar 0
AnchorPoint: "dotabove" 417 670 basechar 0
LayerCount: 2
Fore
SplineSet
-11 0 m 1
 348 547 l 1
 423 547 l 1
 580 0 l 1
 517 -31 478 -81 478 -116 c 0
 478 -141 485 -176 514 -176 c 0
 533 -176 548 -175 564 -172 c 1
 551 -246 l 1
 530 -249 507 -250 491 -250 c 0
 423 -250 402 -193 402 -147 c 0
 402 -117 412 -91 430 -67 c 0
 449 -41 473 -18 500 0 c 1
 449 178 l 1
 188 178 l 1
 70 0 l 1
 -11 0 l 1
232 245 m 1
 430 245 l 1
 371 457 l 1
 232 245 l 1
EndSplineSet
Validated: 1
Ligature2: "ccmp_lig subtable" a.sc ogonekcomb
EndChar

StartChar: b.sc
Encoding: 339 -1 200
Width: 501
VWidth: 0
GlyphClass: 2
Flags: W
TeX: 547 0
HStem: 0 68<133 331.813> 253 67<180 358.152> 480 67<210 384.103>
VStem: 387 76<114.923 228.796> 397 76<358.022 464.077>
AnchorPoint: "bot_acc" 216 -123 basechar 0
AnchorPoint: "dotbelow" 216 -123 basechar 0
AnchorPoint: "ogon_acc" 108 -123 basechar 0
AnchorPoint: "top_accl" 363 670 basechar 0
AnchorPoint: "dotabove" 363 670 basechar 0
LayerCount: 2
Fore
SplineSet
46 0 m 1xf0
 148 547 l 1
 290 547 l 2
 416 547 472 509 473 435 c 0
 474 379 453 321 397 291 c 1xe8
 445 266 462 239 463 196 c 0
 464 138 438 81 395 47 c 0
 352 13 300 0 200 0 c 2
 46 0 l 1xf0
133 68 m 1
 202 68 l 2
 348 68 388 114 387 182 c 0xf0
 386 209 374 228 351 239 c 0
 331 249 295 253 231 253 c 2
 166 253 l 1
 133 68 l 1
180 320 m 1
 241 320 l 2
 310 320 342 327 367 348 c 0
 386 364 398 393 397 422 c 0xe8
 396 469 365 480 274 480 c 2
 210 480 l 1
 180 320 l 1
EndSplineSet
Validated: 33
EndChar

StartChar: c.sc
Encoding: 340 -1 201
Width: 661
VWidth: 0
GlyphClass: 2
Flags: W
TeX: 547 0
HStem: -9 68<233.459 438.564> 488 69<310.298 519.013>
VStem: 56 76<154.248 323.613>
AnchorPoint: "bot_acc" 298 -123 basechar 0
AnchorPoint: "dotbelow" 298 -123 basechar 0
AnchorPoint: "ogon_acc" 298 -123 basechar 0
AnchorPoint: "top_accl" 445 670 basechar 0
AnchorPoint: "dotabove" 445 670 basechar 0
LayerCount: 2
Fore
SplineSet
56 217 m 0
 53 400 220 557 422 557 c 0
 551 557 654 487 670 390 c 1
 591 390 l 1
 556 463 495 488 415 488 c 0
 266 488 130 369 132 231 c 0
 134 131 219 59 333 59 c 0
 413 59 483 91 549 158 c 1
 633 158 l 1
 564 53 450 -9 324 -9 c 0
 167 -9 59 84 56 217 c 0
EndSplineSet
Validated: 33
EndChar

StartChar: ccedilla.sc
Encoding: 341 -1 202
Width: 661
VWidth: 0
GlyphClass: 3
Flags: W
TeX: 547 -249
HStem: -249 56<284.76 363.463> -9 68<236.112 308> 488 69<310.298 519.013>
VStem: 56 76<154.444 323.613> 221 58<-186.672 -160> 372 56<-185.428 -105.029>
AnchorPoint: "bot_acc" 278 -359 basechar 0
AnchorPoint: "dotbelow" 278 -359 basechar 0
AnchorPoint: "ogon_acc" 278 -359 basechar 0
AnchorPoint: "top_accl" 443 670 basechar 0
AnchorPoint: "dotabove" 443 670 basechar 0
LayerCount: 2
Fore
SplineSet
56 217 m 0
 53 400 220 557 422 557 c 0
 551 557 654 487 670 390 c 1
 591 390 l 1
 556 463 495 488 415 488 c 0
 266 488 130 369 132 231 c 0
 134 131 219 59 333 59 c 0
 413 59 483 91 549 158 c 1
 633 158 l 1
 572 64 474 5 364 -7 c 1
 338 -42 l 1
 389 -49 428 -92 428 -145 c 0
 428 -202 382 -249 324 -249 c 0
 272 -249 229 -210 221 -160 c 1
 279 -160 l 1
 285 -179 303 -193 324 -193 c 0
 351 -193 372 -172 372 -145 c 0
 372 -119 351 -97 324 -97 c 0
 307 -97 292 -106 284 -119 c 1
 244 -94 l 1
 308 -9 l 1
 160 -3 59 89 56 217 c 0
EndSplineSet
Validated: 33
Ligature2: "ccmp_lig subtable" c.sc cedillacmb
EndChar

StartChar: d.sc
Encoding: 342 -1 203
Width: 622
VWidth: 0
GlyphClass: 2
Flags: W
TeX: 547 0
HStem: 0 68<133 366.741> 480 67<210 431.424>
VStem: 530 76<221.227 401.379>
AnchorPoint: "bot_acc" 210 -123 basechar 0
AnchorPoint: "dotbelow" 210 -123 basechar 0
AnchorPoint: "ogon_acc" 121 -123 basechar 0
AnchorPoint: "top_accl" 357 670 basechar 0
AnchorPoint: "dotabove" 357 670 basechar 0
LayerCount: 2
Fore
SplineSet
46 0 m 1
 148 547 l 1
 291 547 l 2
 397 547 459 535 506 505 c 0
 571 465 605 404 606 330 c 0
 608 229 563 137 478 74 c 0
 407 22 330 0 213 0 c 2
 46 0 l 1
133 68 m 1
 204 68 l 2
 323 68 389 86 447 136 c 0
 499 181 531 253 530 320 c 0
 528 420 465 480 285 480 c 2
 210 480 l 1
 133 68 l 1
EndSplineSet
Validated: 33
EndChar

StartChar: e.sc
Encoding: 343 -1 204
Width: 456
VWidth: 0
GlyphClass: 2
Flags: W
TeX: 547 0
HStem: 0 68<133 380> 243 67<178 416> 480 67<210 469>
AnchorPoint: "bot_acc" 190 -123 basechar 0
AnchorPoint: "dotbelow" 190 -123 basechar 0
AnchorPoint: "ogon_acc" 288 -123 basechar 0
AnchorPoint: "top_accl" 337 670 basechar 0
AnchorPoint: "dotabove" 337 670 basechar 0
LayerCount: 2
Fore
SplineSet
46 0 m 1
 148 547 l 1
 481 547 l 1
 469 480 l 1
 210 480 l 1
 178 310 l 1
 428 310 l 1
 416 243 l 1
 166 243 l 1
 133 68 l 1
 392 68 l 1
 380 0 l 1
 46 0 l 1
EndSplineSet
Validated: 1
EndChar

StartChar: eogonek.sc
Encoding: 344 -1 205
Width: 456
VWidth: 0
GlyphClass: 3
Flags: W
TeX: 547 -250
HStem: -250 74<284.697 351> 0 68<133 306> 243 67<178 416> 480 67<210 469>
VStem: 202 76<-171.977 -76.1218>
AnchorPoint: "bot_acc" 244 -360 basechar 0
AnchorPoint: "dotbelow" 244 -360 basechar 0
AnchorPoint: "ogon_acc" 244 -360 basechar 0
AnchorPoint: "top_accl" 346 670 basechar 0
AnchorPoint: "dotabove" 346 670 basechar 0
LayerCount: 2
Fore
SplineSet
46 0 m 1
 148 547 l 1
 481 547 l 1
 469 480 l 1
 210 480 l 1
 178 310 l 1
 428 310 l 1
 416 243 l 1
 166 243 l 1
 133 68 l 1
 392 68 l 1
 380 0 l 1
 317 -31 278 -81 278 -116 c 0
 278 -141 285 -176 314 -176 c 0
 333 -176 348 -175 364 -172 c 1
 351 -246 l 1
 330 -249 307 -250 291 -250 c 0
 223 -250 202 -193 202 -147 c 0
 202 -88 240 -42 306 0 c 1
 46 0 l 1
EndSplineSet
Validated: 1
Ligature2: "ccmp_lig subtable" e.sc ogonekcomb
EndChar

StartChar: f.sc
Encoding: 345 -1 206
Width: 416
VWidth: 0
GlyphClass: 2
Flags: W
TeX: 547 0
HStem: 0 21G<46 124.734> 241 68<178 394> 480 67<210 446>
AnchorPoint: "bot_acc" 179 -123 basechar 0
AnchorPoint: "dotbelow" 179 -123 basechar 0
AnchorPoint: "ogon_acc" 29 -123 basechar 0
AnchorPoint: "top_accl" 326 670 basechar 0
AnchorPoint: "dotabove" 326 670 basechar 0
LayerCount: 2
Fore
SplineSet
46 0 m 1
 148 547 l 1
 459 547 l 1
 446 480 l 1
 210 480 l 1
 178 309 l 1
 406 309 l 1
 394 241 l 1
 166 241 l 1
 121 0 l 1
 46 0 l 1
EndSplineSet
Validated: 1
EndChar

StartChar: g.sc
Encoding: 346 -1 207
Width: 707
VWidth: 0
GlyphClass: 2
Flags: W
TeX: 547 0
HStem: -9 68<237.047 450.644> 196 67<281 588> 488 69<310.419 526.514>
VStem: 57 76<152.812 325.335>
AnchorPoint: "bot_acc" 302 -123 basechar 0
AnchorPoint: "dotbelow" 302 -123 basechar 0
AnchorPoint: "ogon_acc" 302 -123 basechar 0
AnchorPoint: "top_accl" 449 670 basechar 0
AnchorPoint: "dotabove" 449 670 basechar 0
LayerCount: 2
Fore
SplineSet
57 224 m 0
 54 399 226 557 426 557 c 0
 563 557 666 488 684 387 c 1
 603 387 l 1
 581 449 511 488 425 488 c 0
 266 488 131 371 133 233 c 0
 135 126 226 59 341 59 c 0
 442 59 538 113 588 196 c 1
 269 196 l 1
 281 263 l 1
 693 263 l 1
 662 115 505 -9 335 -9 c 0
 173 -9 59 88 57 224 c 0
EndSplineSet
Validated: 33
EndChar

StartChar: h.sc
Encoding: 347 -1 208
Width: 586
VWidth: 0
GlyphClass: 2
Flags: W
TeX: 547 0
HStem: 0 21G<46 124.71 405 483.693> 248 67<180 451> 527 20G<144.271 222 503.293 581>
AnchorPoint: "bot_acc" 240 -123 basechar 0
AnchorPoint: "dotbelow" 240 -123 basechar 0
AnchorPoint: "ogon_acc" 388 -123 basechar 0
AnchorPoint: "top_accl" 387 670 basechar 0
AnchorPoint: "dotabove" 387 670 basechar 0
LayerCount: 2
Fore
SplineSet
46 0 m 1
 148 547 l 1
 222 547 l 1
 180 315 l 1
 464 315 l 1
 507 547 l 1
 581 547 l 1
 480 0 l 1
 405 0 l 1
 451 248 l 1
 167 248 l 1
 121 0 l 1
 46 0 l 1
EndSplineSet
Validated: 1
EndChar

StartChar: i.sc
Encoding: 348 -1 209
Width: 227
VWidth: 0
GlyphClass: 2
Flags: W
TeX: 547 0
HStem: 0 21G<46 124.693> 527 20G<144.271 222>
VStem: 46 176
AnchorPoint: "bot_acc" 61 -123 basechar 0
AnchorPoint: "dotbelow" 61 -123 basechar 0
AnchorPoint: "ogon_acc" 29 -123 basechar 0
AnchorPoint: "top_accl" 208 670 basechar 0
AnchorPoint: "dotabove" 208 670 basechar 0
LayerCount: 2
Fore
SplineSet
46 0 m 1
 148 547 l 1
 222 547 l 1
 121 0 l 1
 46 0 l 1
EndSplineSet
Validated: 1
EndChar

StartChar: iogonek.sc
Encoding: 349 -1 210
Width: 227
VWidth: 0
GlyphClass: 3
Flags: W
TeX: 547 -250
HStem: -250 74<26.7396 91> 527 20G<144.271 222>
VStem: -57 76<-171.977 -75.4597>
AnchorPoint: "bot_acc" -15 -360 basechar 0
AnchorPoint: "dotbelow" -15 -360 basechar 0
AnchorPoint: "ogon_acc" -15 -360 basechar 0
AnchorPoint: "top_accl" 208 670 basechar 0
AnchorPoint: "dotabove" 208 670 basechar 0
LayerCount: 2
Fore
SplineSet
-57 -147 m 0
 -57 -117 -48 -91 -30 -67 c 0
 -10 -40 17 -17 46 0 c 1
 148 547 l 1
 222 547 l 1
 121 0 l 1
 58 -31 19 -81 19 -116 c 0
 19 -141 26 -176 55 -176 c 0
 74 -176 89 -175 105 -172 c 1
 91 -246 l 1
 71 -249 47 -250 31 -250 c 0
 -37 -250 -57 -193 -57 -147 c 0
EndSplineSet
Validated: 1
Ligature2: "ccmp_lig subtable" i.sc ogonekcomb
EndChar

StartChar: j.sc
Encoding: 350 -1 211
Width: 428
VWidth: 0
GlyphClass: 2
Flags: W
TeX: 547 0
HStem: -10 69<112.302 231.87> 527 20G<345.27 423>
VStem: 22 71<114.512 145>
AnchorPoint: "bot_acc" 262 -123 basechar 0
AnchorPoint: "dotbelow" 262 -123 basechar 0
AnchorPoint: "ogon_acc" 107 -123 basechar 0
AnchorPoint: "top_accl" 409 670 basechar 0
AnchorPoint: "dotabove" 409 670 basechar 0
LayerCount: 2
Fore
SplineSet
19 114 m 0
 19 125 19 131 22 145 c 1
 93 145 l 1
 99 87 113 59 167 59 c 0
 228 59 263 96 280 177 c 2
 349 547 l 1
 423 547 l 1
 353 173 l 2
 331 53 264 -10 160 -10 c 0
 76 -10 21 32 19 114 c 0
EndSplineSet
Validated: 1
EndChar

StartChar: k.sc
Encoding: 351 -1 212
Width: 514
VWidth: 0
GlyphClass: 2
Flags: W
TeX: 547 0
HStem: 0 21G<46 124.649 365.844 473> 527 20G<144.271 222 456.616 578>
AnchorPoint: "bot_acc" 224 -123 basechar 0
AnchorPoint: "dotbelow" 224 -123 basechar 0
AnchorPoint: "ogon_acc" 381 -123 basechar 0
AnchorPoint: "top_accl" 371 670 basechar 0
AnchorPoint: "dotabove" 371 670 basechar 0
LayerCount: 2
Fore
SplineSet
46 0 m 1
 148 547 l 1
 222 547 l 1
 169 258 l 1
 478 547 l 1
 578 547 l 1
 288 279 l 1
 473 0 l 1
 379 0 l 1
 231 225 l 1
 148 148 l 1
 121 0 l 1
 46 0 l 1
EndSplineSet
Validated: 1
EndChar

StartChar: l.sc
Encoding: 352 -1 213
Width: 398
VWidth: 0
GlyphClass: 2
Flags: W
TeX: 547 0
HStem: 0 68<133 361> 527 20G<144.271 222>
VStem: 46 327
AnchorPoint: "bot_acc" 181 -123 basechar 0
AnchorPoint: "dotbelow" 181 -123 basechar 0
AnchorPoint: "ogon_acc" 269 -123 basechar 0
AnchorPoint: "top_accl" 208 670 basechar 0
AnchorPoint: "dotabove" 208 670 basechar 0
LayerCount: 2
Fore
SplineSet
46 0 m 1
 148 547 l 1
 222 547 l 1
 133 68 l 1
 373 68 l 1
 361 0 l 1
 46 0 l 1
EndSplineSet
Validated: 1
EndChar

StartChar: lslash.sc
Encoding: 353 -1 214
Width: 441
VWidth: 0
GlyphClass: 2
Flags: W
TeX: 547 0
HStem: 0 68<169 397> 527 20G<180.255 259>
AnchorPoint: "bot_acc" 217 -123 basechar 0
AnchorPoint: "dotbelow" 217 -123 basechar 0
AnchorPoint: "ogon_acc" 305 -123 basechar 0
AnchorPoint: "top_accl" 244 670 basechar 0
AnchorPoint: "dotabove" 244 670 basechar 0
LayerCount: 2
Fore
SplineSet
37 152 m 1
 53 238 l 1
 137 296 l 1
 184 547 l 1
 259 547 l 1
 219 333 l 1
 359 427 l 1
 344 342 l 1
 203 247 l 1
 169 68 l 1
 409 68 l 1
 397 0 l 1
 83 0 l 1
 121 210 l 1
 37 152 l 1
EndSplineSet
Validated: 1
EndChar

StartChar: m.sc
Encoding: 354 -1 215
Width: 771
VWidth: 0
GlyphClass: 2
Flags: W
TeX: 547 0
HStem: 0 21G<46 124.702 320.447 399 590 668.693> 527 20G<144.271 255.708 648.895 766>
AnchorPoint: "bot_acc" 333 -123 basechar 0
AnchorPoint: "dotbelow" 333 -123 basechar 0
AnchorPoint: "ogon_acc" 573 -123 basechar 0
AnchorPoint: "top_accl" 480 670 basechar 0
AnchorPoint: "dotabove" 480 670 basechar 0
LayerCount: 2
Fore
SplineSet
46 0 m 1
 148 547 l 1
 250 547 l 1
 375 109 l 1
 662 547 l 1
 766 547 l 1
 665 0 l 1
 590 0 l 1
 672 440 l 1
 386 0 l 1
 326 0 l 1
 203 443 l 1
 121 0 l 1
 46 0 l 1
EndSplineSet
Validated: 1
EndChar

StartChar: n.sc
Encoding: 355 -1 216
Width: 631
VWidth: 0
GlyphClass: 2
Flags: W
TeX: 547 0
HStem: 0 21G<46 124.689 444.8 527.729> 527 20G<144.271 248.158 547.312 626>
AnchorPoint: "bot_acc" 262 -123 basechar 0
AnchorPoint: "dotbelow" 262 -123 basechar 0
AnchorPoint: "ogon_acc" 433 -123 basechar 0
AnchorPoint: "top_accl" 409 670 basechar 0
AnchorPoint: "dotabove" 409 670 basechar 0
LayerCount: 2
Fore
SplineSet
46 0 m 1
 148 547 l 1
 237 547 l 1
 473 124 l 1
 551 547 l 1
 626 547 l 1
 524 0 l 1
 456 0 l 1
 204 450 l 1
 121 0 l 1
 46 0 l 1
EndSplineSet
Validated: 1
EndChar

StartChar: eng.sc
Encoding: 356 -1 217
Width: 631
VWidth: 0
Flags: W
TeX: 547 -247
HStem: -247 69<274.181 391.243> 0 21G<46 124.689> 527 20G<144.271 248.158 547.312 626>
VStem: 181 71<-122.488 -92>
LayerCount: 2
Fore
SplineSet
46 0 m 1
 148 547 l 1
 237 547 l 1
 473 124 l 1
 551 547 l 1
 626 547 l 1
 512 -64 l 2
 490 -184 424 -247 319 -247 c 0
 235 -247 180 -205 178 -123 c 0
 178 -112 178 -106 181 -92 c 1
 252 -92 l 1
 247 -140 279 -178 326 -178 c 0
 387 -178 423 -141 439 -60 c 2
 451 8 l 1
 204 450 l 1
 121 0 l 1
 46 0 l 1
EndSplineSet
Validated: 33
EndChar

StartChar: o.sc
Encoding: 357 -1 218
Width: 708
VWidth: 0
GlyphClass: 2
Flags: W
TeX: 547 0
HStem: -9 68<236.369 437.785> 488 69<310.748 511.822>
VStem: 56 76<159.255 324.208> 617 77<221.968 388.317>
AnchorPoint: "bot_acc" 305 -123 basechar 0
AnchorPoint: "dotbelow" 305 -123 basechar 0
AnchorPoint: "ogon_acc" 305 -123 basechar 0
AnchorPoint: "top_accl" 452 670 basechar 0
AnchorPoint: "dotabove" 452 670 basechar 0
LayerCount: 2
Fore
SplineSet
56 225 m 0
 53 397 231 557 429 557 c 0
 569 557 691 459 694 321 c 0
 697 151 518 -9 321 -9 c 0
 175 -9 59 91 56 225 c 0
132 236 m 0
 134 136 222 59 329 59 c 0
 480 59 620 180 617 311 c 0
 615 415 530 488 415 488 c 0
 270 488 130 365 132 236 c 0
EndSplineSet
Validated: 33
EndChar

StartChar: oogonek.sc
Encoding: 358 -1 219
Width: 708
VWidth: 0
GlyphClass: 3
Flags: W
TeX: 547 -250
HStem: -250 74<331.74 396> -9 68<236.44 339> 488 69<310.748 511.822>
VStem: 56 76<159.255 324.208> 248 76<-171.977 -75.4569> 617 77<221.968 388.317>
AnchorPoint: "bot_acc" 290 -360 basechar 0
AnchorPoint: "dotbelow" 290 -360 basechar 0
AnchorPoint: "ogon_acc" 290 -360 basechar 0
AnchorPoint: "top_accl" 448 670 basechar 0
AnchorPoint: "dotabove" 448 670 basechar 0
LayerCount: 2
Fore
SplineSet
56 225 m 0
 53 397 231 557 429 557 c 0
 569 557 691 459 694 321 c 0
 696 193 596 71 463 18 c 0
 421 2 381 -22 351 -56 c 0
 334 -77 324 -98 324 -116 c 0
 324 -141 331 -176 360 -176 c 0
 379 -176 394 -175 410 -172 c 1
 396 -246 l 1
 376 -249 352 -250 336 -250 c 0
 268 -250 248 -193 248 -147 c 0
 248 -92 281 -48 339 -9 c 1
 321 -9 l 2
 175 -9 59 91 56 225 c 0
132 236 m 0
 134 136 222 59 329 59 c 0
 480 59 620 180 617 311 c 0
 615 415 530 488 415 488 c 0
 270 488 130 365 132 236 c 0
EndSplineSet
Validated: 33
Ligature2: "ccmp_lig subtable" o.sc ogonekcomb
EndChar

StartChar: p.sc
Encoding: 359 -1 220
Width: 503
VWidth: 0
GlyphClass: 2
Flags: W
TeX: 547 0
HStem: 0 21G<46 124.662> 213 68<173 388.035> 480 67<210 409.05>
VStem: 443 76<332.757 456.164>
AnchorPoint: "bot_acc" 223 -123 basechar 0
AnchorPoint: "dotbelow" 223 -123 basechar 0
AnchorPoint: "ogon_acc" 29 -123 basechar 0
AnchorPoint: "top_accl" 370 670 basechar 0
AnchorPoint: "dotabove" 370 670 basechar 0
LayerCount: 2
Fore
SplineSet
46 0 m 1
 148 547 l 1
 315 547 l 2
 459 547 518 507 519 418 c 0
 520 361 497 304 457 267 c 0
 416 229 363 213 265 213 c 2
 160 213 l 1
 121 0 l 1
 46 0 l 1
173 281 m 1
 271 281 l 2
 343 281 381 291 408 317 c 0
 430 338 444 374 443 408 c 0
 443 433 430 453 410 465 c 0
 390 476 353 480 286 480 c 2
 210 480 l 1
 173 281 l 1
EndSplineSet
Validated: 33
EndChar

StartChar: q.sc
Encoding: 360 -1 221
Width: 710
VWidth: 0
GlyphClass: 2
Flags: W
TeX: 547 -9
HStem: -9 68<239.794 447.691 575.843 638> 169 69<152.357 357.578> 488 69<313.451 527.775>
VStem: 55 77<222 321.035> 627 77<218.409 393.317>
AnchorPoint: "bot_acc" 306 -123 basechar 0
AnchorPoint: "dotbelow" 306 -123 basechar 0
AnchorPoint: "ogon_acc" 306 -123 basechar 0
AnchorPoint: "top_accl" 453 670 basechar 0
AnchorPoint: "dotabove" 453 670 basechar 0
LayerCount: 2
Fore
SplineSet
55 223 m 0
 52 404 235 557 431 557 c 0
 592 557 701 464 704 329 c 0
 705 233 657 136 575 76 c 1
 593 65 610 59 629 59 c 0
 633 59 640 59 652 62 c 1
 638 -9 l 1
 577 -9 550 0 512 35 c 1
 462 7 395 -9 331 -9 c 0
 174 -9 58 91 55 223 c 0
132 222 m 1
 177 233 213 238 256 238 c 0
 366 238 431 206 524 123 c 1
 599 186 629 243 627 314 c 0
 625 419 542 488 423 488 c 0
 268 488 133 378 132 222 c 1
151 158 m 1
 174 110 248 59 338 59 c 0
 382 59 416 66 456 84 c 1
 391 144 326 169 236 169 c 0
 202 169 177 166 151 158 c 1
EndSplineSet
Validated: 33
EndChar

StartChar: r.sc
Encoding: 361 -1 222
Width: 526
VWidth: 0
GlyphClass: 2
Flags: W
TeX: 547 0
HStem: 0 21G<46 124.708 352.336 458> 480 67<210 414.702>
VStem: 450 76<324.587 446.019>
AnchorPoint: "bot_acc" 217 -123 basechar 0
AnchorPoint: "dotbelow" 217 -123 basechar 0
AnchorPoint: "ogon_acc" 366 -123 basechar 0
AnchorPoint: "top_accl" 364 670 basechar 0
AnchorPoint: "dotabove" 364 670 basechar 0
LayerCount: 2
Fore
SplineSet
46 0 m 1
 148 547 l 1
 298 547 l 2
 466 547 524 500 526 405 c 0
 528 296 450 214 331 198 c 1
 458 0 l 1
 365 0 l 1
 201 259 l 1
 297 259 336 262 372 276 c 0
 418 294 450 343 450 396 c 0
 448 459 400 480 285 480 c 2
 210 480 l 1
 121 0 l 1
 46 0 l 1
EndSplineSet
Validated: 33
EndChar

StartChar: s.sc
Encoding: 362 -1 223
Width: 417
VWidth: 0
GlyphClass: 2
Flags: W
TeX: 547 0
HStem: -9 68<125.421 264.831> 488 69<203.12 329.009>
VStem: 19 79<85.9193 168> 84 76<353.335 445.203> 320 76<112.922 219.323> 349 79<394 467.408>
AnchorPoint: "bot_acc" 158 -123 basechar 0
AnchorPoint: "dotbelow" 158 -123 basechar 0
AnchorPoint: "ogon_acc" 127 -123 basechar 0
AnchorPoint: "top_accl" 305 670 basechar 0
AnchorPoint: "dotabove" 305 670 basechar 0
LayerCount: 2
Fore
SplineSet
19 127 m 0xe8
 18 137 19 153 20 168 c 1
 98 168 l 1
 96 90 128 59 191 59 c 0
 262 59 321 112 320 175 c 0xe8
 319 215 293 233 215 254 c 0
 99 287 85 323 84 381 c 0
 82 468 168 557 282 557 c 0
 369 557 426 506 428 431 c 0
 428 422 427 413 425 394 c 1
 349 394 l 1
 351 469 316 488 273 488 c 0
 207 488 159 438 160 389 c 0xd4
 160 377 167 360 175 353 c 0
 186 342 197 338 252 322 c 0
 320 301 349 286 367 265 c 0
 386 244 396 217 396 186 c 0
 398 85 298 -9 180 -9 c 0
 85 -9 20 48 19 127 c 0xe8
EndSplineSet
Validated: 33
EndChar

StartChar: scedilla.sc
Encoding: 363 -1 224
Width: 417
VWidth: 0
GlyphClass: 3
Flags: W
TeX: 547 -249
HStem: -249 56<143.973 224.304> 488 69<203.12 329.009>
VStem: 19 79<87.0273 168> 81 57<-186.672 -160> 84 76<353.335 445.203> 232 56<-185.114 -105.351> 320 76<110.611 219.323> 349 79<394 467.408>
AnchorPoint: "bot_acc" 137 -359 basechar 0
AnchorPoint: "dotbelow" 137 -359 basechar 0
AnchorPoint: "ogon_acc" 137 -359 basechar 0
AnchorPoint: "top_accl" 301 670 basechar 0
AnchorPoint: "dotabove" 301 670 basechar 0
LayerCount: 2
Fore
SplineSet
19 127 m 0xe4
 18 137 19 153 20 168 c 1
 98 168 l 1
 96 90 128 59 191 59 c 0
 262 59 321 112 320 175 c 0xe6
 319 215 293 233 215 254 c 0
 99 287 85 323 84 381 c 0
 82 468 168 557 282 557 c 0
 369 557 426 506 428 431 c 0
 428 422 427 413 425 394 c 1
 349 394 l 1
 351 469 316 488 273 488 c 0
 207 488 159 438 160 389 c 0xcd
 160 377 167 360 175 353 c 0
 186 342 197 338 252 322 c 0
 320 301 349 286 367 265 c 0
 386 244 396 217 396 186 c 0
 398 98 322 15 225 -5 c 1
 197 -42 l 1
 248 -49 288 -92 288 -145 c 0
 288 -202 241 -249 184 -249 c 0
 131 -249 88 -210 81 -160 c 1
 138 -160 l 1xd6
 144 -179 162 -193 184 -193 c 0
 210 -193 232 -172 232 -145 c 0
 232 -119 210 -97 184 -97 c 0
 166 -97 152 -106 143 -119 c 1
 103 -94 l 1
 167 -9 l 1
 79 -4 20 52 19 127 c 0xe4
EndSplineSet
Validated: 33
AlternateSubs2: "'aalt' Access All Alternates in Latin lookup 0 subtable" uni0219.sc
Ligature2: "ccmp_lig subtable" s.sc cedillacmb
Substitution2: "locl_ROM subtable" uni0219.sc
EndChar

StartChar: t.sc
Encoding: 364 -1 225
Width: 354
VWidth: 0
GlyphClass: 2
Flags: W
TeX: 547 0
HStem: 0 21G<110 187.75> 480 67<79 199 274 406>
AnchorPoint: "bot_acc" 124 -123 basechar 0
AnchorPoint: "dotbelow" 124 -123 basechar 0
AnchorPoint: "ogon_acc" 93 -123 basechar 0
AnchorPoint: "top_accl" 271 670 basechar 0
AnchorPoint: "dotabove" 271 670 basechar 0
LayerCount: 2
Fore
SplineSet
67 480 m 1
 79 547 l 1
 418 547 l 1
 406 480 l 1
 274 480 l 1
 184 0 l 1
 110 0 l 1
 199 480 l 1
 67 480 l 1
EndSplineSet
Validated: 1
EndChar

StartChar: tcedilla.sc
Encoding: 365 -1 226
Width: 354
VWidth: 0
GlyphClass: 3
Flags: W
TeX: 547 -249
HStem: -249 56<108.76 187.463> 480 67<79 199 274 406>
VStem: 45 58<-186.672 -160> 196 56<-185.428 -105.029>
AnchorPoint: "bot_acc" 102 -359 basechar 0
AnchorPoint: "dotbelow" 102 -359 basechar 0
AnchorPoint: "ogon_acc" 102 -359 basechar 0
AnchorPoint: "top_accl" 271 670 basechar 0
AnchorPoint: "dotabove" 271 670 basechar 0
LayerCount: 2
Fore
SplineSet
45 -160 m 1
 103 -160 l 1
 109 -179 127 -193 148 -193 c 0
 175 -193 196 -172 196 -145 c 0
 196 -119 175 -97 148 -97 c 0
 131 -97 116 -106 108 -119 c 1
 68 -94 l 1
 139 0 l 1
 110 0 l 1
 199 480 l 1
 67 480 l 1
 79 547 l 1
 418 547 l 1
 406 480 l 1
 274 480 l 1
 185 1 l 1
 194 1 l 1
 162 -42 l 1
 213 -49 252 -92 252 -145 c 0
 252 -202 206 -249 148 -249 c 0
 96 -249 53 -210 45 -160 c 1
EndSplineSet
Validated: 1
AlternateSubs2: "'aalt' Access All Alternates in Latin lookup 0 subtable" uni021B.sc
Ligature2: "ccmp_lig subtable" t.sc cedillacmb
Substitution2: "locl_ROM subtable" uni021B.sc
EndChar

StartChar: u.sc
Encoding: 366 -1 227
Width: 564
VWidth: 0
GlyphClass: 2
Flags: W
TeX: 547 0
HStem: -9 68<189.286 345.084> 527 20G<145.31 224 481.31 559>
VStem: 80 75<91.9542 290.5> 149 75<509.111 547>
AnchorPoint: "bot_acc" 230 -123 basechar 0
AnchorPoint: "dotbelow" 230 -123 basechar 0
AnchorPoint: "ogon_acc" 230 -123 basechar 0
AnchorPoint: "top_accl" 377 670 basechar 0
AnchorPoint: "dotabove" 377 670 basechar 0
LayerCount: 2
Fore
SplineSet
80 133 m 0xe0
 80 155 82 182 87 211 c 2
 149 547 l 1
 224 547 l 1xd0
 161 206 l 2
 157 184 155 163 155 144 c 0
 156 93 200 59 262 59 c 0
 343 59 403 105 423 211 c 2
 485 547 l 1
 559 547 l 1
 496 206 l 2
 469 59 376 -9 253 -9 c 0
 151 -9 82 50 80 133 c 0xe0
EndSplineSet
Validated: 1
EndChar

StartChar: uogonek.sc
Encoding: 367 -1 228
Width: 564
VWidth: 0
GlyphClass: 3
Flags: W
TeX: 547 -250
HStem: -250 74<253.74 318> -9 68<191.156 260> 527 20G<145.31 224 481.31 559>
VStem: 80 75<91.9542 290.5> 149 75<509.111 547> 170 76<-171.977 -76.1177>
AnchorPoint: "bot_acc" 212 -360 basechar 0
AnchorPoint: "dotbelow" 212 -360 basechar 0
AnchorPoint: "ogon_acc" 212 -360 basechar 0
AnchorPoint: "top_accl" 377 670 basechar 0
AnchorPoint: "dotabove" 377 670 basechar 0
LayerCount: 2
Fore
SplineSet
80 133 m 0xf4
 80 155 82 182 87 211 c 2
 149 547 l 1
 224 547 l 1xe8
 161 206 l 2
 157 184 155 163 155 144 c 0
 156 93 200 59 262 59 c 0
 343 59 403 105 423 211 c 2
 485 547 l 1
 559 547 l 1
 496 206 l 2
 478 111 433 48 369 16 c 0
 333 -2 300 -25 273 -56 c 0
 256 -77 246 -98 246 -116 c 0
 246 -141 253 -176 282 -176 c 0
 301 -176 316 -175 332 -172 c 1
 318 -246 l 1
 298 -249 274 -250 258 -250 c 0
 190 -250 170 -193 170 -147 c 0
 170 -92 203 -49 260 -9 c 1
 253 -9 l 2
 151 -9 82 50 80 133 c 0xf4
EndSplineSet
Validated: 1
Ligature2: "ccmp_lig subtable" u.sc ogonekcomb
EndChar

StartChar: v.sc
Encoding: 368 -1 229
Width: 601
VWidth: 0
GlyphClass: 2
Flags: W
TeX: 547 0
HStem: 0 21G<232.625 316.797> 527 20G<91 177.156 558.422 654>
AnchorPoint: "bot_acc" 249 -123 basechar 0
AnchorPoint: "dotbelow" 249 -123 basechar 0
AnchorPoint: "ogon_acc" 212 -123 basechar 0
AnchorPoint: "top_accl" 396 670 basechar 0
AnchorPoint: "dotabove" 396 670 basechar 0
LayerCount: 2
Fore
SplineSet
91 547 m 1
 172 547 l 1
 288 97 l 1
 571 547 l 1
 654 547 l 1
 304 0 l 1
 238 0 l 1
 91 547 l 1
EndSplineSet
Validated: 1
EndChar

StartChar: w.sc
Encoding: 369 -1 230
Width: 804
VWidth: 0
GlyphClass: 2
Flags: W
TeX: 547 0
HStem: 0 21G<161.404 259.588 492.724 591.018> 527 20G<93 171.545 429.273 508.364 766.091 855>
AnchorPoint: "bot_acc" 349 -123 basechar 0
AnchorPoint: "dotbelow" 349 -123 basechar 0
AnchorPoint: "ogon_acc" 489 -123 basechar 0
AnchorPoint: "top_accl" 496 670 basechar 0
AnchorPoint: "dotabove" 496 670 basechar 0
LayerCount: 2
Fore
SplineSet
93 547 m 1
 169 547 l 1
 225 107 l 1
 439 547 l 1
 506 547 l 1
 558 107 l 1
 776 547 l 1
 855 547 l 1
 581 0 l 1
 495 0 l 1
 448 413 l 1
 250 0 l 1
 164 0 l 1
 93 547 l 1
EndSplineSet
Validated: 1
EndChar

StartChar: x.sc
Encoding: 370 -1 231
Width: 528
VWidth: 0
GlyphClass: 2
Flags: W
TeX: 547 0
HStem: 0 21G<-18 92.4545 384.273 484> 527 20G<97 194.874 465.748 576>
AnchorPoint: "bot_acc" 210 -123 basechar 0
AnchorPoint: "dotbelow" 210 -123 basechar 0
AnchorPoint: "ogon_acc" 392 -123 basechar 0
AnchorPoint: "top_accl" 357 670 basechar 0
AnchorPoint: "dotabove" 357 670 basechar 0
LayerCount: 2
Fore
SplineSet
-18 0 m 1
 240 281 l 1
 97 547 l 1
 184 547 l 1
 296 341 l 1
 484 547 l 1
 576 547 l 1
 331 278 l 1
 484 0 l 1
 395 0 l 1
 277 220 l 1
 74 0 l 1
 -18 0 l 1
EndSplineSet
Validated: 1
EndChar

StartChar: y.sc
Encoding: 371 -1 232
Width: 515
VWidth: 0
GlyphClass: 2
Flags: W
TeX: 547 0
HStem: 0 21G<189 267.757> 527 20G<83 173.431 475.861 576>
AnchorPoint: "bot_acc" 204 -123 basechar 0
AnchorPoint: "dotbelow" 204 -123 basechar 0
AnchorPoint: "ogon_acc" 172 -123 basechar 0
AnchorPoint: "top_accl" 351 670 basechar 0
AnchorPoint: "dotabove" 351 670 basechar 0
LayerCount: 2
Fore
SplineSet
83 547 m 1
 166 547 l 1
 273 259 l 1
 491 547 l 1
 576 547 l 1
 298 181 l 1
 264 0 l 1
 189 0 l 1
 224 185 l 1
 83 547 l 1
EndSplineSet
Validated: 1
EndChar

StartChar: z.sc
Encoding: 372 -1 233
Width: 397
VWidth: 0
GlyphClass: 2
Flags: W
TeX: 547 0
HStem: 0 68<90 360> 480 67<95 349>
AnchorPoint: "bot_acc" 150 -123 basechar 0
AnchorPoint: "dotbelow" 150 -123 basechar 0
AnchorPoint: "ogon_acc" 269 -123 basechar 0
AnchorPoint: "top_accl" 297 670 basechar 0
AnchorPoint: "dotabove" 297 670 basechar 0
LayerCount: 2
Fore
SplineSet
-15 0 m 1
 -4 63 l 1
 349 480 l 1
 83 480 l 1
 95 547 l 1
 453 547 l 1
 442 484 l 1
 90 68 l 1
 372 68 l 1
 360 0 l 1
 -15 0 l 1
EndSplineSet
Validated: 1
EndChar

StartChar: ohorn.sc
Encoding: 373 -1 234
Width: 747
VWidth: 0
GlyphClass: 2
Flags: W
TeX: 557 -9
HStem: -9 68<249.369 450.785> 488 69<323.748 526.221> 527 20G<727 792>
VStem: 69 76<159.255 324.208> 630 77<221.968 388.968> 730 62<483.798 547>
AnchorPoint: "bot_acc" 314 -123 basechar 0
AnchorPoint: "dotbelow" 314 -123 basechar 0
AnchorPoint: "ogon_acc" 314 -123 basechar 0
AnchorPoint: "top_accl" 461 670 basechar 0
AnchorPoint: "dotabove" 461 670 basechar 0
LayerCount: 2
Fore
SplineSet
69 225 m 0xbc
 66 397 244 557 442 557 c 0xdc
 536 557 623 512 669 441 c 1
 698 462 724 494 730 547 c 1
 792 547 l 1
 784 472 741 422 695 390 c 1
 702 368 706 345 707 321 c 0
 710 151 531 -9 334 -9 c 0
 188 -9 72 91 69 225 c 0xbc
145 236 m 0
 147 136 235 59 342 59 c 0
 493 59 633 180 630 311 c 0
 628 415 543 488 428 488 c 0
 283 488 143 365 145 236 c 0
EndSplineSet
Validated: 33
EndChar

StartChar: uhorn.sc
Encoding: 374 -1 235
Width: 667
VWidth: 0
GlyphClass: 2
Flags: W
TeX: 547 -9
HStem: -9 68<214.286 370.084> 527 20G<170.31 249 506.31 584 633.5 699>
VStem: 105 75<91.9542 290.5> 174 75<509.111 547> 637 62<483.546 547>
AnchorPoint: "bot_acc" 255 -123 basechar 0
AnchorPoint: "dotbelow" 255 -123 basechar 0
AnchorPoint: "ogon_acc" 255 -123 basechar 0
AnchorPoint: "top_accl" 402 670 basechar 0
AnchorPoint: "dotabove" 402 670 basechar 0
LayerCount: 2
Fore
SplineSet
105 133 m 0xe8
 105 155 107 182 112 211 c 2
 174 547 l 1
 249 547 l 1xd8
 186 206 l 2
 182 184 180 163 180 144 c 0
 181 93 225 59 287 59 c 0
 368 59 428 105 448 211 c 2
 510 547 l 1
 584 547 l 1
 563 432 l 1
 597 453 630 486 637 547 c 1
 699 547 l 1
 688 444 613 389 550 360 c 1
 521 206 l 2
 494 59 401 -9 278 -9 c 0
 176 -9 107 50 105 133 c 0xe8
EndSplineSet
Validated: 1
EndChar

StartChar: ae.sc
Encoding: 375 -1 236
Width: 814
VWidth: 0
Flags: W
TeX: 547 0
HStem: 0 68<500 738> 178 68<311 446> 243 67<545 774> 480 67<577 827>
LayerCount: 2
Fore
SplineSet
-16 0 m 1xd0
 501 547 l 1
 839 547 l 1
 827 480 l 1
 577 480 l 1
 545 310 l 1
 786 310 l 1
 774 243 l 1
 532 243 l 1xb0
 500 68 l 1
 750 68 l 1
 738 0 l 1
 413 0 l 1
 446 178 l 1
 246 178 l 1
 77 0 l 1
 -16 0 l 1xd0
311 246 m 1xd0
 459 246 l 1
 495 442 l 1
 311 246 l 1xd0
EndSplineSet
Validated: 1
EndChar

StartChar: oe.sc
Encoding: 376 -1 237
Width: 960
VWidth: 0
Flags: W
TeX: 547 0
HStem: -9 68<233.435 442.737> 0 68<646 884> 243 67<691 921> 480 67<723 973> 488 69<305.422 518.05>
VStem: 56 76<156.211 328.516>
LayerCount: 2
Fore
SplineSet
56 224 m 0xa4
 53 402 222 557 424 557 c 0xac
 526 557 602 521 643 456 c 1
 660 547 l 1
 986 547 l 1
 973 480 l 1
 723 480 l 1
 691 310 l 1
 933 310 l 1
 921 243 l 1
 679 243 l 1
 646 68 l 1
 897 68 l 1
 884 0 l 1
 559 0 l 1x74
 575 90 l 1
 511 23 430 -9 332 -9 c 0
 167 -9 59 84 56 224 c 0xa4
132 234 m 0
 134 136 212 59 337 59 c 0
 483 59 618 177 615 321 c 0
 614 422 531 488 414 488 c 0
 260 488 130 367 132 234 c 0
EndSplineSet
Validated: 33
EndChar

StartChar: thorn.sc
Encoding: 377 -1 238
Width: 503
VWidth: 0
Flags: W
TeX: 547 0
HStem: 0 21G<46 124.704> 108 68<153 368.035> 375 67<203 396.93> 527 20G<144.271 222>
VStem: 423 76<230 351.164>
LayerCount: 2
Fore
SplineSet
46 0 m 1
 148 547 l 1
 222 547 l 1
 203 442 l 1
 295 442 l 2
 439 442 498 402 499 313 c 0
 500 256 477 199 437 162 c 0
 396 124 343 108 245 108 c 2
 141 108 l 1
 121 0 l 1
 46 0 l 1
153 176 m 1
 251 176 l 2
 323 176 361 186 388 212 c 0
 410 234 424 270 423 303 c 0
 422 328 410 349 390 360 c 0
 370 371 333 375 266 375 c 2
 190 375 l 1
 153 176 l 1
EndSplineSet
Validated: 33
EndChar

StartChar: eth.sc
Encoding: 378 -1 239
Width: 658
VWidth: 0
Flags: W
TeX: 547 0
HStem: 0 68<170 402.741> 248 67<67 128 215 364> 480 67<246 467.424>
VStem: 566 77<219.75 400.085>
LayerCount: 2
Fore
SplineSet
55 248 m 1
 67 315 l 1
 140 315 l 1
 184 547 l 1
 327 547 l 2
 433 547 494 535 542 505 c 0
 608 464 641 407 643 332 c 0
 644 229 599 138 514 74 c 0
 443 22 366 0 249 0 c 2
 83 0 l 1
 128 248 l 1
 55 248 l 1
170 68 m 1
 241 68 l 2
 359 68 425 86 483 136 c 0
 536 181 568 253 566 320 c 0
 564 420 501 480 321 480 c 2
 246 480 l 1
 215 315 l 1
 377 315 l 1
 364 248 l 1
 203 248 l 1
 170 68 l 1
EndSplineSet
Validated: 33
EndChar

StartChar: oslash.sc
Encoding: 379 -1 240
Width: 720
VWidth: 0
GlyphClass: 2
Flags: W
TeX: 608 -61
HStem: -9 68<241.917 448.462> 488 69<318.885 528.814>
VStem: 66 76<151.398 324.734> 627 76<223.205 394.896>
AnchorPoint: "bot_acc" 311 -123 basechar 0
AnchorPoint: "dotbelow" 311 -123 basechar 0
AnchorPoint: "ogon_acc" 311 -123 basechar 0
AnchorPoint: "top_accl" 458 670 basechar 0
AnchorPoint: "dotabove" 458 670 basechar 0
LayerCount: 2
Fore
SplineSet
40 -21 m 1
 131 68 l 1
 89 109 67 160 66 220 c 0
 62 398 239 557 430 557 c 0
 493 557 546 541 585 518 c 1
 676 608 l 1
 726 566 l 1
 638 478 l 1
 679 438 702 386 703 326 c 0
 706 153 528 -9 335 -9 c 0
 283 -9 223 6 184 28 c 1
 93 -61 l 1
 40 -21 l 1
142 231 m 0
 143 183 152 160 185 122 c 1
 532 465 l 1
 502 480 463 488 423 488 c 0
 271 488 140 358 142 231 c 0
238 82 m 1
 275 65 302 59 341 59 c 0
 487 59 629 175 627 314 c 0
 626 362 617 384 584 425 c 1
 238 82 l 1
EndSplineSet
Validated: 33
EndChar

StartChar: f_i
Encoding: 129 64257 241
Width: 487
VWidth: 0
GlyphClass: 3
Flags: W
TeX: 739 0
HStem: 0 21G<71 148.708 320 397.693> 480 67<87 160 246 369> 672 67<304.902 405>
LayerCount: 2
Fore
SplineSet
71 0 m 1
 160 480 l 1
 75 480 l 1
 87 547 l 1
 172 547 l 1
 200 685 292 739 400 739 c 2
 417 739 l 1
 405 672 l 1
 390 672 l 2
 305 672 262 635 246 547 c 1
 381 547 l 1
 369 480 l 1
 234 480 l 1
 145 0 l 1
 71 0 l 1
320 0 m 1
 421 547 l 1
 495 547 l 1
 394 0 l 1
 320 0 l 1
433 607 m 1
 456 733 l 1
 530 733 l 1
 507 607 l 1
 433 607 l 1
EndSplineSet
Validated: 1
Ligature2: "liga_PLK subtable" f i
Ligature2: "liga_NLDb subtable" f i
Ligature2: "liga_f_i subtable" f i
EndChar

StartChar: f_l
Encoding: 130 64258 242
Width: 485
VWidth: 0
GlyphClass: 3
Flags: W
TeX: 739 0
HStem: 0 21G<71 148.708 318 395.708> 480 67<87 160 246 369> 672 67<304.902 405>
LayerCount: 2
Fore
SplineSet
71 0 m 1
 160 480 l 1
 75 480 l 1
 87 547 l 1
 172 547 l 1
 200 685 292 739 400 739 c 2
 417 739 l 1
 405 672 l 1
 390 672 l 2
 305 672 262 635 246 547 c 1
 381 547 l 1
 369 480 l 1
 234 480 l 1
 145 0 l 1
 71 0 l 1
318 0 m 1
 455 739 l 1
 529 739 l 1
 392 0 l 1
 318 0 l 1
EndSplineSet
Validated: 1
Ligature2: "liga_f_f_l subtable" f l
EndChar

StartChar: f_f
Encoding: 380 64256 243
Width: 573
VWidth: 0
GlyphClass: 3
Flags: W
TeX: 739 0
HStem: 0 21G<71 148.708 318 395.708> 480 67<87 160 246 407 493 616> 672 67<304.902 405 551.902 652>
LayerCount: 2
Fore
SplineSet
71 0 m 1
 160 480 l 1
 75 480 l 1
 87 547 l 1
 172 547 l 1
 200 685 292 739 400 739 c 2
 417 739 l 1
 405 672 l 1
 390 672 l 2
 305 672 262 635 246 547 c 1
 419 547 l 1
 447 685 539 739 647 739 c 2
 664 739 l 1
 652 672 l 1
 637 672 l 2
 552 672 509 635 493 547 c 1
 628 547 l 1
 616 480 l 1
 481 480 l 1
 392 0 l 1
 318 0 l 1
 407 480 l 1
 234 480 l 1
 145 0 l 1
 71 0 l 1
EndSplineSet
Validated: 1
Ligature2: "liga_f_f_l subtable" f f
EndChar

StartChar: f_f_i
Encoding: 381 64259 244
Width: 732
VWidth: 0
GlyphClass: 3
Flags: W
TeX: 739 0
HStem: 0 21G<71 148.708 318 395.708 565 642.693> 480 67<87 160 246 407 493 616> 672 67<304.902 405 551.902 652>
LayerCount: 2
Fore
SplineSet
71 0 m 1
 160 480 l 1
 75 480 l 1
 87 547 l 1
 172 547 l 1
 200 685 292 739 400 739 c 2
 417 739 l 1
 405 672 l 1
 390 672 l 2
 305 672 262 635 246 547 c 1
 419 547 l 1
 447 685 539 739 647 739 c 2
 664 739 l 1
 652 672 l 1
 637 672 l 2
 552 672 509 635 493 547 c 1
 628 547 l 1
 616 480 l 1
 481 480 l 1
 392 0 l 1
 318 0 l 1
 407 480 l 1
 234 480 l 1
 145 0 l 1
 71 0 l 1
565 0 m 1
 666 547 l 1
 740 547 l 1
 639 0 l 1
 565 0 l 1
677 607 m 1
 700 733 l 1
 774 733 l 1
 751 607 l 1
 677 607 l 1
EndSplineSet
Validated: 1
Ligature2: "liga_PLK subtable" f_f i
Ligature2: "liga_NLDb subtable" f_f i
Ligature2: "liga_f_i subtable" f_f i
EndChar

StartChar: f_f_l
Encoding: 382 64260 245
Width: 732
VWidth: 0
GlyphClass: 3
Flags: W
TeX: 739 0
HStem: 0 21G<71 148.708 318 395.708 565 642.708> 480 67<87 160 246 407 493 616> 672 67<304.902 405 551.902 652>
LayerCount: 2
Fore
SplineSet
71 0 m 1
 160 480 l 1
 75 480 l 1
 87 547 l 1
 172 547 l 1
 200 685 292 739 400 739 c 2
 417 739 l 1
 405 672 l 1
 390 672 l 2
 305 672 262 635 246 547 c 1
 419 547 l 1
 447 685 539 739 647 739 c 2
 664 739 l 1
 652 672 l 1
 637 672 l 2
 552 672 509 635 493 547 c 1
 628 547 l 1
 616 480 l 1
 481 480 l 1
 392 0 l 1
 318 0 l 1
 407 480 l 1
 234 480 l 1
 145 0 l 1
 71 0 l 1
565 0 m 1
 702 739 l 1
 776 739 l 1
 639 0 l 1
 565 0 l 1
EndSplineSet
Validated: 1
Ligature2: "liga_f_f_l subtable" f f l
EndChar

StartChar: f_k
Encoding: 383 -1 246
Width: 787
VWidth: 0
GlyphClass: 3
Flags: W
TeX: 739 0
HStem: 0 21G<71 148.708 318 395.717 647.123 752> 480 67<87 160 246 369> 672 67<304.902 405>
LayerCount: 2
Fore
SplineSet
71 0 m 1
 160 480 l 1
 75 480 l 1
 87 547 l 1
 172 547 l 1
 200 685 292 739 400 739 c 2
 417 739 l 1
 405 672 l 1
 390 672 l 2
 305 672 262 635 246 547 c 1
 381 547 l 1
 369 480 l 1
 234 480 l 1
 145 0 l 1
 71 0 l 1
318 0 m 1
 455 739 l 1
 529 739 l 1
 432 215 l 1
 748 547 l 1
 839 547 l 1
 575 272 l 1
 752 0 l 1
 660 0 l 1
 519 219 l 1
 413 113 l 1
 392 0 l 1
 318 0 l 1
EndSplineSet
Validated: 1
Ligature2: "liga_PLK subtable" f k
EndChar

StartChar: hyphendbl
Encoding: 384 11840 247
Width: 332
VWidth: 0
Flags: W
TeX: 407 0
HStem: 122 63<41 301> 344 63<83 343>
VStem: 29 326
LayerCount: 2
Fore
SplineSet
29 122 m 1
 41 185 l 1
 313 185 l 1
 301 122 l 1
 29 122 l 1
71 344 m 1
 83 407 l 1
 355 407 l 1
 343 344 l 1
 71 344 l 1
EndSplineSet
Validated: 1
EndChar

StartChar: died
Encoding: 385 -1 248
Width: 626
VWidth: 0
Flags: W
TeX: 739 0
HStem: 0 21G<246 323.725> 510 74<141 341 428 628> 719 20G<379.258 457>
LayerCount: 2
Fore
SplineSet
128 510 m 1
 141 584 l 1
 354 584 l 1
 383 739 l 1
 457 739 l 1
 428 584 l 1
 641 584 l 1
 628 510 l 1
 415 510 l 1
 320 0 l 1
 246 0 l 1
 341 510 l 1
 128 510 l 1
EndSplineSet
Validated: 1
EndChar

StartChar: dong
Encoding: 386 8363 249
Width: 672
VWidth: 0
Flags: W
TeX: 739 -68
HStem: -68 68<27 573> 100 58<231.75 401.386> 529 58<289.404 458.452> 623 53<460 579 651 695> 719 20G<596.508 663>
VStem: 92 66<229.591 398.932>
LayerCount: 2
Fore
SplineSet
27 0 m 1
 573 0 l 1
 573 -68 l 1
 27 -68 l 1
 27 0 l 1
92 295 m 0
 92 451 231 587 390 587 c 0
 463 587 516 560 556 502 c 1
 579 623 l 1
 449 623 l 1
 460 676 l 1
 589 676 l 1
 600 739 l 1
 663 739 l 1
 651 676 l 1
 704 676 l 1
 695 623 l 1
 641 623 l 1
 546 111 l 1
 483 111 l 1
 499 195 l 1
 438 127 382 100 302 100 c 0
 181 100 92 182 92 295 c 0
158 311 m 0
 158 220 222 158 315 158 c 0
 427 158 533 266 533 381 c 0
 533 465 465 529 376 529 c 0
 262 529 158 425 158 311 c 0
EndSplineSet
Validated: 1
EndChar

StartChar: threequartersemdash
Encoding: 144 -1 250
Width: 750
VWidth: 0
GlyphClass: 3
Flags: W
TeX: 296 0
HStem: 233 63<29 768>
LayerCount: 2
Fore
SplineSet
18 233 m 1
 29 296 l 1
 780 296 l 1
 768 233 l 1
 18 233 l 1
EndSplineSet
Validated: 1
Ligature2: "'dlig' Discretionary Ligatures in Latin lookup 12 subtable" hyphen hyphen hyphen
EndChar

StartChar: emdash.alt
Encoding: 387 -1 251
Width: 667
VWidth: 0
Flags: W
TeX: 296 0
HStem: 233 63<29 684>
LayerCount: 2
Fore
SplineSet
17 233 m 1
 29 296 l 1
 696 296 l 1
 684 233 l 1
 17 233 l 1
EndSplineSet
Validated: 1
EndChar

StartChar: colonmonetary
Encoding: 388 8353 252
Width: 813
VWidth: 0
Flags: W
TeX: 822 -83
HStem: -9 69<293.242 344 418 545.54> 547 21G<735 839> 684 68<415.653 471 547 645.32>
VStem: 76 77<204.981 424.614>
LayerCount: 2
Fore
SplineSet
76 290 m 0
 76 521 259 720 484 749 c 1
 498 822 l 1
 560 822 l 1
 547 752 l 1
 695 749 813 667 839 547 c 1
 757 547 l 1
 713 646 636 683 534 684 c 1
 418 55 l 1
 520 56 610 101 695 194 c 1
 777 194 l 1
 689 64 553 -12 405 -13 c 1
 392 -83 l 1
 330 -83 l 1
 344 -9 l 1
 183 13 76 130 76 290 c 0
153 310 m 0
 153 182 236 84 357 60 c 1
 471 679 l 1
 299 649 153 489 153 310 c 0
EndSplineSet
Validated: 1
EndChar

